<svg
  width="52"
  height="41"
  viewBox="0 0 52 41"
  fill="none"
  xmlns="http://www.w3.org/2000/svg"
>
  <path
    d="M51.1277 5.72802C50.8967 4.56405 50.3806 3.4989 49.6598 2.61897C49.5078 2.42725 49.3491 2.25554 49.177 2.08384C47.9 0.800538 46.1077 0 44.1497 0H7.11044C5.15244 0 3.36655 0.800538 2.08354 2.08384C1.91184 2.25554 1.75306 2.42725 1.60068 2.61897C0.879531 3.4988 0.363426 4.56405 0.138763 5.72802C0.0464545 6.17724 0 6.64149 0 7.11084V33.1246C0 34.1226 0.211648 35.0819 0.589091 35.9482C0.939201 36.7752 1.45541 37.5235 2.08344 38.1509C2.24263 38.3097 2.40071 38.4557 2.57322 38.6009C3.80326 39.6195 5.39102 40.2348 7.11044 40.2348H44.1497C45.8697 40.2348 47.4643 39.6195 48.6873 38.5944C48.8593 38.4557 49.0182 38.3097 49.177 38.1509C49.8047 37.5235 50.3208 36.7752 50.6781 35.9482V35.9418C51.0555 35.0755 51.26 34.1226 51.26 33.1247V7.11084C51.2601 6.64149 51.2143 6.17724 51.1277 5.72802ZM4.65636 4.65636C5.2916 4.02182 6.1447 3.63767 7.11044 3.63767H44.1497C45.1154 3.63767 45.976 4.02182 46.6037 4.65636C46.7161 4.76939 46.8219 4.89534 46.9153 5.02049L27.5018 21.9398C26.9664 22.4091 26.305 22.6408 25.63 22.6408C24.9619 22.6408 24.3009 22.4091 23.7584 21.9398L4.3523 5.01328C4.4382 4.88813 4.54403 4.76939 4.65636 4.65636ZM3.63766 33.1246V8.77759L17.6865 21.0335L3.64477 33.2763C3.63766 33.2299 3.63766 33.1776 3.63766 33.1246ZM44.1497 36.5964H7.11044C6.4816 36.5964 5.89321 36.4311 5.39102 36.1407L20.2062 23.2296L21.5893 24.4328C22.7468 25.4386 24.1952 25.948 25.63 25.948C27.0723 25.948 28.5206 25.4386 29.678 24.4328L31.0604 23.2296L45.8698 36.1407C45.3669 36.4311 44.7785 36.5964 44.1497 36.5964ZM47.6224 33.1246C47.6224 33.1776 47.6224 33.2299 47.6156 33.2763L33.574 21.0406L47.6224 8.7841V33.1246Z"
    fill="white"
  />
</svg> 