<svg
  width="425"
  height="420"
  viewBox="0 0 425 420"
  fill="none"
  xmlns="http://www.w3.org/2000/svg"
>
  <path
    fill-rule="evenodd"
    clip-rule="evenodd"
    d="M212.645 0.985596C95.0576 0.985596 0 96.7839 0 215.299C0 310.035 60.9067 390.227 145.4 418.609C155.964 420.743 159.834 413.998 159.834 408.324C159.834 403.356 159.486 386.325 159.486 368.581C100.333 381.357 88.015 343.033 88.015 343.033C78.5088 318.195 64.4236 311.812 64.4236 311.812C45.063 298.683 65.8339 298.683 65.8339 298.683C87.3099 300.103 98.5789 320.682 98.5789 320.682C117.587 353.323 148.217 344.1 160.539 338.422C162.297 324.583 167.934 315.004 173.919 309.682C126.741 304.714 77.1029 286.264 77.1029 203.943C77.1029 180.525 85.547 161.365 98.9271 146.464C96.8161 141.143 89.4209 119.14 101.042 89.6904C101.042 89.6904 118.997 84.0122 159.481 111.689C176.814 106.998 194.689 104.612 212.645 104.591C230.599 104.591 248.902 107.078 265.803 111.689C306.292 84.0122 324.247 89.6904 324.247 89.6904C335.868 119.14 328.469 141.143 326.358 146.464C340.09 161.365 348.186 180.525 348.186 203.943C348.186 286.264 298.548 304.357 251.017 309.682C258.765 316.423 265.451 329.195 265.451 349.421C265.451 378.161 265.103 401.226 265.103 408.32C265.103 413.998 268.977 420.743 279.536 418.614C364.03 390.223 424.936 310.035 424.936 215.299C425.285 96.7839 329.879 0.985596 212.645 0.985596Z"
    fill="white"
  />
</svg> 