<svg
  width="52"
  height="49"
  viewBox="0 0 52 49"
  fill="none"
  xmlns="http://www.w3.org/2000/svg"
>
  <g clip-path="url(#clip0_9_65)">
    <path
      fill-rule="evenodd"
      clip-rule="evenodd"
      d="M25.5539 0C11.4232 0 0 11.1695 0 24.9876C0 36.0332 7.31927 45.3831 17.473 48.6923C18.7425 48.9411 19.2075 48.1546 19.2075 47.4931C19.2075 46.9138 19.1657 44.9282 19.1657 42.8593C12.0572 44.3489 10.5769 39.8806 10.5769 39.8806C9.43455 36.9846 7.74191 36.2404 7.74191 36.2404C5.41531 34.7096 7.91138 34.7096 7.91138 34.7096C10.4922 34.8751 11.8464 37.2745 11.8464 37.2745C14.1306 41.0803 17.8115 40.005 19.2923 39.3429C19.5036 37.7294 20.1809 36.6125 20.9002 35.9921C15.2306 35.4128 9.2656 33.2617 9.2656 23.6635C9.2656 20.9331 10.2803 18.6992 11.8883 16.9619C11.6346 16.3414 10.7459 13.776 12.1425 10.3424C12.1425 10.3424 14.3001 9.68037 19.1652 12.9073C21.248 12.3604 23.3961 12.0821 25.5539 12.0798C27.7115 12.0798 29.911 12.3697 31.9421 12.9073C36.8077 9.68037 38.9653 10.3424 38.9653 10.3424C40.3619 13.776 39.4727 16.3414 39.219 16.9619C40.8693 18.6992 41.8422 20.9331 41.8422 23.6635C41.8422 33.2617 35.8771 35.3712 30.1652 35.9921C31.0963 36.778 31.8997 38.2671 31.8997 40.6254C31.8997 43.9762 31.8579 46.6655 31.8579 47.4926C31.8579 48.1546 32.3234 48.9411 33.5924 48.6928C43.7461 45.3826 51.0654 36.0332 51.0654 24.9876C51.1073 11.1695 39.6422 0 25.5539 0Z"
      fill="white"
    />
  </g>
  <defs>
    <clipPath id="clip0_9_65">
      <rect
        width="51.2605"
        height="48.7395"
        fill="white"
      />
    </clipPath>
  </defs>
</svg> 