<svg
  width="52"
  height="52"
  viewBox="0 0 52 52"
  fill="none"
  xmlns="http://www.w3.org/2000/svg"
>
  <g clip-path="url(#clip0_10_70)">
    <path
      d="M46.7271 0H4.64722C2.08066 0 0 2.08066 0 4.64722V46.727C0 49.2937 2.08066 51.3743 4.64722 51.3743H46.727C49.2937 51.3743 51.3743 49.2937 51.3743 46.727V4.64722C51.3743 2.08066 49.2937 0 46.7271 0ZM15.8974 44.36C15.8974 45.1069 15.2919 45.7124 14.545 45.7124H8.7881C8.04116 45.7124 7.43569 45.1069 7.43569 44.36V20.2274C7.43569 19.4804 8.04116 18.875 8.7881 18.875H14.545C15.2919 18.875 15.8974 19.4804 15.8974 20.2274V44.36ZM11.6665 16.6001C8.64608 16.6001 6.19746 14.1515 6.19746 11.131C6.19746 8.11055 8.64608 5.66193 11.6665 5.66193C14.687 5.66193 17.1356 8.11055 17.1356 11.131C17.1356 14.1515 14.6871 16.6001 11.6665 16.6001ZM45.9827 44.4689C45.9827 45.1556 45.4259 45.7124 44.7392 45.7124H38.5617C37.875 45.7124 37.3182 45.1556 37.3182 44.4689V33.1493C37.3182 31.4607 37.8135 25.7497 32.9053 25.7497C29.098 25.7497 28.3258 29.6587 28.1707 31.413V44.4689C28.1707 45.1556 27.6141 45.7124 26.9273 45.7124H20.9525C20.2658 45.7124 19.709 45.1556 19.709 44.4689V20.1184C19.709 19.4317 20.2658 18.875 20.9525 18.875H26.9273C27.614 18.875 28.1707 19.4317 28.1707 20.1184V22.2238C29.5825 20.1052 31.6805 18.47 36.1475 18.47C46.0393 18.47 45.9827 27.7115 45.9827 32.7892V44.4689Z"
      fill="white"
    />
  </g>
  <defs>
    <clipPath id="clip0_10_70">
      <rect
        width="51.3743"
        height="51.3743"
        fill="white"
      />
    </clipPath>
  </defs>
</svg> 