<svg
  width="52"
  height="52"
  viewBox="0 0 52 52"
  fill="none"
  xmlns="http://www.w3.org/2000/svg"
>
  <path
    d="M8.54342 0C3.82501 0 0 3.82501 0 8.54342V42.7171C0 47.4355 3.82501 51.2605 8.54342 51.2605H42.7171C47.4355 51.2605 51.2605 47.4355 51.2605 42.7171V8.54342C51.2605 3.82501 47.4355 0 42.7171 0H8.54342ZM11.0893 10.9844H20.7769L27.6565 20.7602L36.0044 10.9844H39.0556L29.0343 22.7173L41.3917 40.2761H31.7065L23.7232 28.9342L14.0356 40.2761H10.9844L22.3454 26.9771L11.0893 10.9844ZM15.7615 13.4254L32.9794 37.8351H36.7195L19.5016 13.4254H15.7615Z"
    fill="white"
  />
</svg> 