<svg
        width="533"
        height="508"
        viewBox="0 0 533 508"
        fill="none"
        xmlns="http://www.w3.org/2000/svg"
      >
        <path
          d="M39 295.5C39 305.165 34.0751 313 28 313C21.9249 313 17 305.165 17 295.5C17 285.835 21.9249 278 28 278C34.0751 278 39 285.835 39 295.5Z"
        />
        <path
          d="M341.864 231.862C341.864 231.862 378.231 232.329 378.5 232.5C378.769 232.671 375.78 249.772 367.5 257.5L341.864 231.862Z"
          fill="#FF5A1F"
          style="
            fill: #ff5a1f;
            fill: color(display-p3 1 0.3529 0.1216);
            fill-opacity: 1;
          "
        />
        <path
          d="M471 196H486V261H471V196Z"
          fill="#FF5A1F"
          style="
            fill: #ff5a1f;
            fill: color(display-p3 1 0.3529 0.1216);
            fill-opacity: 1;
          "
        />
        <path
          d="M107 414.5C107 420.851 101.851 426 95.5 426C89.1487 426 84 420.851 84 414.5C84 408.149 89.1487 403 95.5 403C101.851 403 107 408.149 107 414.5Z"
          fill="#FF5A1F"
          style="
            fill: #ff5a1f;
            fill: color(display-p3 1 0.3529 0.1216);
            fill-opacity: 1;
          "
        />
        <path
          d="M432 305H448V355H432V305Z"
          fill="#FF5A1F"
          style="
            fill: #ff5a1f;
            fill: color(display-p3 1 0.3529 0.1216);
            fill-opacity: 1;
          "
        />
        <path
          d="M178 30C178 44.3594 165.24 56 149.5 56C133.76 56 121 44.3594 121 30C121 15.6406 133.76 4 149.5 4C165.24 4 178 15.6406 178 30Z"
          fill="white"
          style="fill: white; fill-opacity: 1"
        />
        <path
          d="M205 42C205 52.4934 198.06 61 189.5 61C180.94 61 174 52.4934 174 42C174 31.5066 180.94 23 189.5 23C198.06 23 205 31.5066 205 42Z"
          fill="white"
          style="fill: white; fill-opacity: 1"
        />
        <path
          d="M171 23H188V33H171V23Z"
          fill="white"
          style="fill: white; fill-opacity: 1"
        />
        <path
          d="M127 48C127 55.1797 121.404 61 114.5 61C107.596 61 102 55.1797 102 48C102 40.8203 107.596 35 114.5 35C121.404 35 127 40.8203 127 48Z"
          fill="white"
          style="fill: white; fill-opacity: 1"
        />
        <path
          d="M116 42H189V61H116V42Z"
          fill="white"
          style="fill: white; fill-opacity: 1"
        />
        <path
          d="M118 35.5165L121.383 34.2733L126 37L122.5 38L117 37L118 35.5165Z"
          fill="white"
          style="fill: white; fill-opacity: 1"
        />
        <path
          fill-rule="evenodd"
          clip-rule="evenodd"
          d="M143.436 0.740999C141.259 1.24241 137.52 2.5795 135.064 3.74945C132.05 5.25368 129.539 6.98076 127.306 9.20924C125.52 10.992 123.288 13.5548 122.339 14.9476C121.39 16.3404 119.995 18.9589 119.269 20.7974C118.544 22.6359 117.762 25.5329 117.595 27.2043L117.204 30.2684C111.177 31.3827 108.107 32.2741 106.6 32.9983C105.093 33.7226 102.749 35.3939 101.41 36.731C99.9584 38.2353 98.6748 40.2409 98.1167 41.968C97.6143 43.4722 97.2237 46.2578 97.2237 48.0963C97.2795 50.1577 97.726 52.4976 98.4515 54.2246C99.0654 55.7289 100.684 58.0688 101.968 59.3502C103.307 60.6315 105.651 62.3029 107.158 63.0829C108.721 63.9186 111.065 64.6985 112.46 64.8657C113.855 65.0328 123.12 65.1999 133.11 65.2557L151.249 65.3671C151.807 105.536 151.863 106.705 152.979 108.544C153.593 109.603 155.156 111.218 156.495 112.165L158.895 113.837C187.248 114.004 190.038 114.115 191.601 114.895C192.606 115.397 193.722 116.567 194.168 117.569C194.782 118.906 195.005 122.583 195.173 131.219L195.34 143.03L161.295 143.364C154.989 146.373 153.147 147.765 151.863 149.325C150.859 150.662 149.519 152.612 148.961 153.671C147.956 155.565 147.901 159.632 147.621 275.625L147.342 395.684C144.887 389.667 143.603 387.049 142.877 385.99C142.152 384.932 141.147 382.425 140.645 380.419C140.143 378.414 138.859 374.904 137.743 372.62C136.682 370.335 134.729 366.825 133.445 364.82C132.106 362.814 129.427 359.75 127.474 357.967C125.018 355.683 122.171 353.845 118.32 352.006C115.251 350.557 111.456 349.053 109.949 348.719C108.386 348.329 105.261 347.66 102.972 347.215C100.684 346.769 98.1166 346.435 97.2237 346.435C96.1632 346.435 95.7726 346.156 95.8284 345.543C95.94 344.986 96.9446 344.318 98.2283 343.928C99.4561 343.538 102.079 342.535 104.088 341.588C106.098 340.696 109.335 338.858 111.344 337.521C113.353 336.184 116.367 333.844 118.097 332.284C119.827 330.724 122.227 328.161 123.455 326.657C124.627 325.097 126.413 322.59 127.362 321.086C128.367 319.526 129.762 316.852 130.543 315.069C131.325 313.342 132.497 310.055 133.11 307.826C133.78 305.486 134.338 301.419 134.45 297.965C134.617 294.455 134.394 290.166 133.892 287.213C133.445 284.539 132.608 280.806 131.938 278.856C131.325 276.962 129.594 272.895 128.087 269.831C126.636 266.766 123.957 262.365 122.116 260.081C120.274 257.797 117.148 254.398 115.195 252.56C113.242 250.721 110.507 248.437 109.112 247.49C107.716 246.543 105.093 244.983 103.251 243.98C101.41 242.977 97.7818 241.417 95.1586 240.526C92.5355 239.579 88.1264 238.465 85.3916 238.019C81.8755 237.406 78.9175 237.239 75.6246 237.518C73.0015 237.74 69.0947 238.242 66.9738 238.688C64.853 239.133 61.281 240.136 59.1602 240.916C57.0394 241.696 53.8581 243.089 52.1838 244.036C50.5094 244.983 47.384 247.044 45.2631 248.604C43.1423 250.164 39.9052 253.061 38.0635 255.067C36.2775 257.073 33.766 260.192 32.5939 262.031C31.3661 263.869 29.301 267.491 28.0174 270.109C25.9524 274.343 25.3384 275.123 22.6037 276.85C20.8177 277.965 18.6969 279.97 17.6364 281.53C16.576 283.09 15.2365 285.709 14.6226 287.38C13.9157 289.423 13.5436 292.023 13.5064 295.18C13.5064 298.467 13.8413 301.085 14.6784 303.815C15.3482 305.988 16.6876 308.941 17.6922 310.445C18.6969 311.949 20.2596 313.788 21.2084 314.512C22.1572 315.292 24.1106 316.295 25.5617 316.796C27.9616 317.632 28.5755 318.244 30.8638 321.643C32.2591 323.816 35.4403 327.548 37.896 330C40.4075 332.451 43.6446 335.348 45.2073 336.407C46.7701 337.465 50.5094 339.582 53.5232 341.142C56.5371 342.646 58.937 344.151 58.8253 344.429C58.7137 344.708 57.5975 345.042 56.3696 345.098C55.1418 345.153 50.7327 346.101 46.6026 347.159C42.3609 348.218 37.003 350.056 34.3241 351.337C31.7009 352.563 27.9616 354.792 25.9524 356.24C23.9431 357.689 21.4874 359.694 20.427 360.586C19.4224 361.533 16.0737 365.21 13.0041 368.72C9.93445 372.23 6.75319 376.519 5.91602 378.191C5.02304 379.862 3.79518 382.871 3.18126 384.876C2.51152 386.882 1.50691 390.893 1.00461 393.79C0.111623 398.47 0 402.815 0 430.282C0 458.973 0.111624 462.372 1.22785 472.623C1.9534 478.751 3.23707 488.222 4.18586 493.626C5.07885 499.086 6.13927 504.156 6.41832 504.936C6.69738 505.716 7.2555 506.44 7.53455 506.607C7.81361 506.774 8.59497 506.774 9.2089 506.607C9.82283 506.44 10.4368 505.994 10.5484 505.604C10.66 505.27 10.5484 503.822 10.3251 502.429C10.1019 501.036 9.48796 497.805 9.04147 495.186C8.53916 492.568 8.03686 489.559 7.81361 488.501C7.64618 487.442 7.2555 485.158 6.97644 483.487C6.69738 481.815 6.3067 478.807 6.02764 476.801C5.8044 474.796 5.63696 472.066 5.58115 470.673V468.166C12.5018 465.826 16.1295 464.99 18.1387 464.767C20.2038 464.545 23.385 464.656 25.5617 465.046C27.6267 465.38 30.4173 466.216 31.8126 466.884C33.6543 467.832 34.7148 468.834 35.6636 470.673C36.3891 472.066 37.3937 474.907 37.8402 477.08C38.3425 479.253 39.0681 484.378 39.5704 488.501C40.0169 492.623 40.575 497.916 40.7982 500.2C40.9657 502.484 41.3563 504.936 41.6354 505.604C41.9145 506.329 42.5842 506.886 43.1423 506.886C43.7004 506.886 44.426 506.552 44.8167 506.162C45.2073 505.772 45.4864 503.989 45.4864 501.872C45.4864 499.866 45.0957 495.242 44.5934 491.565C44.1469 487.888 43.2539 482.372 42.6958 479.308C42.1377 476.244 41.2447 472.121 40.7424 470.116C39.961 466.996 39.8494 464.712 40.1843 453.681C40.4075 446.661 40.575 430.226 40.6308 417.189C40.7424 396.13 40.6308 393.122 39.7936 390.002C39.2355 388.107 38.2309 385.489 37.5612 384.152C36.9472 382.871 34.9938 380.363 33.2637 378.581C31.3661 376.575 28.7429 374.625 26.5105 373.511C24.5013 372.508 21.5432 371.505 19.9247 371.338L17.0225 370.948C21.9897 365.21 24.9478 362.424 26.7895 361.031C28.6313 359.639 31.6451 357.689 33.4869 356.686C35.3287 355.683 38.8448 354.123 41.3005 353.232C43.7562 352.34 48.277 351.059 51.3466 350.39C54.4162 349.722 57.3742 349.22 57.9324 349.22C58.4347 349.22 59.0486 349.778 59.2718 350.446C59.4951 351.17 60.2764 352.452 61.0578 353.343C61.895 354.234 63.9042 355.627 65.5785 356.463C67.2529 357.354 70.1551 358.302 71.9969 358.636C73.8386 358.97 76.9083 359.249 78.8617 359.249C80.7593 359.249 83.6615 358.914 85.28 358.469C86.8427 358.079 89.1868 357.299 90.4147 356.797C91.6425 356.24 93.261 355.293 93.9866 354.624C94.7121 353.956 95.4935 352.842 95.7726 352.117C96.1074 351.282 96.7214 350.892 97.8376 350.892C98.6748 350.892 101.744 351.393 104.647 352.006C107.549 352.619 111.846 353.845 114.135 354.792C116.423 355.739 119.827 357.577 121.669 358.859C123.511 360.196 126.134 362.647 127.529 364.374C128.925 366.101 131.101 369.444 132.385 371.84C133.669 374.291 135.231 378.135 135.845 380.419C136.794 384.208 136.906 386.269 136.738 402.147C136.682 411.785 136.18 424.599 135.734 430.56C135.231 436.521 134.227 446.55 133.39 452.845C132.608 459.14 130.934 469.893 129.706 476.801C128.478 483.71 126.692 492.846 125.799 497.136C124.515 503.097 124.292 505.214 124.739 506.162C125.018 506.886 125.743 507.443 126.301 507.443C126.804 507.499 127.585 507.164 127.92 506.774C128.311 506.384 128.869 505.047 129.204 503.822C129.483 502.596 130.878 495.465 132.273 487.944C133.669 480.422 135.176 471.787 135.622 468.723C136.068 465.659 136.459 462.985 136.459 462.706C136.459 462.483 136.682 462.316 137.017 462.316C137.352 462.316 138.971 463.319 140.645 464.545C143.547 466.606 143.659 466.884 143.157 468.277C142.878 469.169 142.152 472.456 141.538 475.687C140.924 478.918 140.031 484.545 139.585 488.222C139.138 491.899 138.58 497.303 138.357 500.2C138.133 503.766 138.189 505.883 138.636 506.719C138.971 507.443 139.752 508 140.366 508C140.98 508 141.705 507.554 141.984 506.997C142.208 506.496 142.598 503.432 142.822 500.2C142.989 496.969 143.659 490.451 144.273 485.715C144.943 480.98 146.617 472.066 148.012 465.937C149.407 459.809 151.64 451.006 152.924 446.438C154.263 441.814 156.216 435.574 157.277 432.51C158.337 429.446 160.402 424.32 161.853 421.089C163.249 417.858 165.593 413.234 166.988 410.782C168.383 408.331 171.006 404.208 172.737 401.59C174.467 398.971 177.927 394.737 180.327 392.174C182.727 389.612 186.745 385.99 189.201 384.152C191.657 382.313 195.954 379.751 198.689 378.414C201.424 377.132 205.442 375.628 207.619 375.071C210.13 374.458 213.702 374.068 217.665 374.068C222.521 374.012 225.032 374.347 229.664 375.517C232.901 376.297 238.036 377.912 241.106 379.026C244.175 380.196 250.091 382.815 254.221 384.876C258.352 386.938 265.886 391.005 270.965 393.902C276.044 396.799 283.076 401.033 286.592 403.317C290.108 405.657 296.917 409.724 301.661 412.454C306.405 415.128 313.103 419.083 316.451 421.145C319.8 423.262 323.037 424.933 323.595 424.989C324.097 424.989 324.823 424.487 325.102 423.875C325.549 422.983 325.325 422.37 323.986 420.811L322.312 418.861C334.255 406.548 340.115 400.42 343.018 397.356C345.92 394.236 349.268 390.893 350.496 389.946C351.724 388.943 353.622 388.052 354.682 387.829C355.743 387.662 357.529 387.773 358.589 388.107C359.649 388.442 362.105 389.723 364.003 391.005C365.956 392.23 368.691 394.292 370.142 395.573C371.537 396.91 373.937 399.473 375.5 401.311C378.123 404.431 378.235 404.821 377.956 407.161C377.788 408.721 376.616 411.674 374.83 414.961C373.212 417.858 368.523 425.267 364.449 431.396C360.319 437.524 354.85 445.157 352.282 448.388C349.715 451.619 345.864 455.853 343.743 457.748C341.622 459.698 338.385 462.316 336.543 463.486C334.702 464.712 331.799 466.272 330.125 466.94C327.669 467.887 325.939 468.11 321.195 468.11C315.837 468.11 314.777 467.887 308.638 465.826C304.954 464.545 294.127 460.255 284.639 456.188C275.151 452.176 264.435 447.497 260.919 445.825C257.403 444.098 253.998 442.817 253.384 442.928C252.659 443.04 252.212 443.597 252.156 444.655C252.045 445.77 252.38 446.494 253.552 447.274C254.389 447.942 258.184 449.725 261.979 451.341C265.774 452.956 269.012 454.628 269.179 455.073C269.346 455.519 269.179 457.413 268.844 459.252C268.509 461.09 267.337 467.33 266.221 473.18C265.161 479.03 263.598 487.888 262.761 492.958C261.979 498.027 261.31 503.264 261.254 504.602C261.198 506.329 261.477 507.22 262.147 507.666C262.872 508.167 263.319 508.056 264.212 507.164C265.105 506.273 265.607 504.379 266.5 497.972C267.17 493.515 269.067 482.484 270.798 473.458C272.528 464.433 274.035 456.968 274.146 456.856C274.258 456.801 277.495 458.082 281.457 459.753C285.364 461.425 290.666 463.653 293.29 464.712C295.913 465.77 301.438 467.776 305.568 469.169C309.698 470.561 315.112 472.01 317.568 472.4C320.916 472.957 322.87 472.957 325.381 472.511C327.223 472.233 330.348 471.286 332.358 470.45C334.367 469.67 337.325 468.166 338.943 467.163C340.618 466.216 343.352 464.099 345.083 462.539C346.869 460.979 350.329 457.302 352.896 454.349L357.473 448.945L520.721 448.667C524.852 446.717 527.14 444.99 528.535 443.485C530.098 441.87 531.437 439.808 531.995 438.081C532.888 435.519 532.944 424.432 532.944 295.737L533 156.178C531.214 152.278 529.819 150.217 528.758 148.991C527.698 147.821 525.744 146.261 524.349 145.593C522.954 144.868 520.331 144.033 518.489 143.643C515.866 143.085 499.848 143.03 447.05 143.253C409.601 143.475 373.937 143.42 367.798 143.197L356.636 142.807C356.636 121.079 356.747 114.617 356.915 114.449C357.082 114.282 373.267 114.059 392.913 113.948C419.424 113.781 429.079 113.558 430.307 113.057C431.2 112.667 432.707 111.72 433.544 110.884C434.437 110.048 435.553 108.655 436.055 107.708C436.893 106.26 437.06 103.307 437.283 85.9806L437.562 65.9242L477.747 65.3671C482.491 63.1386 484.835 61.5229 486.007 60.2973C487.179 59.1273 488.741 56.8431 489.467 55.3389C490.248 53.7789 490.974 51.439 491.141 50.0462C491.309 48.6534 491.197 46.1464 490.862 44.475C490.527 42.8037 489.69 40.2966 489.021 38.9595C488.351 37.6224 486.676 35.5054 485.281 34.2797C483.886 32.9983 481.653 31.4941 480.258 30.8813C478.528 30.1013 476.128 29.7113 472.444 29.5442L467.142 29.3213C466.696 24.7529 465.691 21.8002 464.408 19.126C462.845 15.9504 461.171 13.6105 458.547 10.992C456.538 8.98639 453.245 6.42364 451.236 5.36511C449.227 4.25086 446.101 2.91377 444.26 2.35665C441.971 1.68811 439.125 1.35383 435.33 1.35383C430.753 1.40954 428.967 1.68811 425.284 2.91377C422.828 3.74945 419.703 5.14226 418.307 5.92223C416.968 6.75791 414.456 8.65212 412.838 10.2121C411.163 11.7163 408.875 14.5019 407.759 16.3404C406.587 18.1789 405.247 20.7974 404.801 22.1902L403.964 24.6972C396.597 25.6443 393.304 26.5357 391.518 27.3714C389.843 28.1514 387.444 29.8784 386.272 31.2155C385.044 32.5526 383.314 35.1711 382.476 37.0653C381.639 39.0152 380.746 42.0237 380.579 43.7508C380.3 46.035 380.467 47.9849 381.193 50.3248C381.695 52.1633 382.811 54.8932 383.593 56.3974C384.43 57.9016 386.104 60.0187 387.388 61.1329C388.783 62.3586 391.071 63.5843 393.527 64.42C397.155 65.5899 398.438 65.6456 415.238 65.8128L433.097 65.9242C433.376 101.357 433.321 102.583 432.26 104.923C431.646 106.315 430.586 107.82 429.916 108.265C428.856 108.934 422.828 109.101 392.522 109.38L356.357 109.658C356.301 89.379 356.133 85.9806 355.464 84.3092C355.017 83.0835 354.236 81.5793 353.678 81.0222C353.175 80.4651 351.501 79.4065 349.938 78.6823C347.203 77.4009 346.869 77.3452 328.618 77.3452H310.033L310.312 44.865C320.972 45.0879 323.204 44.865 324.823 44.2522C326.163 43.6951 327.614 42.5251 328.451 41.2994L329.846 39.2381C330.125 7.98357 330.069 6.08936 329.176 4.13944C328.618 2.96948 327.39 1.52097 326.497 0.963848C324.935 -0.0389704 323.707 -0.0946839 305.568 0.0724525C290.722 0.183877 286.034 0.351014 285.197 0.963848C284.583 1.35383 283.578 2.35665 282.964 3.13662C281.96 4.52942 281.904 5.69938 281.848 22.1902C281.848 38.0124 281.96 39.9066 282.853 41.2994C283.355 42.1351 284.471 43.2494 285.364 43.7508C286.592 44.5307 288.155 44.6422 294.685 44.5307C298.982 44.475 303.168 44.5307 304.061 44.6979L305.568 45.0321V77.3452H269.849C269.849 63.7514 269.625 61.3001 269.012 60.0744C268.565 59.1273 267.505 57.9016 266.667 57.2888C265.161 56.1746 264.323 56.1189 246.575 56.1746C235.301 56.1746 227.488 56.3974 226.762 56.7317C226.037 57.066 224.92 58.2916 224.251 59.5173C222.967 61.6901 222.967 61.9686 223.134 79.4065C223.246 96.0645 223.302 97.2344 224.362 98.7386C224.976 99.63 226.148 100.689 227.041 101.079C228.102 101.636 231.004 101.859 237.366 101.859H246.129C246.799 109.825 246.966 114.895 246.966 118.294C246.966 121.636 246.799 128.656 246.575 133.893L246.24 143.364C243.115 143.308 232.734 143.253 221.181 143.197L200.084 143.085C200.084 126.65 199.805 122.305 199.191 119.519C198.745 117.346 197.796 114.728 197.07 113.837C196.401 112.945 194.838 111.664 193.61 111.051C191.601 110.048 190.261 109.937 176.085 109.881C165.537 109.881 160.347 109.658 159.454 109.213C158.784 108.823 157.668 107.708 156.942 106.705C155.714 104.923 155.714 104.756 155.714 85.1449V65.3671C187.806 65.2556 191.378 65.0885 193.666 64.3085C195.173 63.8629 197.629 62.6929 199.135 61.7458C200.587 60.8544 202.707 58.9045 203.879 57.4002C205.052 55.9517 206.558 53.2775 207.284 51.439C207.954 49.6005 208.735 46.8149 209.014 45.3107C209.293 43.5279 209.126 41.1323 208.679 38.6253C208.233 36.4525 207.172 33.2212 206.224 31.3827C205.331 29.5442 203.768 27.2043 202.763 26.1457C201.759 25.0872 199.805 23.4715 198.41 22.5802C197.015 21.633 194.503 20.3517 192.829 19.7945C190.541 18.9589 188.475 18.6803 184.569 18.7917L179.434 18.8474C177.816 15.6161 176.197 13.2762 174.857 11.6049C173.518 9.9335 170.783 7.48216 168.774 6.14507C166.709 4.75227 163.025 3.08091 160.012 2.1338C157.221 1.1867 153.203 0.351014 151.082 0.183877C148.849 0.0167408 145.78 0.239589 143.436 0.740999ZM304.452 4.80798C313.493 4.69656 321.474 4.58514 322.144 4.47371C322.87 4.418 323.93 4.8637 324.544 5.47653C325.549 6.47935 325.66 7.31503 325.66 13.6662C325.66 17.6218 325.493 24.8086 325.27 29.7113C324.935 37.2324 324.711 38.7924 323.874 39.5724C322.981 40.4637 321.307 40.5752 305.959 40.5752C291.838 40.5752 288.88 40.4637 287.82 39.7395C286.592 38.9038 286.592 38.8481 286.592 22.5802C286.536 9.98921 286.704 6.14508 287.262 5.64367C287.764 5.14226 292.564 4.91941 304.452 4.80798ZM140.645 6.47935C143.826 5.36511 146.226 4.91941 149.017 4.91941C151.193 4.91941 154.542 5.30939 156.551 5.8108C158.561 6.2565 161.686 7.48217 163.528 8.42927C165.314 9.43209 168.104 11.4377 169.723 12.9977C171.286 14.5576 173.406 17.3989 174.411 19.4046C175.416 21.4102 176.309 23.1373 176.476 23.3044C176.643 23.4715 179.657 23.5273 183.229 23.4158C189.48 23.2487 189.927 23.3044 193.108 24.8644C194.95 25.7557 197.35 27.4828 198.466 28.6528C199.582 29.8784 200.977 31.7169 201.647 32.7755C202.317 33.834 203.21 36.5639 203.712 38.7367C204.326 41.8566 204.438 43.4722 203.991 45.7007C203.656 47.3163 202.819 49.8791 202.094 51.439C201.368 52.9433 199.805 55.0603 198.577 56.1189C197.405 57.1774 195.061 58.6816 190.317 60.9101H113.297L110.507 59.6287C109 58.9045 106.991 57.6788 106.154 56.8431C105.261 56.0074 104.033 54.3361 103.363 53.1104C102.582 51.6247 102.191 49.8605 102.191 47.8177C102.191 45.8121 102.582 43.9736 103.363 42.5251C103.977 41.2994 105.372 39.5724 106.377 38.681C107.437 37.8453 109.167 36.731 110.228 36.3411C111.344 35.8954 114.023 35.5611 116.534 35.5611C120.497 35.5611 120.888 35.4497 121.334 34.2797C121.557 33.6112 121.837 31.9955 121.892 30.6584C121.892 29.377 122.171 27.2043 122.506 25.8115C122.841 24.4187 123.678 22.1345 124.404 20.6302C125.129 19.1817 126.748 16.7304 128.032 15.1704C129.371 13.6105 131.715 11.382 133.278 10.1564C134.896 8.93068 138.078 7.31503 140.645 6.47935ZM430.028 6.2565C432.037 5.86652 435.218 5.64367 437.172 5.75509C439.069 5.92223 442.195 6.53506 444.092 7.20361C446.046 7.81644 448.725 9.04211 450.12 9.9335C451.515 10.8249 453.803 12.7748 455.199 14.2233C456.65 15.6719 458.436 17.956 459.273 19.2374C460.054 20.5745 461.115 22.803 461.561 24.2515C462.008 25.7557 462.454 28.3742 462.566 30.1013C462.622 31.9955 463.012 33.6112 463.515 34.1683C464.184 34.8925 464.798 34.9482 466.863 34.5026C468.259 34.1683 470.826 33.8897 472.556 33.8897C474.9 33.8897 476.575 34.2797 478.584 35.2825C480.091 36.0625 481.988 37.511 482.714 38.4581C483.495 39.4609 484.667 41.5223 485.337 43.0822C486.23 45.1993 486.453 46.5364 486.286 48.6534C486.118 50.1577 485.616 52.1633 485.114 53.1104C484.667 54.0018 483.607 55.6174 482.714 56.676C481.821 57.6788 480.091 59.0716 478.863 59.7401C476.686 60.8544 475.682 60.9101 450.678 61.2444C436.39 61.4115 418.698 61.4672 411.331 61.4115C403.964 61.3001 396.987 60.9658 395.815 60.6873C394.699 60.353 392.69 59.2387 391.35 58.2359C390.067 57.2331 388.281 55.0603 387.388 53.389C386.216 51.1605 385.658 49.322 385.49 46.7035C385.323 43.8622 385.546 42.358 386.551 39.7395C387.388 37.4553 388.671 35.5611 390.513 33.7226C392.355 31.9398 394.029 30.8813 395.815 30.3241C397.322 29.9342 400.503 29.5442 402.959 29.4885C405.415 29.377 407.536 29.2656 407.703 29.1542C407.871 29.0985 408.15 27.9285 408.373 26.5914C408.596 25.2543 409.601 22.5244 410.605 20.5745C411.722 18.5132 413.787 15.7276 415.796 13.8334C417.638 12.1063 420.763 9.82208 422.772 8.81926C424.781 7.81644 428.019 6.7022 430.028 6.2565ZM228.548 61.3001C229.106 60.7987 233.962 60.6315 246.352 60.6315C261.756 60.5758 263.486 60.6873 264.268 61.5229C264.993 62.3029 265.105 65.0885 265.105 78.9608C265.105 88.0419 264.937 95.8973 264.658 96.3987C264.323 97.3458 262.928 97.4016 247.078 97.4016C231.618 97.4016 229.832 97.2901 228.939 96.3987C228.046 95.563 227.934 93.9474 227.878 78.6823C227.767 64.9771 227.934 61.8572 228.548 61.3001ZM269.905 81.7464L309.14 81.9136C347.538 82.0807 348.431 82.0807 349.603 83.195C350.273 83.8078 351.11 85.2006 351.501 86.2591C351.947 87.6519 352.171 95.8416 352.171 115.341C352.171 130.216 352.059 142.584 351.892 142.751C351.724 142.918 329.009 143.141 251.152 143.364L250.873 101.859H257.849C263.486 101.859 265.161 101.691 266.5 100.856C267.449 100.354 268.565 99.0729 269.012 98.0701C269.625 96.7887 269.849 94.226 269.849 89.0447L269.905 81.7464ZM162.635 148.044C163.472 147.765 243.282 147.598 340.06 147.542C461.171 147.542 516.87 147.71 518.656 148.1C520.108 148.434 522.34 149.325 523.568 150.161C524.907 151.108 526.303 152.779 528.591 157.236L528.758 293.453C528.814 368.385 528.758 431.173 528.591 433.011C528.423 435.129 527.81 437.078 527.028 438.304C526.303 439.418 524.349 441.201 519.661 444.488L361.714 444.377L366.57 436.911C369.249 432.789 371.928 429.279 372.43 429.112C372.988 428.944 404.131 428.722 509.95 428.555L512.685 425.49L512.517 298.634C512.406 172.892 512.406 171.722 511.289 169.827C510.675 168.825 509.448 167.432 506.992 165.593H173.072L171.397 166.763C170.448 167.432 169.221 168.936 168.662 170.106C167.658 172.223 167.602 175.956 167.49 401.256L164.979 405.49C163.584 407.774 161.072 412.621 159.398 416.186C157.668 419.752 156.161 422.705 156.049 422.705C155.882 422.705 154.933 419.752 152.031 409.612L151.752 290.388C151.528 215.623 151.64 168.713 151.975 164.479C152.31 160.189 152.868 157.125 153.482 155.844C154.04 154.785 155.268 153.058 156.216 152.055C157.221 151.052 158.672 149.827 159.565 149.325C160.402 148.824 161.798 148.267 162.635 148.044ZM174.523 169.772H339.836C503.029 169.716 505.15 169.772 507.941 171.889L508.22 297.631C508.387 376.686 508.276 423.54 507.941 423.875C507.606 424.209 482.267 424.376 441.134 424.376C404.634 424.376 374.83 424.265 374.83 424.098C374.83 423.986 376.449 420.811 378.458 417.134C380.411 413.457 382.086 410.281 382.086 410.058C382.03 409.835 383.146 408.22 384.43 406.548C385.769 404.877 389.788 400.587 393.415 397.077C397.043 393.567 401.452 388.832 403.238 386.492C404.968 384.208 406.866 381.088 407.424 379.528C408.205 377.578 408.429 375.962 408.205 373.957C408.038 372.452 407.257 369.945 406.475 368.385C405.694 366.881 404.522 365.098 403.852 364.486C403.015 363.65 402.68 362.758 402.68 360.864C402.736 359.304 402.289 357.689 401.62 356.574C400.894 355.46 399.89 354.625 398.941 354.457C397.88 354.29 397.099 353.622 395.369 350L398.327 347.159C400.001 345.599 402.401 343.371 403.741 342.145C405.08 340.975 406.531 339.304 406.978 338.468C407.424 337.632 407.759 335.738 407.759 334.29C407.759 332.618 407.312 330.947 406.643 329.833C405.917 328.663 404.634 327.66 403.127 327.103C400.894 326.267 400.615 326.267 398.271 327.326C396.876 327.938 393.806 330.167 391.462 332.228C389.062 334.345 383.648 339.192 379.463 342.981C375.221 346.769 370.254 351.505 368.468 353.566C365.845 356.519 363.947 359.75 358.812 370.057C352.729 382.369 352.338 382.982 349.492 385.099C347.817 386.325 343.241 390.726 339.278 394.849C335.316 399.027 329.121 405.657 325.437 409.612C321.809 413.624 318.74 416.911 318.628 417.022C318.516 417.078 315.614 415.462 312.154 413.456C308.693 411.451 304.396 408.888 302.554 407.774C300.712 406.715 297.029 404.431 294.462 402.76C291.838 401.088 288.825 399.138 287.764 398.47C286.648 397.801 281.792 394.849 276.881 391.952C271.97 389.055 264.937 385.155 261.254 383.26C257.57 381.366 254.221 379.639 253.831 379.416C253.217 379.082 253.273 378.581 253.998 376.742C254.556 375.517 255.394 373.177 255.952 371.45C256.566 369.611 257.235 368.441 257.682 368.497C258.128 368.553 259.97 368.887 261.812 369.277C263.654 369.611 267.393 369.834 270.184 369.667C274.09 369.5 275.876 369.11 278.276 367.995C279.951 367.16 282.127 365.767 283.132 364.82C284.136 363.873 285.588 361.923 286.313 360.474C287.039 359.026 288.378 355.46 289.327 352.507C290.276 349.61 291.336 346.101 291.671 344.708C292.229 342.368 292.397 342.145 295.187 341.254C296.75 340.752 299.038 339.471 300.21 338.468C301.829 337.131 302.443 336.072 302.666 334.401C302.889 332.73 302.722 331.727 301.829 330.223C301.215 329.164 298.647 326.434 296.136 324.094C291.838 320.139 291.615 319.804 291.615 317.576C291.671 316.239 291.28 312.506 290.778 309.219C290.276 305.932 289.383 301.698 288.769 299.859C288.099 298.021 286.76 294.79 285.699 292.617C284.695 290.5 283.857 288.55 283.857 288.327C283.857 288.104 284.639 287.101 285.588 286.099C286.536 285.096 287.82 283.313 288.378 282.199C288.992 280.917 289.439 278.912 289.439 277.185C289.383 275.458 288.936 273.285 288.322 271.892C287.653 270.499 286.201 268.828 284.806 267.825C283.523 266.878 281.457 265.875 280.23 265.541C278.946 265.207 275.653 265.039 267.393 265.485L262.37 263.089C259.356 261.641 255.896 260.415 253.719 260.081C251.71 259.747 247.859 259.468 245.18 259.468C241.496 259.468 239.208 259.802 235.692 260.917C233.181 261.752 229.385 263.312 227.265 264.427C224.809 265.708 222.353 267.602 220.623 269.496C219.116 271.223 217.274 273.73 216.605 275.068C215.935 276.46 215.042 278.522 214.707 279.692C214.26 281.084 213.535 282.032 212.419 282.589C211.47 283.09 208.735 285.374 206.279 287.77C202.931 291.057 201.48 292.951 200.14 295.848C199.247 297.91 198.019 301.419 197.517 303.648C196.959 306.322 196.736 309.163 196.903 312.116C197.07 315.292 197.796 318.412 199.247 322.701C200.363 326.1 202.596 331.615 204.214 334.958C205.833 338.357 209.349 344.318 216.884 355.293L211.637 369.5L206.837 370.67C204.214 371.338 200.084 372.842 197.629 374.068C195.173 375.238 191.266 377.466 188.978 378.971C186.634 380.475 182.001 384.486 178.485 387.996C175.025 391.45 172.067 394.292 171.955 394.292C171.788 394.292 171.788 346.992 171.899 289.163C172.011 231.334 172.123 181.471 172.123 178.351C172.123 173.393 172.234 172.557 173.295 171.276L174.523 169.772ZM70.9364 242.197C72.7782 241.919 76.5734 241.752 79.3082 241.919C82.0987 242.03 86.452 242.643 89.0752 243.312C91.6983 243.924 96.2191 245.596 99.1213 246.989C102.023 248.381 106.154 250.777 108.274 252.393C110.395 253.953 113.632 256.905 115.474 258.911C117.26 260.861 119.995 264.538 121.502 266.989C123.009 269.441 124.125 271.502 123.957 271.558C123.79 271.613 122.841 271.112 121.892 270.332C120.888 269.608 118.097 268.104 115.753 266.989C113.353 265.931 109.67 264.649 107.493 264.204C104.647 263.591 100.07 263.368 90.917 263.368C81.5964 263.368 77.2431 263.591 74.7316 264.204C72.7782 264.649 69.2621 265.931 66.918 267.101C63.8484 268.549 61.4485 270.221 58.8812 272.783C56.2022 275.402 54.5837 277.63 53.1326 280.639C52.0163 282.923 50.8443 286.154 50.5094 287.881C50.1746 289.553 50.0071 293.731 50.1187 297.352C50.342 302.255 50.7327 304.762 51.8489 308.216C52.6303 310.668 54.3046 314.177 55.4766 316.016C56.7045 317.854 59.1602 320.807 60.9462 322.59C62.788 324.373 65.2437 326.378 66.4715 326.991C67.6994 327.604 70.2109 328.718 72.0527 329.387C74.0619 330.167 78.0803 330.947 82.0988 331.337C86.3404 331.783 91.6983 331.894 96.6097 331.671C100.907 331.448 105.93 330.891 107.772 330.39C109.614 329.944 112.628 328.83 114.469 327.938C116.311 327.047 117.874 326.49 117.986 326.601C118.041 326.768 116.032 328.496 113.521 330.501C110.953 332.562 106.433 335.404 103.307 336.908C100.237 338.412 95.8284 340.139 93.5401 340.752C91.2518 341.421 87.1218 342.201 84.3312 342.535C80.7593 342.925 77.7455 342.925 74.0061 342.535C71.1039 342.201 67.1971 341.532 65.3553 341.031C63.5135 340.585 59.9974 339.304 57.5417 338.189C55.086 337.131 51.5698 335.237 49.7281 333.955C47.8863 332.73 44.9841 330.501 43.3097 329.053C41.6354 327.604 39.0681 324.93 37.6728 323.147C36.2775 321.364 34.659 319.08 32.9846 316.35L34.659 315.069C35.5519 314.345 36.8914 313.119 37.617 312.395C38.3425 311.615 39.4029 310.055 40.0169 308.885C40.575 307.715 41.468 305.375 41.9703 303.592C42.4168 301.809 42.8632 298.132 42.8632 295.403C42.8632 292.617 42.5842 289.218 42.1935 287.881C41.8586 286.489 40.7424 283.87 39.7936 282.087C38.789 280.249 37.1705 278.076 36.2217 277.185C35.2171 276.293 33.5985 275.402 32.7056 275.179C31.3661 274.845 31.087 274.566 31.3661 273.675C31.5335 273.062 32.6497 270.833 33.766 268.716C34.8822 266.655 37.3937 262.867 39.4029 260.415C41.4121 257.908 44.9283 254.454 47.2165 252.616C49.5048 250.833 53.6907 248.27 56.4254 246.933C59.216 245.596 62.8438 244.092 64.5181 243.59C66.1925 243.145 69.0947 242.476 70.9364 242.197ZM77.9129 267.602C78.6943 267.435 85.2242 267.435 92.4239 267.491C104.423 267.602 105.874 267.714 109.167 268.883C111.177 269.552 114.302 270.945 116.088 271.892C117.874 272.839 120.665 275.012 122.227 276.739C123.79 278.41 125.799 281.14 126.581 282.867C127.418 284.539 128.478 287.436 128.98 289.274C129.427 291.113 129.818 293.731 129.818 295.124C129.818 296.461 129.539 299.247 129.204 301.252C128.925 303.314 127.697 306.768 126.469 309.331C125.297 311.782 123.232 315.013 121.837 316.573C120.497 318.077 117.539 320.584 115.251 322.089C112.963 323.649 109.391 325.431 107.214 326.1C103.809 327.158 101.968 327.326 92.7029 327.381C84.6661 327.437 81.3174 327.214 78.7501 326.546C76.9083 326.044 73.6712 324.763 71.4946 323.649C68.983 322.311 66.0808 320.139 63.3461 317.409C60.3881 314.456 58.6021 312.116 57.3742 309.609C56.4254 307.603 55.2534 303.704 54.6953 300.974C53.8023 296.294 53.8023 295.57 54.6395 290.667C55.1418 287.603 56.2022 284.037 57.0952 282.31C57.9324 280.583 59.9974 277.853 61.6717 276.126C63.4019 274.455 66.0808 272.338 67.5878 271.502C69.1505 270.666 71.7736 269.496 73.448 268.883C75.1223 268.326 77.1315 267.714 77.9129 267.602ZM25.2268 280.082C27.1244 278.856 28.2406 278.522 29.301 278.745C30.0824 278.967 31.2545 279.357 31.8684 279.636C32.4823 279.97 33.7102 280.862 34.5473 281.642C35.4961 282.533 36.5565 284.539 37.2263 286.767C37.896 288.884 38.3983 292.004 38.3983 294.288C38.3983 296.405 38.1193 299.525 37.7286 301.252C37.3379 302.924 36.5007 305.319 35.9426 306.545C35.3287 307.771 34.3799 309.219 33.8776 309.776C33.3753 310.333 32.2591 311.169 31.3103 311.67C30.1382 312.283 28.9104 312.395 27.1244 312.116C25.3384 311.838 24.1106 311.169 22.9385 309.943C22.0455 308.941 20.6503 306.656 19.9805 304.818C19.1434 302.812 18.5294 299.748 18.362 297.074C18.1946 294.511 18.3062 291.391 18.6969 289.831C19.0317 288.271 20.0921 285.82 20.9851 284.371C21.9339 282.923 23.8315 280.973 25.2268 280.082ZM272.974 290.89C275.765 290.221 278.109 289.608 278.276 289.553C278.444 289.553 279.337 290.723 280.341 292.171C281.29 293.62 282.35 295.402 282.685 296.071C283.02 296.74 283.299 297.575 283.299 297.91C283.299 298.188 282.685 298.467 281.904 298.467C281.123 298.467 279.616 298.857 278.499 299.414C277.327 299.971 275.988 301.085 275.43 301.921C274.816 302.756 274.369 303.759 274.369 304.149C274.314 304.539 274.76 305.208 275.262 305.709C276.1 306.434 276.267 306.378 277.383 304.929C277.997 304.038 279.225 302.979 280.118 302.534C280.955 302.144 282.406 301.921 283.299 302.088C284.583 302.255 285.085 302.757 285.532 304.149C285.867 305.152 286.369 308.495 286.704 311.559C287.039 314.623 287.485 318.412 287.82 320.027C288.211 322.311 288.825 323.426 290.443 325.041C291.615 326.211 293.848 328.217 295.466 329.498C297.587 331.225 298.368 332.284 298.368 333.287C298.368 334.122 297.81 335.07 296.861 335.794C295.969 336.407 294.071 337.187 292.508 337.465C291.001 337.799 289.383 338.189 288.992 338.412C288.657 338.635 288.099 340.362 287.82 342.201C287.541 344.039 287.15 345.933 286.983 346.491C286.704 347.215 286.034 347.493 284.025 347.493C281.904 347.493 280.899 347.159 279.113 345.822C277.886 344.931 276.434 344.151 275.932 344.151C275.374 344.151 274.816 344.541 274.648 345.098C274.481 345.655 274.593 346.769 274.928 347.605C275.207 348.44 276.044 349.499 276.769 349.945C277.439 350.39 279.56 351.059 281.513 351.449C284.583 352.117 284.974 352.34 284.639 353.343C284.416 353.956 283.913 355.182 283.523 356.129C283.132 357.02 282.071 358.859 281.123 360.14C280.174 361.421 278.388 363.037 277.16 363.65C275.932 364.263 273.365 364.987 271.467 365.266C269.402 365.6 266.779 365.6 265.161 365.321C263.654 365.043 261.254 364.541 259.858 364.151C258.463 363.817 255.952 362.87 254.277 362.146C252.603 361.421 251.152 360.809 251.096 360.809C250.984 360.809 250.65 361.533 250.315 362.368C249.812 363.706 249.924 364.04 251.152 365.043C252.435 366.045 252.491 366.324 251.989 368.664C251.71 370.001 250.984 372.452 250.37 374.068C249.757 375.684 249.143 377.021 248.975 377.021C248.808 377.021 245.347 375.907 241.329 374.514C237.255 373.177 232.511 371.672 230.836 371.227C229.162 370.781 225.255 370.057 216.605 369.054L218.725 363.148C219.842 359.861 220.79 357.132 220.79 357.076C220.79 357.02 222.353 356.24 224.306 355.349C226.204 354.457 229.33 352.619 231.283 351.17C233.292 349.666 235.19 347.716 235.804 346.491C236.362 345.321 236.976 343.203 237.534 339.137L239.934 338.969C241.999 338.858 242.278 338.635 242.445 337.465C242.557 336.685 242.278 335.849 241.887 335.627C241.496 335.404 240.269 335.237 239.208 335.181C238.148 335.181 236.306 334.624 235.134 333.955C233.627 333.064 232.734 331.894 231.897 329.944C231.004 327.771 230.781 326.323 230.948 323.537C231.06 321.141 231.618 318.969 232.511 317.13C233.348 315.459 234.687 313.787 235.859 313.063C236.92 312.339 238.427 311.782 239.208 311.782C239.99 311.838 241.385 312.283 242.278 312.84C243.227 313.398 244.175 314.567 244.399 315.459C244.678 316.35 245.18 317.409 245.515 317.854C245.906 318.244 246.966 318.523 247.859 318.523C248.808 318.523 250.538 317.91 251.766 317.242C252.938 316.573 254.556 315.125 255.282 314.066C255.952 312.952 256.789 311.225 257.124 310.166C257.459 309.052 257.849 305.765 258.463 297.297L260.417 296.015C261.477 295.291 263.654 294.177 265.161 293.453C266.723 292.784 270.239 291.614 272.974 290.89ZM396.597 333.565C398.606 332.005 400.559 330.835 401.006 330.891C401.452 330.947 402.289 331.671 402.848 332.451C403.573 333.342 403.852 334.29 403.629 335.07C403.461 335.738 401.341 338.134 398.997 340.362C396.597 342.591 393.918 345.153 392.969 346.101C392.076 347.048 390.067 348.273 388.504 348.775C386.997 349.276 384.765 350.446 383.648 351.393C382.476 352.285 381.528 353.566 381.528 354.179C381.528 354.792 381.974 355.46 382.532 355.627C383.034 355.85 384.095 355.572 384.876 355.07C385.658 354.513 387.164 353.733 388.225 353.232C389.732 352.619 390.457 352.563 391.462 353.009C392.411 353.455 392.69 354.067 392.69 355.572C392.69 356.909 392.132 358.19 390.792 359.861C389.341 361.7 389.006 362.368 389.509 362.926C389.899 363.316 390.736 363.65 391.462 363.65C392.243 363.65 393.36 362.814 394.532 361.421C395.48 360.196 396.764 359.193 397.322 359.193C397.936 359.193 398.271 359.639 398.327 360.419C398.383 361.087 398.327 362.201 398.271 362.814C398.215 363.427 397.601 364.987 396.82 366.268C396.094 367.605 395.592 369.165 395.759 369.778C395.927 370.391 396.429 370.892 396.876 370.892C397.322 370.892 398.55 370.391 399.555 369.722C401.006 368.831 401.452 368.775 401.955 369.332C402.289 369.722 402.903 371.06 403.294 372.285C403.685 373.511 403.908 375.349 403.741 376.464C403.573 377.522 402.569 379.751 401.452 381.478C400.336 383.149 395.536 388.553 390.736 393.456C382.421 401.868 381.918 402.314 381.193 401.256C380.746 400.643 379.351 398.804 378.067 397.189C376.728 395.573 374.272 393.01 372.598 391.562C370.923 390.057 368.3 388.107 366.737 387.16C365.231 386.269 362.552 385.043 360.877 384.486C359.203 383.873 357.752 383.428 357.696 383.428C357.584 383.428 358.701 380.753 360.096 377.578C361.491 374.347 363.891 369.332 365.454 366.435C367.017 363.483 368.97 360.14 369.807 358.914C370.7 357.689 372.598 355.404 374.105 353.845C375.556 352.34 378.179 349.945 379.853 348.552C381.528 347.215 385.211 343.928 387.946 341.254C390.736 338.579 394.587 335.125 396.597 333.565ZM63.4019 347.048C63.4019 346.045 63.5135 345.265 63.681 345.265C63.8484 345.265 65.9134 345.655 68.3133 346.101C70.769 346.602 75.3456 346.992 79.0291 346.992C82.5452 346.992 86.5637 346.713 87.959 346.379C89.3542 346.101 90.8612 345.822 91.3076 345.822C91.9774 345.766 92.089 346.212 91.6983 348.162C91.4751 349.443 90.8054 351.003 90.303 351.56C89.8007 352.117 87.6241 353.065 85.4474 353.733C82.3778 354.624 80.536 354.792 76.7967 354.624C73.3922 354.402 71.1597 353.956 68.983 352.953C67.3087 352.173 65.3553 350.947 64.6297 350.223C63.8484 349.388 63.4019 348.162 63.4019 347.048ZM14.9575 375.182C15.9621 375.071 17.5806 375.127 18.4736 375.238C19.4224 375.349 21.5432 376.018 23.2176 376.631C25.2826 377.411 27.236 378.748 29.2452 380.753C30.808 382.369 32.6497 384.598 33.2079 385.768C33.766 386.938 34.659 389.222 35.1054 390.949C35.6078 392.62 36.1659 396.854 36.3333 400.42C36.5565 403.93 36.4449 419.473 36.1101 434.961C35.7752 450.394 35.4403 463.152 35.3845 463.207C35.2729 463.263 33.4869 462.706 31.3103 461.982C29.1894 461.258 25.5059 460.478 23.2176 460.31C20.7061 460.088 17.6923 460.143 15.683 460.533C13.8413 460.923 10.7716 461.759 8.87403 462.427C6.97644 463.096 5.19047 463.43 4.96723 463.152C4.74398 462.929 4.52073 449.725 4.52073 433.903C4.52073 418.081 4.63236 403.261 4.74398 400.977C4.8556 398.637 5.35791 394.793 5.91602 392.342C6.41832 389.89 7.19969 386.882 7.59037 385.656C7.98105 384.43 9.04147 382.035 9.87864 380.363C10.7716 378.636 11.832 376.854 12.3343 376.352C12.7808 375.851 13.9529 375.294 14.9575 375.182ZM141.538 401.534C141.594 395.183 141.705 393.679 142.208 394.57C142.543 395.183 144.161 399.696 145.78 404.598C147.342 409.501 149.631 417.245 150.747 421.869C151.863 426.437 152.7 430.839 152.533 431.619C152.365 432.343 151.472 435.519 150.468 438.583C149.519 441.647 147.901 447.775 146.784 452.232C145.724 456.633 144.719 460.589 144.552 460.979C144.384 461.48 143.938 461.369 142.822 460.589C141.929 460.032 140.422 458.806 137.52 456.411L138.134 450.839C138.468 447.775 139.138 441.257 139.585 436.354C140.087 431.452 140.701 423.429 140.98 418.526C141.315 413.624 141.538 405.935 141.538 401.534ZM169.89 431.229C169.5 431.619 168.83 433.011 168.439 434.404C168.048 435.797 166.876 442.761 165.816 450.004C164.756 457.191 163.249 467.107 162.467 472.01C161.742 476.913 160.57 484.267 159.9 488.445C159.286 492.568 158.616 498.473 158.393 501.649C158.002 506.997 158.058 507.331 159.119 507.721C159.733 507.889 160.626 507.833 161.072 507.554C161.519 507.22 161.965 506.273 162.077 505.382C162.132 504.49 162.97 498.585 163.918 492.345C164.811 486.049 166.095 477.748 166.709 473.96C167.323 470.116 168.718 460.979 169.834 453.625C170.895 446.271 172.067 438.304 172.458 435.908C172.96 432.176 172.96 431.452 172.234 431.006C171.788 430.727 171.23 430.504 171.007 430.504C170.839 430.504 170.337 430.783 169.89 431.229ZM85.4474 378.302C84.2196 378.692 81.2058 380.085 78.7501 381.311C75.7362 382.871 73.1131 384.82 70.6574 387.272C68.6482 389.277 66.1367 392.342 65.0762 394.124C64.0158 395.907 62.5647 398.971 61.895 400.977C61.2252 402.927 60.4997 405.824 60.2206 407.384C59.9974 408.888 59.83 412.398 59.8858 415.184C59.9416 419.195 60.2764 421.201 61.6717 425.212C62.6205 427.942 64.2391 431.563 65.2437 433.234C66.1925 434.85 68.3133 437.524 69.8202 439.084C71.3829 440.644 74.5084 443.095 76.7967 444.488C79.0849 445.937 82.5452 447.608 84.4986 448.277C87.066 449.112 89.4659 449.447 93.7075 449.447C97.9492 449.502 100.349 449.224 103.028 448.332C105.037 447.719 108.274 446.271 110.284 445.101C112.293 443.987 115.697 441.257 117.874 439.14C120.665 436.354 122.395 434.014 123.846 431.062C124.962 428.722 126.301 425.212 126.86 423.262C127.474 420.811 127.753 417.523 127.753 413.234C127.697 407.83 127.418 406.047 126.19 402.37C125.408 399.918 124.125 396.91 123.455 395.684C122.73 394.459 121.167 392.174 119.939 390.67C118.767 389.11 116.255 386.715 114.469 385.266C112.628 383.873 109.614 381.923 107.772 380.976C105.93 380.029 102.916 378.859 101.075 378.414C99.2329 377.912 95.4935 377.578 92.7029 377.578C89.9682 377.634 86.6753 377.968 85.4474 378.302ZM85.1684 383.316C87.7915 382.369 90.0798 382.035 93.4285 382.035C96.7772 382.035 99.0096 382.369 101.8 383.316C103.865 384.04 106.656 385.322 108.051 386.158C109.446 387.049 112.07 389.277 113.911 391.172C115.753 393.066 118.097 395.963 119.102 397.634C120.051 399.306 121.334 401.813 121.837 403.206C122.395 404.71 122.841 408.052 123.009 411.841C123.176 416.186 123.009 419.139 122.339 422.148C121.837 424.655 120.665 427.607 119.492 429.669C118.376 431.507 116.032 434.404 114.302 436.187C112.572 437.97 109.391 440.365 107.214 441.591C104.87 442.928 101.744 444.154 99.4003 444.655C97.1679 445.157 93.9866 445.38 92.0332 445.212C90.0798 445.101 87.345 444.544 85.8939 444.098C84.387 443.597 81.8197 442.427 80.1453 441.48C78.471 440.533 75.2897 437.97 73.1689 435.797C70.769 433.457 68.6482 430.672 67.7552 428.833C66.9738 427.106 65.8576 424.098 65.2995 422.148C64.7414 420.031 64.3507 416.521 64.3507 413.791C64.3507 411.117 64.7414 407.44 65.2437 405.434C65.8018 403.428 67.0296 400.197 68.0342 398.191C68.983 396.241 71.1039 393.233 72.6108 391.562C74.1735 389.89 76.7967 387.606 78.471 386.548C80.1453 385.489 83.1592 384.04 85.1684 383.316ZM333.251 191.277C331.13 191.778 327.837 192.725 325.995 193.394C324.153 194.062 321.251 195.511 319.577 196.569C317.902 197.628 314.889 200.023 312.935 201.806C310.982 203.645 308.247 206.876 306.852 209.049C305.456 211.166 303.615 214.676 302.777 216.848C301.94 218.965 300.992 222.754 300.601 225.205C300.154 227.879 299.987 231.501 300.21 234.398C300.378 236.96 301.047 240.916 301.717 243.144C302.331 245.373 303.503 248.493 304.34 250.109C305.122 251.724 306.74 254.287 307.856 255.847C308.973 257.351 311.54 260.081 313.493 261.864C315.447 263.702 318.684 266.154 320.693 267.324C322.702 268.493 326.33 270.109 328.786 270.945C332.023 272.003 334.925 272.449 339.39 272.672C343.911 272.895 346.645 272.728 349.715 272.059C352.003 271.558 355.91 270.165 358.366 268.995C360.821 267.825 364.226 265.764 365.9 264.427C367.575 263.145 370.142 260.75 371.593 259.19C373.044 257.63 375.332 254.51 376.728 252.226C378.067 249.886 379.742 246.264 380.411 244.147C381.081 241.863 381.751 237.908 381.918 234.676C382.086 231.501 381.974 227.322 381.583 225.038C381.249 222.81 380.244 219.077 379.295 216.681C378.402 214.286 376.56 210.72 375.277 208.77C373.993 206.764 371.537 203.756 369.807 202.029C368.133 200.358 365.51 198.073 363.947 197.015C362.44 196.012 359.426 194.452 357.25 193.561C355.129 192.725 351.501 191.611 349.324 191.165C347.092 190.719 343.408 190.385 341.232 190.385C338.999 190.441 335.427 190.831 333.251 191.277ZM336.041 195.176C336.655 195.065 337.604 194.898 338.162 194.898C339.055 194.842 339.111 196.123 339.167 234.119L346.59 241.362C350.664 245.317 356.357 251.167 364.505 260.137L363.11 261.251C362.328 261.864 359.705 263.368 357.25 264.538C354.794 265.708 350.887 267.101 348.599 267.602C345.641 268.215 342.906 268.382 339.111 268.159C336.209 267.992 332.413 267.435 330.739 266.934C329.065 266.432 325.939 265.095 323.763 263.981C321.139 262.644 318.349 260.527 315.335 257.518C311.819 254.008 310.368 252.058 308.526 248.326C307.242 245.707 305.791 241.752 305.345 239.523C304.898 237.295 304.508 233.896 304.508 232.002C304.563 230.108 304.898 226.542 305.345 224.091C305.847 221.417 306.963 218.018 308.08 215.734C309.14 213.561 311.317 210.219 312.879 208.324C314.386 206.43 317.233 203.756 319.186 202.363C321.084 201.026 324.265 199.188 326.274 198.296C328.283 197.405 331.018 196.402 332.413 196.012C333.809 195.678 335.427 195.288 336.041 195.176ZM343.632 194.731L346.255 195.121C347.706 195.288 350.496 195.956 352.506 196.569C354.515 197.182 357.919 198.742 360.04 199.968C362.217 201.249 365.342 203.756 367.017 205.483C368.691 207.21 370.923 209.996 371.928 211.611C372.877 213.283 374.44 216.737 375.332 219.355C376.225 221.918 377.118 224.982 377.621 228.269H343.576L343.632 211.5V194.731ZM344.357 232.671H378.123L377.844 234.509C377.621 235.512 377.23 237.685 376.951 239.356C376.616 241.027 375.277 244.704 373.937 247.434C372.654 250.22 370.644 253.507 367.519 257.184L364.449 253.451C362.719 251.39 357.529 245.874 352.84 241.195L344.357 232.671ZM207.619 194.842C205.777 196.402 202.819 199.076 201.089 200.803C197.963 203.867 197.852 203.923 197.015 202.865C196.568 202.252 195.619 200.915 194.95 199.912C194.224 198.909 193.108 197.962 192.438 197.851C191.713 197.683 190.764 197.906 190.317 198.241C189.815 198.631 189.424 199.188 189.48 199.522C189.48 199.8 190.875 202.029 192.55 204.369C194.671 207.322 196.066 208.77 197.015 208.993C198.019 209.16 198.968 208.826 200.252 207.767C201.256 206.987 204.605 203.923 207.73 200.97C211.637 197.293 213.479 195.232 213.479 194.341C213.479 193.672 212.977 192.892 212.363 192.558C211.749 192.224 211.191 192.001 211.135 192.001C211.023 192.056 209.461 193.282 207.619 194.842ZM468.203 193.171C467.198 194.285 467.198 195.009 467.589 206.653C467.812 213.45 468.147 228.492 468.259 240.025L468.538 261.084L459.887 260.805C459.664 219.801 459.385 207.6 459.106 207.322C458.826 206.987 454.362 206.597 449.227 206.43C441.748 206.152 439.46 206.207 438.288 206.82L436.725 207.6L437.562 261.084H428.074C428.521 227.044 428.521 226.821 427.349 225.539C426.177 224.37 425.73 224.314 417.024 224.314C410.494 224.314 407.759 224.481 407.257 224.982C406.754 225.539 406.699 229.996 407.033 243.367L407.424 261.028C401.006 261.362 400.727 261.474 400.559 262.755C400.503 263.535 400.727 264.482 401.117 264.872C401.731 265.429 410.829 265.596 447.329 265.596C487.681 265.596 492.927 265.485 493.541 264.705C493.932 264.259 494.099 263.257 493.932 262.477C493.709 261.307 493.374 261.084 491.588 261.084H489.467C489.802 195.511 489.802 195.009 488.686 193.505L487.514 192.001C469.821 192.001 469.207 192.056 468.203 193.171ZM472.054 196.458H478.64C484.611 196.458 485.281 196.569 485.281 197.405C485.281 197.962 485.281 210.163 485.225 224.592C485.17 238.966 485.058 253.006 484.779 260.805L473.5 261L472.891 249.273C472.612 242.755 472.444 233.116 472.444 227.935C472.389 222.698 472.221 215.957 471.942 212.893C471.719 209.829 471.607 204.87 471.775 201.862L472.054 196.458ZM440.967 211.946C440.799 211.054 441.413 210.943 455.143 210.943L455.199 233.116C455.199 245.317 455.366 256.571 455.98 261.14L441.748 261.084V251.223C441.748 245.763 441.637 234.955 441.469 227.099C441.302 219.3 441.078 212.503 440.967 211.946ZM411.052 228.046L413.173 228.437C414.345 228.604 417.191 228.771 423.888 228.771V261.084H411.61V252.616C411.61 247.936 411.498 240.526 411.331 236.069L411.052 228.046ZM221.293 197.683C220.902 198.073 220.567 198.853 220.623 199.355C220.735 199.912 221.125 200.748 221.572 201.193C222.297 201.918 226.148 202.029 249.087 202.029C269.737 202.029 275.932 201.918 276.49 201.36C276.825 200.97 277.16 200.135 277.16 199.522C277.16 198.909 276.825 198.129 276.434 197.739C275.876 197.182 269.849 197.015 248.919 197.015C228.883 197.015 221.907 197.238 221.293 197.683ZM205.107 224.871C201.759 227.935 198.689 230.498 198.298 230.498C197.908 230.498 196.68 229.216 195.508 227.712C194.112 225.818 192.996 224.871 192.159 224.871C191.489 224.871 190.541 225.261 190.038 225.707C189.424 226.375 189.368 226.877 189.759 227.657C190.094 228.269 191.768 230.219 193.554 232.113C195.619 234.286 197.182 235.456 198.019 235.456C198.689 235.456 200.196 234.899 201.312 234.231C202.428 233.562 205.721 230.721 208.679 227.935C211.916 224.927 214.037 222.475 214.037 221.807C214.093 221.194 213.758 220.414 213.367 220.024C212.977 219.634 212.363 219.3 211.972 219.3C211.581 219.3 208.456 221.807 205.107 224.871ZM221.181 225.261C220.567 226.542 220.623 226.821 221.851 227.768C223.19 228.771 224.418 228.826 249.366 228.826C265.607 228.826 275.876 228.604 276.546 228.214C277.29 227.842 277.662 227.099 277.662 225.985C277.662 225.038 277.327 224.202 276.825 224.035C276.379 223.924 263.821 223.757 248.919 223.757H221.851L221.181 225.261ZM210.744 246.877C209.684 247.601 206.503 250.276 203.768 252.783L198.745 257.407L192.438 250.276C190.206 251.78 189.536 252.616 189.536 253.061C189.536 253.563 190.764 255.401 192.326 257.24C193.833 259.078 195.675 260.972 196.345 261.474C197.182 262.087 198.187 262.254 199.303 261.975C200.252 261.808 202.484 260.137 204.605 258.131C206.614 256.237 209.684 253.618 211.414 252.337C213.2 251.056 214.874 249.496 215.209 248.883C215.488 248.27 215.767 247.657 215.767 247.49C215.767 247.379 215.377 246.877 214.93 246.376C214.484 245.93 213.758 245.596 213.367 245.596C212.977 245.596 211.805 246.209 210.744 246.877ZM221.907 250.109C221.46 250.499 221.181 251.167 221.237 251.668C221.293 252.114 221.628 252.838 222.018 253.228C222.576 253.786 228.66 253.953 249.533 253.953C270.239 253.897 276.546 253.73 277.048 253.228C277.439 252.838 277.718 251.947 277.718 251.278C277.718 250.554 277.327 249.886 276.881 249.719C276.434 249.607 264.044 249.44 249.366 249.44C229.385 249.44 222.465 249.607 221.907 250.109ZM79.0291 284.427C78.4152 285.263 77.6896 286.823 77.5222 287.881C77.3548 288.996 77.3548 291.001 77.578 292.338C77.8013 293.731 78.2477 295.458 78.6384 296.238C78.9733 297.018 79.9779 297.854 80.8151 298.188C81.8755 298.578 82.8801 298.578 83.8847 298.188C84.7777 297.91 85.8381 296.795 86.3962 295.681C86.9543 294.623 87.4008 292.561 87.4008 291.113C87.4008 289.664 86.9543 287.436 86.3962 286.154C85.8939 284.873 85.0009 283.647 84.4428 283.369C83.9405 283.09 82.7685 282.867 81.8197 282.867C80.7035 282.867 79.8663 283.369 79.0291 284.427ZM111.623 284.594C110.953 284.873 110.005 286.043 109.446 287.213C108.665 288.828 108.553 290.054 108.777 292.895C109 295.013 109.558 297.074 110.116 297.854C110.674 298.634 111.735 299.414 112.516 299.581C113.297 299.804 114.469 299.804 115.139 299.525C115.865 299.247 116.702 298.467 117.037 297.798C117.427 297.074 117.93 295.681 118.153 294.567C118.376 293.508 118.32 291.28 118.041 289.553C117.762 287.881 117.093 286.099 116.534 285.597C116.032 285.04 114.972 284.483 114.19 284.371C113.409 284.204 112.237 284.26 111.623 284.594ZM473.282 288.383C470.993 288.606 468.928 289.107 468.37 289.553C467.477 290.333 467.421 293.174 467.31 322.423L467.198 354.457L451.013 354.792C451.683 333.844 452.129 322.367 452.352 315.737C452.687 307.269 452.631 303.425 452.185 302.478C451.85 301.754 451.069 301.085 450.455 300.918C449.841 300.751 445.041 300.751 439.795 300.807C432.26 300.974 430.028 301.197 429.246 301.809C428.353 302.589 428.353 304.428 428.688 328.83L429.135 355.014H418.865C418.977 322.311 418.81 316.406 418.363 316.016C417.972 315.682 413.787 315.459 408.15 315.459C402.848 315.515 397.824 315.682 396.987 315.905C396.15 316.127 395.369 316.796 395.201 317.409C395.034 318.022 395.146 318.857 395.425 319.247C395.815 319.749 398.215 319.86 405.471 319.637L415.014 319.359C415.014 355.293 415.014 355.293 413.787 355.46C413.173 355.516 412.336 356.017 412.001 356.574C411.498 357.299 411.554 357.744 412.224 358.357C412.782 358.97 414.345 359.249 417.247 359.304C419.535 359.36 436.893 359.249 455.757 359.081C474.621 358.914 490.248 358.524 490.472 358.301C490.695 358.023 490.974 342.479 491.141 323.704C491.42 292.394 491.365 289.497 490.527 288.884C489.969 288.438 487.402 288.16 483.439 288.104C480.035 288.048 475.458 288.216 473.282 288.383ZM471.719 292.784C471.886 292.561 475.347 292.338 486.844 292.338L486.342 353.9L471.384 354.179L471.44 323.704C471.496 306.935 471.607 293.007 471.719 292.784ZM432.483 305.152H447.943V308.662C447.943 310.556 447.664 321.142 447.329 332.173C447.05 343.204 446.66 352.786 446.492 353.51C446.269 354.736 446.046 354.736 433.711 354.736L433.265 332.618C432.986 320.417 432.707 309.275 432.651 307.826L432.483 305.152ZM317.233 295.403C316.619 296.127 316.619 296.517 317.177 297.631L317.847 299.024C373.156 298.634 376.225 298.522 376.728 297.687C377.118 297.074 377.118 296.461 376.672 295.792C376.114 294.901 373.993 294.845 347.036 294.678C321.307 294.567 317.902 294.623 317.233 295.403ZM102.972 314.066C101.298 314.623 98.898 315.125 97.6702 315.125C96.4423 315.18 94.2098 314.79 92.6471 314.345C91.1402 313.899 89.6891 313.509 89.4659 313.509C89.2426 313.509 88.7961 314.01 88.4613 314.623C88.1264 315.292 88.1264 316.127 88.4054 316.685C88.6845 317.242 90.3588 318.133 92.2006 318.634C93.9866 319.192 96.7772 319.637 98.3957 319.637C100.014 319.637 102.693 319.136 104.423 318.467C106.154 317.854 107.884 316.796 108.33 316.127C108.832 315.292 108.888 314.567 108.553 313.899C108.274 313.397 107.549 312.952 107.047 313.008C106.488 313.008 104.702 313.509 102.972 314.066ZM279.448 316.406C279.169 316.796 278.834 317.743 278.779 318.523C278.723 319.303 278.723 320.974 278.723 322.256C278.779 323.593 279.169 325.041 279.616 325.487C280.118 325.933 280.844 326.211 281.29 326.044C281.792 325.877 282.406 324.818 282.685 323.649C283.02 322.534 283.243 320.863 283.243 320.027C283.243 319.192 282.964 317.854 282.574 317.13C282.183 316.35 281.457 315.682 280.955 315.737C280.453 315.737 279.783 316.016 279.448 316.406ZM317.958 318.244C317.456 318.857 317.512 319.414 318.293 320.584L319.242 322.089C367.072 321.364 374.719 321.086 375.277 320.584C375.667 320.194 375.891 319.414 375.835 318.802C375.612 317.687 375.165 317.687 347.092 317.52C322.2 317.409 318.461 317.52 317.958 318.244ZM317.177 339.916C316.786 340.251 316.563 341.142 316.619 342.034C316.73 343.148 317.121 343.649 318.014 343.872C318.684 344.039 326.944 344.095 336.264 344.039L353.287 343.872C353.566 341.699 353.343 340.808 352.952 340.418C352.394 339.972 347.092 339.694 334.981 339.582C324.656 339.471 317.568 339.638 317.177 339.916ZM454.808 378.246C454.696 378.636 454.641 379.584 454.696 380.363L454.864 381.756C476.742 382.035 477.133 382.091 475.793 382.982C475.068 383.483 472.165 385.712 469.375 387.885C466.64 390.057 462.51 393.177 460.166 394.793C457.878 396.464 454.976 398.247 453.748 398.804C452.52 399.361 450.511 399.863 449.283 399.863C447.943 399.863 446.046 399.306 444.427 398.47C442.976 397.69 440.409 395.963 438.679 394.57C436.055 392.397 435.274 392.063 433.097 392.063C431.758 392.063 429.805 392.453 428.8 392.954C427.795 393.512 422.828 396.743 417.749 400.253C412.726 403.763 407.926 407.217 407.145 407.941C405.917 409.167 405.861 409.445 406.475 410.727C406.866 411.507 407.647 412.119 408.261 412.119C408.875 412.119 411.443 410.504 414.01 408.554C416.521 406.604 421.377 403.094 424.726 400.754C429.135 397.69 431.367 396.464 432.539 396.52C433.711 396.52 435.441 397.467 438.12 399.584C440.297 401.311 442.92 402.983 443.981 403.317C445.097 403.707 447.72 403.985 449.841 403.985C452.073 404.041 454.641 403.651 455.701 403.206C456.817 402.76 461.84 399.306 466.863 395.461C471.942 391.673 476.798 387.885 477.635 387.105L479.198 385.656C479.142 399.25 479.421 403.707 479.7 404.32C480.035 404.933 480.705 405.434 481.263 405.434C481.821 405.434 482.602 405.1 482.937 404.71C483.439 404.208 483.663 400.698 483.607 391.896C483.607 380.531 483.551 379.751 482.491 378.692C481.43 377.634 480.649 377.578 468.259 377.578C458.268 377.578 455.087 377.745 454.808 378.246ZM93.5959 398.804C91.8658 398.971 89.7449 399.417 88.9078 399.807C88.0706 400.141 86.5637 401.144 85.5591 401.98C84.5545 402.871 83.1034 404.933 82.3778 406.604C81.3174 408.944 80.9825 410.504 81.0383 413.791C81.0383 416.131 81.429 419.195 81.9313 420.755C82.4894 422.426 83.7173 424.32 85.0009 425.546C86.1172 426.66 87.959 427.997 89.0194 428.555C90.1356 429.112 92.3681 429.669 94.0424 429.836C96.1632 430.003 98.1167 429.78 100.182 429.112C101.912 428.61 104.144 427.496 105.205 426.66C106.265 425.88 107.716 423.93 108.386 422.426C109.112 420.866 109.837 418.025 110.06 416.019C110.284 413.457 110.116 411.507 109.502 409.334C109 407.495 107.772 405.267 106.488 403.818C105.316 402.481 103.642 400.977 102.693 400.531C101.8 400.086 100.07 399.417 98.898 399.083C97.6702 398.749 95.3819 398.581 93.5959 398.804ZM90.303 404.264C91.4751 403.54 93.1494 403.206 95.1586 403.206C97.3911 403.206 98.898 403.595 100.461 404.543C102.023 405.434 103.196 406.715 104.256 408.832C105.205 410.671 105.763 412.732 105.763 414.069C105.763 415.295 105.484 417.301 105.149 418.526C104.814 419.752 103.754 421.535 102.805 422.482C101.8 423.429 100.014 424.487 98.7864 424.877C97.5585 425.212 95.7726 425.49 94.768 425.49C93.7634 425.49 91.9216 424.989 90.6937 424.376C89.4659 423.763 87.7915 422.259 86.9544 420.922C85.8381 419.251 85.3358 417.691 85.2242 415.462C85.0568 413.791 85.28 411.507 85.6149 410.448C85.9497 409.39 86.7311 407.774 87.345 406.882C87.959 405.991 89.2984 404.821 90.303 404.264Z"
          fill="white"
          style="fill: white; fill-opacity: 1"
        />
      </svg>