<svg
        width="732"
        height="711"
        viewBox="0 0 732 711"
        fill="none"
        xmlns="http://www.w3.org/2000/svg"
      >
        <g filter="url(#filter0_d_30_141)">
          <path
            fill-rule="evenodd"
            clip-rule="evenodd"
            d="M272.45 12.1748C263.768 12.5297 252.428 14.1269 247.644 15.5467C242.683 17.1439 234.001 21.2256 228.154 24.7749C218.232 30.6314 217.169 30.9863 210.79 29.0342C205.652 27.6144 203.703 27.6144 201.576 29.2116C200.159 30.4539 198.387 33.4708 197.856 35.9554C197.324 38.4399 195.907 41.4568 194.844 42.8766C193.603 44.1189 190.059 46.2484 187.047 47.6682C183.858 49.0879 176.948 54.4119 171.81 59.381C166.494 64.5275 160.115 73.0459 157.635 78.015C154.977 83.1616 151.61 92.7448 150.016 99.3111C147.712 108.717 147.358 116.525 148.244 134.45C149.13 154.503 148.775 159.295 145.586 170.83C142.751 180.591 142.043 186.98 142.751 194.788C143.283 200.645 144.878 208.276 146.118 211.648C147.535 215.02 151.433 221.053 154.977 224.958C158.344 228.862 164.722 233.476 168.975 235.428C173.227 237.203 178.72 239.51 181.2 240.397C185.453 241.994 185.63 242.349 184.39 254.772C183.681 261.871 181.732 271.099 180.137 275.536C178.72 279.972 175.885 285.651 173.936 288.313C171.278 292.218 167.026 294.347 154.977 297.897C146.472 300.381 130.348 305.173 119.186 308.722C108.023 312.271 93.3168 317.95 86.4067 321.5C79.4965 325.049 68.8654 331.97 62.4868 336.762C56.2853 341.731 46.8945 350.782 41.7562 357.171C36.4406 363.559 27.9357 377.402 22.6202 388.227C17.4819 399.053 9.86298 417.332 6.14215 429.045C2.24408 440.757 -3.07147 459.569 -5.55206 470.749C-8.03265 481.93 -11.7535 501.096 -13.8797 513.342C-17.069 531.266 -17.955 542.624 -17.955 572.793C-18.1321 607.931 -17.9549 610.593 -14.234 618.047C-11.9306 622.484 -7.5011 628.872 -4.31177 632.244C-1.1225 635.616 6.31927 642.892 23.1518 657.977L18.8994 689.921C16.596 707.49 14.1154 727.367 13.5839 734.288C12.8751 741.564 13.4067 752.212 14.647 760.021C15.8873 767.297 18.8994 778.477 21.3799 784.866C24.0377 791.255 27.7586 799.596 29.8848 803.5C32.011 807.404 39.0984 815.568 45.4771 821.779C52.9188 828.7 61.778 835.089 69.9285 838.993C77.0159 842.365 88.0013 846.447 94.3799 848.044C101.467 849.819 114.047 851.061 127.159 851.239C138.853 851.239 152.142 850.884 156.749 849.996C165.076 848.754 165.254 848.932 166.14 853.546C166.671 856.385 168.443 863.661 170.215 870.05C171.987 877.504 175.353 884.425 179.428 889.571C182.972 894.008 188.819 898.8 192.717 900.574C196.615 902.172 203.703 903.946 208.664 904.656C215.751 905.543 220.712 904.834 232.584 901.107C240.911 898.445 265.008 888.329 324.72 861.177L333.933 865.613C339.072 868.098 344.919 870.05 346.868 870.05C348.817 870.05 362.814 865.081 405.339 847.689L422.171 851.771C431.385 854.078 453.001 858.87 470.011 862.419C499.955 868.808 502.258 868.985 575.435 869.163L586.067 863.661C591.914 860.644 599.533 854.965 603.076 851.239C606.443 847.334 610.341 841.123 611.758 837.219C612.999 833.137 613.707 826.393 613.176 821.247C612.644 816.278 610.518 809.001 608.392 804.742C606.443 800.661 602.013 794.627 598.647 791.432C595.457 788.415 587.484 782.914 569.057 773.331L580.219 766.232C586.421 762.328 596.166 755.229 602.013 750.26C607.86 745.468 614.593 739.079 617.074 736.24C619.554 733.401 622.921 728.964 624.516 726.479C626.287 723.995 628.591 717.429 629.654 712.104C631.426 703.941 631.249 700.747 628.945 692.583C627.35 687.259 625.756 681.403 625.224 679.628C624.338 677.321 625.224 676.611 628.059 676.611C630.363 676.611 634.792 674.836 638.159 672.707C641.525 670.4 645.6 666.673 647.549 664.188C649.321 661.704 656.94 642.182 664.736 620.709C672.355 599.235 686.707 557.708 696.452 528.426C706.375 499.144 714.88 471.637 715.588 467.2C716.651 460.456 716.12 458.504 708.324 449.276L685.29 451.051C672.532 452.115 649.853 453.713 634.792 454.777C619.732 455.665 578.979 458.149 544.428 460.101C509.877 462.054 475.858 464.538 469.125 465.603C462.215 466.49 455.304 468.797 453.533 470.394C451.761 471.992 445.382 488.496 439.358 506.953C433.334 525.409 427.841 540.671 426.955 541.026C426.246 541.381 425.36 540.316 425.006 538.542C424.474 536.945 421.639 522.747 418.627 507.13C415.615 491.513 411.008 470.749 408.528 460.989C406.224 451.228 401.44 434.546 397.897 423.721C394.53 412.895 389.038 398.698 385.671 391.777C382.482 384.855 375.926 374.562 370.965 368.706C366.181 362.849 356.081 353.621 348.462 348.12C340.666 342.618 331.098 336.229 327.023 333.922C322.771 331.615 319.404 329.308 319.404 328.776C319.404 328.243 325.96 325.936 333.933 323.452C342.792 320.79 352.183 316.531 357.499 312.626C362.283 309.077 369.724 301.978 373.622 296.654C377.698 291.33 383.013 282.989 385.317 278.198C387.797 273.229 391.518 264.178 393.467 257.789C395.593 251.4 398.783 236.671 400.732 224.958C402.681 213.245 405.516 190.529 407.288 174.38C410.122 147.582 410.122 143.5 404.984 106.055L412.426 98.9561C416.855 94.5195 420.931 88.4856 422.703 82.9841C424.474 78.015 425.715 70.384 425.715 65.5923C425.715 59.381 424.652 56.1866 421.817 53.1697C418.627 49.9753 414.906 48.733 405.339 47.8456C395.239 46.7808 387.974 44.2963 366.358 34.3582C351.829 27.7919 335.705 20.8707 330.921 19.2735C326.137 17.6763 314.443 15.3692 305.229 13.9495C295.484 12.3523 281.664 11.6424 272.45 12.1748ZM330.921 29.3891C337.831 31.6962 352.006 37.73 362.814 42.5216C373.622 47.4907 386.38 52.6373 391.164 54.2345C396.125 55.8317 402.858 57.4289 406.224 58.1387C409.591 58.6711 413.489 60.0909 414.729 61.1557C416.324 62.7529 416.678 66.1247 416.147 71.4488C415.438 76.2404 412.957 82.4517 409.768 86.8884C406.933 91.1476 402.681 95.4068 400.555 96.4716C398.251 97.7139 392.936 98.4237 388.506 98.2463C384.076 98.2463 379.824 97.3589 378.761 96.2941C377.58 95.2293 377.875 93.7504 379.647 91.8575C381.419 90.0828 381.773 88.4856 380.533 87.4208C379.47 86.5334 371.319 87.5983 361.042 89.7279C345.273 93.0997 341.375 93.2772 325.605 91.68C311.962 90.0828 304.343 88.1306 292.826 83.339L277.766 76.7728L262.528 91.8575L223.724 92.7448C223.547 101.618 222.661 109.072 221.244 114.928C220.004 120.785 216.814 130.368 214.157 136.224C211.499 142.081 206.892 151.131 203.703 156.278C200.513 161.425 197.678 165.506 197.147 165.506C196.615 165.506 192.717 162.844 188.288 159.295C182.263 154.681 177.834 152.729 170.569 151.664C162.773 150.599 160.47 149.534 158.698 145.985C157.458 143.5 156.394 135.514 156.394 128.238C156.394 120.962 157.458 109.782 158.875 103.393C160.115 97.004 163.305 87.7757 165.785 82.9841C168.266 78.015 173.404 71.0938 177.125 67.5445C180.846 63.8177 188.996 58.1387 195.375 55.1218C206.183 49.6203 206.892 48.733 207.778 42.3442L208.664 35.6004C214.157 41.4568 216.283 43.2315 217.169 43.054C217.877 43.054 224.256 39.1498 231.166 34.5356C238.254 29.9215 247.644 25.1299 252.074 24.0651C256.504 22.8228 265.54 21.5805 272.45 21.0481C279.36 20.5157 292.472 21.2256 301.686 22.6453C310.899 23.8876 324.011 26.9046 330.921 29.3891ZM304.343 97.3589C317.632 101.796 319.936 101.973 342.084 100.908C364.232 99.8435 366.004 100.021 376.103 104.28C381.95 106.765 387.797 108.717 389.392 108.717C390.809 108.717 393.29 110.491 394.707 112.621C396.479 115.283 397.72 123.269 398.428 135.337C399.137 145.63 398.605 164.264 397.542 177.042C396.479 189.819 394.353 208.453 392.758 218.746C391.341 229.039 388.506 243.059 386.38 249.803C384.431 256.547 379.824 268.26 375.926 275.536C372.205 282.812 365.649 292.395 361.574 296.654C357.144 301.268 348.639 307.125 341.552 310.497C329.326 316.353 328.795 316.353 304.698 316.353C283.613 316.353 279.006 315.821 269.438 312.271C263.237 309.964 254.732 306.06 250.302 303.398C245.873 300.914 237.545 293.992 231.698 287.958C222.13 278.198 220.712 277.31 218.409 279.795C216.106 282.102 216.283 283.344 220.535 289.733C223.37 293.637 229.217 299.494 233.824 302.866C238.608 306.237 247.113 311.384 252.96 314.401C258.807 317.418 268.198 321.855 273.691 324.339C281.841 327.889 283.967 329.663 283.967 332.68C283.967 334.987 282.018 339.956 279.892 343.861C277.411 348.12 272.805 352.734 268.021 355.396C261.642 358.945 257.744 359.833 248.53 359.478C241.797 359.478 231.166 357.525 222.839 354.863C213.448 351.847 205.12 347.587 198.033 342.263C192.186 338.004 184.921 330.55 181.732 325.759C178.72 321.145 175.176 314.224 173.758 310.497C171.455 303.93 171.455 303.93 178.72 297.187C185.276 291.33 186.516 289.023 189.351 276.423C191.123 268.615 192.54 255.837 192.54 248.028L192.717 233.831C175.353 227.975 168.797 223.893 163.127 218.746C155.863 212.003 154.268 209.163 152.496 201C151.079 193.724 151.079 188.577 152.674 180.946C153.737 175.089 156.572 168.523 159.052 165.506C162.064 161.957 165.077 160.182 168.266 160.182C171.101 160.182 176.771 162.489 181.2 165.329C185.63 168.168 191.123 172.605 193.603 175.267C196.084 177.751 199.096 179.704 200.159 179.704C201.399 179.704 208.487 167.458 215.928 152.551C225.319 133.74 229.926 122.027 231.343 113.686L233.47 101.973C258.098 100.021 267.843 98.6012 270.678 97.3589C273.513 96.1167 277.234 93.6321 278.652 92.0349C280.069 90.4377 282.018 89.018 283.081 89.1954C284.144 89.1954 286.093 90.0828 287.511 90.9701C288.928 92.0349 296.547 94.8744 304.343 97.3589ZM169.683 322.387C174.644 332.148 179.428 338.891 185.63 344.215C190.414 348.475 199.982 354.863 206.892 358.235C214.157 361.785 225.674 365.512 234.356 367.109C246.758 369.593 251.188 369.771 259.161 367.996C264.477 366.931 272.096 364.092 275.994 361.785C280.955 358.945 284.499 354.863 288.042 348.12C290.7 342.796 292.826 335.875 292.826 332.68V327.001C322.416 342.618 334.465 349.539 338.894 352.379C343.324 355.218 351.12 361.785 356.258 366.754C361.397 371.723 368.307 380.241 371.673 385.565C374.863 390.889 380.001 401.715 383.013 409.523C386.025 417.332 391.695 434.546 395.416 447.679C399.137 460.811 404.275 481.22 406.756 492.933C409.414 504.646 412.249 519.02 413.135 524.877C414.198 530.733 414.552 535.88 414.021 536.412C413.312 536.945 408.882 537.832 403.744 538.542C398.783 539.252 390.632 541.026 385.848 542.446C380.355 544.043 373.622 547.948 368.13 552.917C363.169 557.176 356.258 566.049 352.538 572.615L345.982 584.328C336.414 577.939 335.528 576.342 336.237 572.261C336.591 569.599 337.831 562.322 338.894 555.934C339.78 549.545 343.324 522.925 346.868 496.482C350.234 470.04 353.069 444.307 353.069 439.16C353.069 432.239 352.36 429.932 350.411 429.932C348.994 429.932 347.399 431.352 346.69 432.949C346.159 434.724 342.615 460.101 338.717 489.383C334.996 518.665 330.744 549.012 329.504 556.821L327.377 571.018C279.183 572.97 272.273 574.035 246.758 580.779L217.523 588.41C203.703 582.731 194.666 579.892 188.288 578.294C181.909 576.875 165.608 573.503 151.965 571.018C138.322 568.534 119.894 564.807 111.212 562.677L95.2659 558.951C97.2148 542.269 101.467 513.696 105.897 484.947C110.326 456.197 113.87 430.287 113.516 427.447C113.161 424.608 112.276 421.946 111.212 421.591C110.149 421.236 108.378 423.188 107.314 425.85C106.074 428.512 100.759 458.327 95.4431 492.045C89.0644 531.976 84.812 553.627 83.3945 554.514C82.1542 555.046 76.1299 556.111 69.9285 556.643C63.9042 557.176 55.7537 559.305 51.8557 561.258C47.9576 563.21 44.7683 566.049 44.7683 567.469C44.7683 568.889 46.1859 570.131 47.7805 570.131C49.5524 570.131 55.3994 568.889 60.7149 567.291C69.0425 564.807 72.4091 564.629 84.6348 566.582C92.4309 567.646 106.783 570.663 116.528 572.97C126.273 575.277 147.358 579.537 163.482 582.554C179.606 585.571 192.894 588.233 193.072 588.765C193.426 589.297 190.768 593.024 187.402 597.106C183.858 601.365 179.96 608.286 178.542 612.723C177.125 617.16 175.53 624.258 174.822 628.695C174.29 633.132 174.467 640.408 175.353 645.022C176.062 649.636 176.771 653.54 176.771 653.54C176.771 653.54 170.746 651.588 163.482 649.104C156.217 646.619 144.346 643.425 137.259 642.005C130.348 640.585 117.591 639.343 108.909 639.343C100.404 639.343 88.8872 640.585 83.2173 642.005C77.7246 643.425 69.0425 646.619 64.2586 649.104C59.2974 651.588 52.3872 653.54 48.312 653.54C43.528 653.54 36.9722 651.411 28.4673 646.797C21.5571 643.247 12.5208 637.036 8.62274 633.132C4.54749 629.227 -1.29968 620.532 -4.66614 613.61L-10.6904 601.188C-9.0957 549.722 -7.14673 528.781 -4.84332 515.116C-2.89429 502.871 0.826599 484.592 3.13 474.299C5.43341 464.006 10.2173 446.436 13.761 435.256C17.3047 424.076 23.5062 407.571 27.4042 398.875C31.3022 390.179 37.5038 378.467 41.2247 373.143C44.9455 367.819 52.9188 358.59 59.1203 352.556C65.3217 346.7 75.244 339.069 81.0911 335.52C86.9382 331.97 97.7464 326.469 105.011 323.452C112.276 320.435 126.982 315.466 137.79 312.449C148.598 309.432 157.812 306.77 158.344 306.415C159.052 306.238 160.115 306.415 161.001 307.125C161.887 307.835 165.785 314.756 169.683 322.387ZM698.579 492.045C693.795 507.13 682.278 541.026 673.241 567.469C664.028 593.911 652.865 624.968 648.258 636.681C643.651 648.394 638.159 659.752 636.033 661.881C633.375 664.721 628.591 666.495 620.617 667.738C614.239 668.625 598.824 670.577 586.067 671.997C573.486 673.594 545.846 676.789 524.938 679.273C504.03 681.935 466.467 686.194 441.661 689.034C416.855 691.873 395.948 693.648 395.062 692.938C394.353 692.228 398.251 676.434 403.567 657.977C409.059 639.521 420.222 602.252 428.55 575.455C436.877 548.657 446.8 516.713 450.698 504.468C454.596 492.223 459.025 480.51 460.443 478.38C462.215 475.541 465.227 473.944 470.542 473.411C474.618 472.879 515.016 470.572 560.375 468.087C605.734 465.603 655.168 462.763 670.229 461.876C685.29 460.811 699.819 460.101 702.654 460.101C705.312 460.101 707.438 461.166 707.438 462.408C707.438 463.473 703.54 476.961 698.579 492.045ZM423.943 554.691C423.943 556.821 422.703 562.322 421.285 567.114C419.868 571.728 418.096 575.81 417.387 576.342C416.501 576.697 413.666 572.97 410.831 567.824C406.402 559.66 405.516 558.951 403.212 561.258C401.795 562.677 401.086 565.517 401.618 567.469C402.149 569.421 405.161 575.1 408.528 579.892L414.552 588.765L407.11 613.433C392.05 596.041 385.494 588.41 382.836 585.393C380.355 582.376 377.698 580.247 376.989 580.779C376.28 581.311 376.28 583.618 376.812 586.103C377.343 588.587 382.659 596.928 388.506 604.737C394.353 612.546 399.137 619.999 399.137 621.241C399.137 622.306 395.416 624.081 390.809 624.968C386.025 625.856 381.064 626.033 379.647 625.323C378.229 624.436 374.154 619.999 370.61 615.208C366.889 610.416 362.283 602.962 360.156 598.526C356.613 591.427 356.436 589.652 358.385 582.554C359.979 576.52 363.523 571.728 372.382 562.855C380.71 554.691 385.848 550.787 390.278 550.077C393.644 549.367 400.909 548.835 406.224 549.012C411.54 549.19 417.741 549.545 420.045 549.9C422.703 550.432 423.943 551.852 423.943 554.691ZM333.756 587.523C337.831 590.185 344.919 597.106 349.703 602.962C354.487 608.819 361.22 618.934 364.586 625.678C367.953 632.244 370.788 640.23 370.788 643.425C370.965 646.442 369.902 650.169 368.661 651.411C367.421 652.476 365.118 653.185 363.7 652.653C362.283 652.121 358.03 645.909 354.487 638.988C350.943 631.889 344.387 621.419 339.957 615.917C335.528 610.238 328.44 603.672 324.365 601.188C319.936 598.703 313.38 596.573 308.95 596.396C303.989 596.041 300.977 596.573 300.622 598.171C300.268 599.235 304.343 602.785 309.659 605.624C314.974 608.464 323.125 614.32 327.555 618.579C332.161 622.661 338.008 629.227 340.666 633.132C343.324 637.036 346.513 643.425 347.576 647.329C349.525 653.363 349.525 654.783 347.045 657.09C344.919 659.042 343.147 659.397 339.603 657.977C336.591 656.912 332.339 651.943 327.909 644.667C324.188 638.278 317.809 629.937 313.557 626.21C309.482 622.484 302.572 617.692 298.142 615.917C293.712 613.965 289.106 612.9 288.042 613.433C286.802 613.965 285.739 615.03 285.739 615.917C285.562 616.627 290.169 620.531 295.839 624.436C301.508 628.518 309.482 635.439 313.734 640.053C317.809 644.49 321.176 648.926 321.176 649.991C321.176 651.056 319.404 652.653 317.278 653.718C313.734 655.493 310.722 654.25 294.598 644.845C284.322 638.811 275.64 634.019 275.108 634.019C274.576 633.841 266.603 638.278 257.39 643.78C248.176 649.104 238.608 653.895 236.127 654.428C233.647 654.96 226.205 654.25 219.295 652.831C207.246 650.346 206.892 650.523 206.006 653.895C205.297 656.912 204.234 657.267 198.919 656.38C195.552 655.847 190.945 654.073 188.819 652.653C185.098 650.169 184.744 648.571 184.744 634.906C184.744 622.839 185.453 618.224 188.819 611.836C190.945 607.399 193.603 603.495 194.489 603.14C195.552 602.785 209.727 599.236 226.382 595.154C243.038 591.072 263.768 586.103 272.45 584.328C281.309 582.554 294.421 580.602 301.686 580.069C308.95 579.537 317.632 579.892 320.822 580.779C323.834 581.844 329.858 584.683 333.756 587.523ZM398.251 639.521C397.72 642.892 396.302 646.619 395.062 647.861C393.822 649.104 391.341 650.169 389.392 649.991C387.266 649.991 384.785 648.926 383.545 647.861C382.305 646.619 381.419 643.78 381.419 641.65C381.419 639.343 381.95 637.213 382.836 636.859C383.545 636.326 387.443 635.439 391.695 634.729L399.137 633.487L398.251 639.521ZM181.378 667.738C191.477 672.884 207.069 681.048 215.928 686.017C224.61 690.986 253.669 706.781 280.601 721.155C307.355 735.708 330.389 748.13 331.984 749.018C333.933 750.082 330.212 753.099 316.923 760.908C307.178 766.587 296.016 774.395 292.118 778.477L285.03 785.753C198.564 784.511 194.135 784.688 189.351 787.528C186.339 789.303 181.023 793.739 177.302 797.111L170.746 803.5C152.142 797.111 137.259 790.545 125.564 784.866C112.453 778.477 99.5182 770.669 92.2537 764.635C85.6979 759.133 78.7877 754.697 76.8387 754.697C74.8896 754.697 73.295 755.406 73.295 756.471C73.295 757.359 75.7755 761.085 78.9648 764.635C82.1541 768.184 89.5959 774.573 95.4431 778.655C101.29 782.736 111.921 789.303 119.363 793.029C126.628 796.756 140.094 802.613 149.484 806.162L166.317 812.373C166.14 824.796 165.431 830.475 164.722 833.137C163.836 837.041 162.064 838.461 156.04 840.236C151.965 841.3 139.385 842.188 128.222 842.188C116.882 842.188 103.771 841.123 98.9868 840.058C94.0256 838.816 83.3945 834.734 75.4212 830.83C64.7901 825.861 57.8799 820.892 49.9066 812.728C42.9964 805.984 36.9721 797.644 33.7828 791.077C31.1251 785.221 27.7587 775.993 26.3412 770.669C24.7465 764.99 23.6834 753.099 23.6834 741.741C23.6834 725.947 24.3921 720.445 28.113 708.91C30.5936 701.456 35.7319 690.453 39.2756 684.597C42.8192 678.918 49.7294 670.932 54.6906 667.028C59.4745 663.301 68.6882 657.622 75.0669 654.783C85.5208 649.814 88.3557 649.281 107.846 648.749C126.982 648.216 130.703 648.749 145.941 653.185C155.154 656.025 171.101 662.414 181.378 667.738ZM299.205 659.574C303.812 663.479 303.989 664.011 300.977 664.188C299.028 664.188 287.865 662.946 276.171 661.349C264.477 659.929 254.023 657.977 253.137 657.09C251.897 656.202 252.96 654.783 255.795 653.54C258.098 652.298 264.123 651.056 269.084 650.701C273.868 650.346 281.487 651.233 285.916 652.653C290.169 654.073 296.193 657.267 299.205 659.574ZM388.329 672.529C387.443 674.836 386.025 676.611 385.139 676.611C384.076 676.611 369.902 674.659 353.601 672.174C337.3 669.69 323.302 667.738 322.593 667.738C321.885 667.738 321.353 666.85 321.353 665.963C321.353 664.898 323.479 664.188 326.137 664.188C328.795 664.188 333.756 664.898 337.3 665.786C341.906 667.205 346.513 666.85 355.904 664.366C362.637 662.591 372.559 659.042 378.052 656.557C383.368 653.895 388.683 651.766 390.101 651.766C391.872 651.766 392.05 653.718 391.164 660.107C390.455 664.898 389.215 670.4 388.329 672.529ZM36.9722 670.045C33.9601 673.594 31.1252 676.079 30.7708 675.724C30.2393 675.369 29.8849 671.82 30.0621 667.915C30.2393 662.059 30.9479 660.639 33.6057 660.639C35.3776 660.639 38.0353 661.349 39.63 662.236C41.7562 663.479 41.4018 664.898 36.9722 670.045ZM265.54 669.69C280.069 671.642 311.608 676.079 335.528 679.451C359.271 682.822 380.178 686.017 381.95 686.372C383.722 686.904 384.962 688.324 384.962 689.389C384.962 690.631 384.254 692.938 383.368 694.358C381.95 696.665 377.166 696.31 344.919 691.341C324.542 688.146 290.523 683.177 269.084 680.16C247.644 677.143 229.04 674.304 227.8 673.949C226.559 673.417 225.319 671.997 225.142 670.577C224.965 669.335 226.028 667.383 227.623 666.673C229.217 665.786 232.407 665.253 234.71 665.608C237.013 665.786 250.834 667.738 265.54 669.69ZM218.055 674.482C217.877 674.659 213.802 673.062 209.195 670.932C204.589 668.625 200.691 666.318 200.691 665.431C200.691 664.721 204.057 664.188 207.955 664.188C213.979 664.188 215.22 664.898 216.814 668.98C217.7 671.819 218.409 674.127 218.055 674.482ZM620.44 695.6C621.326 699.327 621.503 705.538 620.795 709.443C620.086 713.347 618.846 717.961 617.96 719.558C617.074 721.155 612.644 726.302 608.392 730.916C603.962 735.53 596.343 742.451 591.559 746.356C586.598 750.26 575.79 757.359 567.639 762.15C559.312 767.119 537.695 778.477 519.8 787.528C501.727 796.579 465.05 813.083 438.295 824.264C411.363 835.444 380.887 848.222 370.256 852.481C353.955 859.047 350.766 859.934 349.525 857.627C348.639 856.208 347.931 853.723 347.931 852.303C347.931 850.884 346.69 844.85 345.096 838.993C343.678 833.137 340.312 823.909 337.654 818.585C334.996 813.261 329.858 805.097 326.137 800.306C322.239 795.514 315.329 789.658 309.305 786.463L299.205 780.784C319.758 769.959 338.008 759.843 353.246 751.502C368.307 743.161 392.581 729.141 407.288 720.445C421.817 711.572 437.054 703.054 440.953 701.279C445.205 699.504 462.923 696.487 486.135 693.648C507.042 691.163 541.416 687.082 562.678 684.597C583.94 682.113 603.962 680.16 607.329 680.16C611.758 680.16 614.062 681.225 616.188 684.597C617.605 687.082 619.554 692.051 620.44 695.6ZM328.44 698.262C353.955 701.811 374.863 703.941 386.911 703.763C397.011 703.763 407.642 703.231 410.3 702.521C412.957 701.989 415.261 701.989 415.261 702.699C415.261 703.586 403.921 711.04 389.923 719.381C376.103 727.722 360.156 737.127 354.487 740.322L344.387 745.823C307.887 726.124 283.613 712.992 266.78 703.941C249.948 694.713 236.305 686.904 236.305 686.372C236.305 685.839 238.076 685.662 240.203 685.662C242.329 685.839 254.2 687.437 266.426 689.211C278.474 690.986 306.47 695.068 328.44 698.262ZM568.525 784.156C575.258 786.641 581.991 789.48 583.586 790.545C585.003 791.787 588.37 794.627 591.205 797.111C594.04 799.596 597.584 804.565 599.355 807.937C601.127 811.309 603.253 816.987 603.962 820.359C604.671 824.086 604.317 829.41 602.899 833.669C601.482 837.574 598.469 843.075 595.989 845.915C593.508 848.754 588.37 852.658 584.472 854.61C580.574 856.563 571.36 859.225 564.096 860.467C556.654 861.709 545.137 862.774 538.404 862.951C531.494 862.951 517.496 861.709 507.397 860.112C497.12 858.692 479.224 855.498 467.53 853.013C455.836 850.706 445.914 848.399 445.737 848.222C445.382 848.044 444.851 844.495 444.319 840.236L443.61 832.782C460.62 824.973 467.53 822.134 469.656 821.602C473.377 820.359 473.732 820.892 473.732 828.345C473.732 832.782 474.618 838.106 475.681 840.236C477.63 844.317 477.63 844.317 480.11 840.768C481.528 838.638 482.591 832.782 482.591 826.571L482.414 815.923C509.346 803.855 525.824 795.691 536.632 790.19L556.3 779.897L568.525 784.156ZM310.545 795.514C322.062 809.889 327.555 818.94 330.212 824.796C332.87 830.652 335.173 837.396 335.351 839.881C335.705 842.365 335.705 845.205 335.705 846.447C335.528 847.689 328.086 851.061 319.05 854.078C306.647 857.982 302.394 858.87 301.331 857.095C300.622 855.853 300.091 852.481 300.091 849.641C300.091 846.624 299.028 839.526 297.965 833.669C296.902 827.813 294.421 819.472 292.649 815.035C290.7 810.599 288.22 805.984 286.979 804.742C285.739 803.5 283.436 802.613 281.664 802.613C280.069 802.613 278.652 803.855 278.652 805.275C278.652 806.694 280.778 812.551 283.436 818.052C287.334 826.926 288.042 830.83 288.22 847.689L288.397 867.211C251.365 884.247 234.71 890.991 227.268 893.298C218.232 895.96 212.03 896.848 207.424 895.96C203.703 895.428 197.501 892.233 193.426 889.039C189.351 885.845 183.858 879.278 181.378 874.487C177.302 866.323 176.948 863.839 176.948 841.655C176.771 822.489 177.479 816.278 179.96 810.954C182.263 805.984 184.035 804.387 187.402 804.387C190.414 804.387 193.78 806.517 197.501 810.954C200.691 814.68 204.766 821.247 206.715 825.683C209.55 832.072 210.258 838.816 210.967 861.177C211.322 876.261 212.385 889.394 213.093 890.459C214.157 891.524 215.22 890.814 216.283 888.684C217.346 886.732 218.941 878.391 220.181 870.05C221.598 859.225 221.775 851.771 220.358 843.43C219.472 837.041 217.346 828.345 215.751 823.909C214.157 819.472 210.613 812.728 207.955 808.824C205.297 804.92 201.754 800.661 200.159 799.418C198.564 798.176 197.678 796.401 198.033 795.514C198.564 794.449 208.132 793.917 222.484 794.094C235.419 794.449 260.579 794.804 278.297 794.982L310.545 795.514ZM427.841 843.075C424.829 843.253 421.994 842.72 421.817 841.833C421.639 840.945 424.297 839.348 427.664 838.283C431.03 837.219 433.865 836.331 434.22 836.331C434.574 836.331 434.574 837.751 434.22 839.526C433.865 841.537 431.739 842.72 427.841 843.075ZM288.397 137.289C284.499 137.289 277.943 138.886 273.691 140.838C269.615 142.613 266.603 145.275 266.78 146.517C267.135 147.76 269.438 148.469 271.741 148.292C274.045 148.115 279.183 147.76 283.081 147.582C286.979 147.227 293.181 147.582 296.724 148.292C302.926 149.534 303.457 149.179 303.812 145.452C303.989 142.436 302.926 140.661 299.737 139.419C297.433 138.354 292.295 137.466 288.397 137.289ZM365.472 140.838C361.042 140.661 356.967 141.193 356.258 141.726C355.55 142.436 355.727 144.388 356.613 146.34C357.853 148.647 360.334 149.534 364.94 149.534C368.661 149.534 373.268 150.776 375.217 152.196C377.166 153.616 380.533 154.858 382.659 154.858C384.962 154.858 386.734 153.971 386.734 152.729C386.734 151.486 384.962 148.824 382.836 146.695C380.533 144.565 377.521 142.436 376.103 141.903C374.686 141.371 369.902 140.838 365.472 140.838ZM361.928 182.011C360.511 182.188 358.562 184.495 357.676 186.802C356.79 189.287 356.613 194.256 357.322 197.983C357.853 201.887 359.625 205.081 361.397 205.791C363.523 206.501 365.295 205.791 366.889 203.484C368.13 201.71 369.193 196.918 369.37 193.014C369.547 188.577 368.661 185.028 367.244 183.608C365.826 182.366 363.523 181.656 361.928 182.011ZM283.613 186.092C282.727 186.625 278.323 190.644 278.5 196.5C278.677 204.131 282.904 208.453 284.853 209.518C286.448 210.228 288.397 210.05 289.46 208.986C290.346 208.098 291.586 204.017 292.295 200.112C293.181 194.256 292.649 192.304 289.46 188.932C287.334 186.802 284.676 185.383 283.613 186.092ZM338.54 192.126C337.654 192.126 336.591 196.74 336.059 202.419C335.528 207.921 335.528 215.197 336.059 218.391C336.768 222.473 338.894 225.313 343.501 228.152C347.045 230.459 349.525 233.299 349.171 234.718C348.817 236.316 345.805 238.8 342.438 240.575C339.072 242.172 332.516 243.592 327.732 243.592C321.885 243.592 319.581 244.302 319.936 245.899C320.29 247.141 322.416 249.093 324.897 250.335C327.2 251.578 331.807 252.465 334.819 252.465C338.008 252.465 343.501 251.045 347.045 249.448C350.766 247.673 354.664 244.656 356.081 242.704C357.322 240.752 358.385 237.025 358.385 234.363C358.385 231.169 355.904 226.732 351.297 221.408C344.919 214.31 344.21 212.712 344.564 204.904C344.741 199.402 344.033 195.676 342.438 194.256C341.021 193.191 339.249 192.126 338.54 192.126ZM276.348 254.595C275.462 254.95 274.222 256.192 273.868 257.434C273.513 258.676 276.348 262.581 279.892 266.13C283.613 269.679 291.763 275.003 298.142 278.02C306.47 281.925 312.317 283.522 319.404 283.522C325.96 283.522 330.921 282.457 334.11 280.505C336.768 278.73 338.363 276.601 337.654 275.536C336.945 274.648 330.389 273.761 323.125 273.761C312.317 273.761 307.71 272.874 299.914 269.147C294.598 266.662 287.511 262.226 284.144 259.386C280.955 256.547 277.411 254.417 276.348 254.595ZM559.489 555.046C555.591 555.579 550.452 557.531 547.972 559.305C545.491 561.08 541.77 565.872 539.467 569.953C536.986 574.745 535.923 579.004 536.455 582.199C536.986 584.861 539.113 589.297 541.416 592.137C544.251 595.864 547.44 597.461 553.642 598.348C561.615 599.413 561.969 599.235 569.943 591.427C577.384 584.151 577.916 582.731 578.093 574.035C578.448 565.339 577.916 564.097 572.601 559.128C567.462 554.514 565.69 553.981 559.489 555.046ZM568.171 572.793C568.171 574.745 566.753 578.649 565.159 581.311C563.564 583.973 560.198 587.168 557.717 588.41C553.996 590.362 552.933 590.185 549.744 586.99C547.795 585.038 546.023 581.666 546.2 579.537C546.2 577.23 546.909 573.858 547.972 571.906C548.858 569.953 552.047 567.291 555.059 565.694C557.894 564.274 561.084 563.032 561.969 563.032C562.855 563.032 564.627 564.452 565.868 566.227C567.108 567.824 568.171 570.841 568.171 572.793ZM510.763 809.711C509.877 809.711 508.105 811.841 507.219 814.148C506.156 816.633 505.448 825.506 505.448 833.669C505.448 843.962 506.156 849.109 507.574 849.819C508.814 850.529 510.586 850.351 511.295 849.464C512.003 848.577 513.244 840.768 513.775 831.895C514.307 823.199 514.307 814.503 513.775 812.906C513.067 811.131 511.826 809.711 510.763 809.711Z"
            fill="white"
            style="fill: white; fill-opacity: 1"
          />
        </g>
        <defs>
          <filter
            id="filter0_d_30_141"
            x="-34"
            y="0"
            width="766"
            height="925"
            filterUnits="userSpaceOnUse"
            color-interpolation-filters="sRGB"
          >
            <feFlood flood-opacity="0" result="BackgroundImageFix" />
            <feColorMatrix
              in="SourceAlpha"
              type="matrix"
              values="0 0 0 0 0 0 0 0 0 0 0 0 0 0 0 0 0 0 127 0"
              result="hardAlpha"
            />
            <feOffset dy="4" />
            <feGaussianBlur stdDeviation="8" />
            <feComposite in2="hardAlpha" operator="out" />
            <feColorMatrix
              type="matrix"
              values="0 0 0 0 1 0 0 0 0 1 0 0 0 0 1 0 0 0 0.05 0"
            />
            <feBlend
              mode="normal"
              in2="BackgroundImageFix"
              result="effect1_dropShadow_30_141"
            />
            <feBlend
              mode="normal"
              in="SourceGraphic"
              in2="effect1_dropShadow_30_141"
              result="shape"
            />
          </filter>
        </defs>
      </svg>