<svg
        width="511"
        height="474"
        viewBox="0 0 511 474"
        fill="none"
        xmlns="http://www.w3.org/2000/svg"
      >
        <path
          fill-rule="evenodd"
          clip-rule="evenodd"
          d="M300.332 0.814915C299.952 1.30386 299.517 3.47697 299.3 5.65008L298.974 9.67033C286.696 10.0506 284.957 10.3223 283.219 11.2458C282.024 11.8434 280.122 13.4189 278.981 14.7228C277.84 16.0267 276.374 18.4714 275.722 20.1012C274.526 23.0893 274.526 23.1436 274.526 61.1187C274.526 99.148 274.526 99.148 275.722 102.136C276.537 104.092 277.895 105.993 279.688 107.677C281.154 109.144 283.545 110.828 285.012 111.426C287.511 112.567 288.054 112.621 308.481 112.404L329.397 112.187L329.669 127.127C266.323 127.127 236.497 127.29 222.481 127.507L197.109 127.942C197.055 94.6932 196.838 80.7309 196.621 75.5155C196.295 67.4207 196.077 65.6822 195.099 63.835C194.447 62.6398 192.981 60.7384 191.84 59.6518C190.699 58.5653 188.58 57.0984 187.059 56.3921C184.397 55.1426 184.016 55.1426 168.75 55.2513L153.104 55.4142C152.832 15.4834 152.778 14.8858 151.637 12.3324C150.931 10.9199 149.247 8.52945 147.834 7.00827C146.367 5.4871 143.868 3.58563 142.239 2.82504L139.25 1.35819H44.7203C40.9174 3.36832 38.6899 5.1068 37.3317 6.465C35.9735 7.82319 34.1264 10.3223 33.2572 11.9521L31.6817 14.9401L31.8446 103.494C34.0177 108.547 35.7019 111.046 36.9514 112.295C38.2553 113.545 40.6457 115.229 42.2756 116.098L45.2636 117.619L90.6272 117.891C90.6272 151.955 90.8988 162.603 91.2248 164.613C91.4965 166.569 92.3657 169.122 93.0176 170.317C93.7239 171.513 95.3537 173.414 96.6576 174.501C98.2874 175.913 100.189 176.891 102.579 177.489C105.459 178.303 108.392 178.466 118.769 178.466H131.373V221.114C121.485 221.168 106.98 221.385 92.8003 221.603C71.2322 221.983 66.6144 222.2 64.5499 222.907C63.1917 223.395 61.0186 224.754 59.6604 225.895C58.3022 227.09 56.5094 229.317 55.5858 230.947L53.956 233.881L53.63 266.477C47.491 267.021 45.0463 267.727 42.2756 269.031C40.0481 270.063 36.2995 272.399 34.0177 274.246C31.573 276.148 28.748 279.081 27.3898 280.983C26.0859 282.884 24.4561 285.492 23.8041 286.85C23.0979 288.208 21.957 290.979 21.2507 293.098C20.5445 295.217 19.3493 300.432 18.5887 304.778C17.6651 310.048 16.7959 313.471 15.8723 315.101C15.166 316.459 13.0473 319.393 11.2544 321.62C9.4073 323.847 7.34284 326.835 6.63658 328.248C5.93032 329.715 4.95243 332.268 4.5178 333.952C4.08318 335.691 3.70289 338.299 3.70289 339.82C3.70289 341.287 4.13751 344.003 4.68079 345.741C5.22406 347.752 6.36494 349.816 7.56015 351.174C8.59238 352.424 10.2765 353.782 11.2544 354.217C12.178 354.651 12.9929 355.086 12.9386 355.14C12.9386 355.249 11.4718 357.096 9.62461 359.215C7.83179 361.388 5.4957 364.865 4.46348 366.984C3.43125 369.102 2.07306 373.123 1.47545 375.948C0.60621 379.968 0.280243 383.825 0.0629322 393.332C-0.100051 400.558 0.0629327 408.87 0.443227 413.705C0.82352 418.16 1.25814 423.919 1.47545 426.472C1.74709 430.004 2.29037 432.014 3.70289 435.165C4.73511 437.392 6.41927 440.543 7.4515 442.173C8.53805 443.803 10.2765 445.813 11.3088 446.628C12.341 447.497 15.166 448.855 17.5564 449.67L21.9027 451.191L80.0333 451.517C84.3795 465.154 85.6834 468.305 86.7156 469.5C87.5305 470.424 89.1604 471.673 90.3556 472.162C92.42 473.14 97.4725 473.194 197.924 473.194C282.132 473.194 303.537 473.086 304.298 472.542C304.896 472.162 305.222 471.347 305.113 470.749C305.004 469.989 304.352 469.554 302.777 469.283C301.582 469.065 293.107 468.902 283.871 468.902L267.192 468.848C267.844 466.132 268.007 458.254 267.953 449.562C267.953 437.773 267.681 432.231 267.029 427.559C266.54 424.136 265.725 419.844 265.291 418.052C264.802 416.259 263.607 413.108 262.629 410.989C261.651 408.87 259.641 405.719 258.174 403.926C256.707 402.188 253.556 399.254 251.166 397.516C248.775 395.723 244.592 393.224 241.93 391.974C239.268 390.67 234.433 388.823 231.282 387.791L225.469 385.998L224.11 372.96C228.348 364.376 229.543 360.899 230.249 357.476C230.847 354.651 231.336 350.957 231.336 349.327C231.336 347.697 230.956 344.764 230.521 342.808C230.032 340.852 228.62 337.212 227.37 334.659C225.74 331.236 224.11 329.009 221.285 326.183L217.482 322.326C252.85 321.729 271.701 321.62 282.132 321.729L301.147 321.892C301.419 372.905 301.364 374.481 300.386 377.197C299.789 378.773 298.159 381.272 296.692 382.902C294.845 384.966 293.27 386.107 291.205 386.867C288.76 387.737 286.913 387.9 277.895 387.9C272.19 387.9 266.649 388.063 265.671 388.28C264.15 388.66 263.878 388.932 264.041 390.073C264.15 391.105 264.639 391.485 266.377 391.92C267.681 392.192 272.788 392.192 279.416 391.92C289.901 391.431 290.39 391.322 293.813 389.747C295.769 388.823 298.376 386.976 299.68 385.672C300.984 384.368 302.668 381.924 303.483 380.294L304.95 377.306L305.222 321.62L372.86 321.348C378.075 319.23 380.574 317.545 382.367 315.916C384.16 314.231 385.898 311.95 386.713 310.157L388.071 307.223C388.234 258.383 388.289 243.66 388.343 242.953V241.758L463.044 242.03C466.792 244.149 468.639 245.724 469.563 246.919C470.541 248.115 471.573 250.342 471.899 251.918C472.334 253.765 472.551 260.067 472.551 269.194V283.591L422.841 283.862C417.354 286.416 414.801 288.154 413.605 289.295C412.356 290.49 410.726 292.555 409.965 293.913C409.15 295.271 408.118 297.824 407.629 299.617C406.923 302.442 406.814 307.386 406.923 335.474L407.086 368.07C409.313 373.557 410.672 375.513 412.628 377.414C414.203 378.99 416.919 380.946 418.604 381.761L421.755 383.282H495.64C500.258 381.163 502.703 379.533 504.061 378.284C505.419 377.089 507.158 374.915 507.973 373.449C508.788 371.982 509.657 369.7 509.928 368.342C510.254 366.984 510.635 352.206 510.852 335.474C511.124 313.797 511.015 303.963 510.58 301.247C510.254 299.128 509.494 296.412 508.896 295.108C508.353 293.859 506.777 291.685 505.474 290.219C504.17 288.806 501.779 287.013 500.204 286.198C498.574 285.438 495.695 284.514 493.739 284.188C491.783 283.862 487.219 283.591 483.525 283.591H476.897C476.843 277.506 476.625 270.063 476.408 263.218C476.082 251.863 475.919 250.451 474.833 248.006C474.126 246.485 472.66 244.366 471.573 243.225C470.486 242.084 468.313 240.454 466.847 239.694L464.13 238.227C405.185 237.792 388.126 237.521 388.18 237.249C388.289 237.032 388.343 230.404 388.343 222.472V208.075C423.493 208.075 435.499 207.803 437.673 207.532C439.791 207.206 442.725 206.391 444.192 205.685C445.604 204.978 447.777 203.294 449.081 201.882C450.331 200.524 451.798 198.459 452.341 197.318C453.156 195.525 453.265 193.189 453.265 175.152V154.997C459.186 154.073 462.935 153.15 465.488 152.389C468.042 151.574 472.062 149.89 474.452 148.695C477.766 146.956 479.939 145.327 483.688 141.524C486.893 138.318 489.393 135.222 490.859 132.56C492.163 130.332 493.793 126.801 494.499 124.682C495.206 122.563 496.075 118.923 496.455 116.533C496.89 113.871 497.053 110.231 496.835 107.026C496.618 103.983 495.912 99.8543 495.097 96.9749C494.282 94.3129 492.706 90.2383 491.566 88.0109C490.37 85.7834 487.871 82.1978 486.024 80.1333C484.123 78.0146 481.243 75.1352 479.614 73.7227C477.984 72.2558 474.941 70.3 472.823 69.2678C470.704 68.2899 467.335 66.986 465.217 66.3884C463.098 65.7365 459.567 64.9759 457.339 64.5956C454.949 64.2697 451.472 64.161 448.918 64.3783C446.528 64.5413 442.725 65.1932 440.498 65.7365C438.27 66.3341 435.228 67.312 433.707 67.9639C432.24 68.6159 429.632 70.0284 428.002 71.0606C426.372 72.0928 423.221 74.7006 420.994 76.8194C418.821 78.9381 415.941 82.1435 414.692 83.9363C413.388 85.7291 411.541 88.8801 410.563 90.9989C409.639 93.1177 408.281 97.1379 407.575 99.963C406.651 103.494 406.271 106.645 406.271 109.851C406.271 112.513 406.651 116.533 407.14 118.815C407.575 121.151 408.716 124.736 409.585 126.855C410.454 128.974 412.247 132.342 413.605 134.461C414.909 136.58 417.517 139.785 419.418 141.632C421.32 143.479 424.906 146.304 427.459 147.88C430.012 149.455 434.087 151.466 436.586 152.281C439.031 153.095 442.834 154.019 445.007 154.291C447.126 154.617 449.027 154.997 449.19 155.16C449.353 155.323 449.57 163.798 449.625 174.012C449.788 186.398 449.625 193.298 449.244 194.602C448.918 195.743 447.723 197.698 446.637 198.894C445.496 200.143 443.594 201.664 442.399 202.316C440.28 203.403 439.574 203.457 414.312 203.566L388.343 203.729L388.017 140.98C385.735 136.145 384.051 133.7 382.747 132.397C381.498 131.147 379.216 129.517 377.749 128.757L375.033 127.398L333.472 127.127V112.187C368.731 111.969 372.805 111.806 375.033 111.1C376.554 110.666 378.618 109.579 379.651 108.764C380.683 107.949 382.204 106.211 383.019 104.852C383.888 103.494 384.812 101.538 385.083 100.506C385.409 99.4197 385.735 82.6324 385.898 60.847C386.17 25.9143 386.116 22.872 385.246 20.3729C384.649 18.6887 383.345 16.7329 381.824 15.2118C380.465 13.8536 378.184 12.1151 376.663 11.4088C374.163 10.1593 373.24 10.0506 365.145 9.88764L356.29 9.77898C356.833 4.34621 356.724 2.49907 356.344 1.73848C356.018 1.08655 355.42 0.543277 354.986 0.543277C354.551 0.543277 353.791 0.923571 353.356 1.35819C352.704 1.9558 352.487 3.20533 352.487 5.97605V9.77898H303.592C303.646 2.06445 303.483 0.706262 302.94 0.434623C302.56 0.217312 301.962 0 301.636 0C301.256 0 300.712 0.380294 300.332 0.814915ZM46.0785 5.54142C47.2737 5.16113 63.898 4.94382 91.7138 4.94382C128.439 4.88949 135.882 4.99815 138.164 5.65008C139.848 6.13903 141.913 7.38857 143.542 8.80108C145.009 10.1049 146.639 12.0064 147.128 13.0386C148.052 14.8315 148.106 18.0911 148.486 104.038L146.965 106.591C146.15 108.058 144.466 109.959 143.216 110.828C141.913 111.752 139.794 112.839 138.436 113.273C136.317 113.979 129.634 114.088 47.4367 113.817L44.4487 112.404C42.8188 111.643 40.6457 110.177 39.6135 109.144C38.5813 108.112 37.3317 106.319 36.7885 105.124C35.8649 103.06 35.7562 100.289 35.7562 59.5975C35.7562 30.4778 35.9192 15.8094 36.3538 14.7771C36.6255 13.9622 37.549 12.3867 38.364 11.1915C39.1789 10.0506 40.8087 8.42079 42.0039 7.60588C43.1991 6.79096 45.0463 5.86739 46.0785 5.54142ZM287.565 14.0709C288.434 13.8536 291.477 13.6906 299.246 13.5819V18.1998C299.246 20.7532 299.517 23.4152 299.789 24.1758C300.115 24.9907 300.767 25.534 301.419 25.534C302.016 25.534 302.723 24.9907 302.994 24.2845C303.266 23.6325 303.592 21.0248 304.026 13.8536L352.432 13.5819L352.487 17.7652C352.487 20.5902 352.704 22.383 353.247 23.0893C353.899 23.9585 354.225 24.0672 355.04 23.5782C355.855 23.0893 356.072 22.1114 356.344 13.8536L364.33 14.1252C371.556 14.3968 372.588 14.5598 375.467 15.918C377.314 16.7873 379.162 18.1454 380.085 19.395C381.389 21.1878 381.552 21.9484 381.824 27.0552C381.987 30.5865 381.878 32.8139 381.552 32.9226C381.28 33.0312 363.515 33.3572 342.164 33.6832C320.814 33.9548 297.779 34.2264 278.601 34.2264V28.6307C278.601 24.2302 278.873 22.6003 279.742 20.6445C280.34 19.2863 281.263 17.7652 281.752 17.1675C282.241 16.6243 283.436 15.8094 284.305 15.3204C285.175 14.8858 286.696 14.2882 287.565 14.0709ZM353.302 37.5404C365.851 37.3231 377.477 37.1058 382.095 36.9428L381.932 66.9317C381.769 93.009 381.661 97.3552 380.846 99.6913C380.357 101.158 379.216 103.223 378.347 104.255C377.423 105.287 375.793 106.482 374.761 106.971C373.077 107.732 367.644 107.895 331.027 108.112C303.592 108.275 288.543 108.221 287.348 107.84C286.316 107.569 284.36 106.319 283.056 105.124C281.698 103.929 280.122 101.973 279.633 100.778C278.71 98.7677 278.601 96.3773 278.601 38.0294L304.57 37.9751C318.804 37.9207 340.752 37.7034 353.302 37.5404ZM153.213 59.1629L185.049 59.4888L187.439 61.1187C188.689 62.0422 190.373 63.8894 191.079 65.1932C192.383 67.5293 192.437 68.1813 192.926 83.1214C193.198 91.6508 193.252 105.07 193.089 113.002C192.926 120.933 192.655 127.507 192.492 127.67C192.274 127.833 181.463 128.05 168.424 128.213C145.933 128.485 144.575 128.539 142.239 129.626C140.88 130.223 138.707 131.69 137.458 132.886C136.045 134.135 134.307 136.58 131.319 142.61L131.373 174.392H117.791C106.708 174.392 103.829 174.229 102.199 173.523C101.058 173.088 99.5369 172.164 98.885 171.513C98.1788 170.861 97.0379 169.339 96.4403 168.144C95.2451 166.025 95.2451 165.482 95.2451 118.163L114.26 118.38C126.429 118.489 134.578 118.326 136.969 117.945C138.979 117.619 141.532 116.913 142.673 116.316C143.76 115.772 145.878 114.142 147.291 112.676C148.758 111.209 150.551 108.655 152.832 104.038L152.995 81.6002L153.213 59.1629ZM441.91 69.4851C444.029 68.9418 447.94 68.5072 450.874 68.5072C454.405 68.4529 457.448 68.7789 460.653 69.5938C463.152 70.1914 467.227 71.6582 469.617 72.7991C472.008 73.94 475.756 76.3304 478.038 78.0689C480.265 79.8617 483.199 82.7954 484.503 84.5339C485.861 86.3267 487.708 89.3147 488.686 91.2705C489.664 93.2263 490.968 96.7576 491.62 99.148C492.489 102.245 492.815 105.124 492.87 109.199C492.87 112.947 492.543 116.316 491.892 118.978C491.403 121.205 489.99 125.008 488.849 127.398C487.654 129.789 485.427 133.429 483.851 135.493C482.276 137.558 480.754 139.351 480.483 139.459C480.157 139.568 479.722 138.101 479.505 136.254C479.288 134.352 478.636 131.473 478.092 129.843C477.549 128.213 476.517 125.769 475.811 124.41C475.159 123.052 472.986 120.336 471.03 118.38C468.694 116.098 466.195 114.251 460.762 111.643L463.261 108.927C464.999 107.026 466.086 105.178 466.792 102.951C467.553 100.561 467.716 98.9851 467.444 96.9749C467.227 95.5081 466.521 93.0633 465.869 91.5965C465.162 89.9667 463.641 87.9565 462.011 86.544C460.2 84.9504 458.299 83.8639 456.307 83.2844C454.46 82.7954 452.232 82.5238 450.603 82.7411C449.081 82.8497 446.745 83.4473 445.441 84.0449C444.083 84.6425 442.019 86.0551 440.878 87.2503C439.791 88.3912 438.324 90.4556 437.618 91.8138C436.749 93.6609 436.477 95.2364 436.477 98.3331C436.477 101.647 436.749 103.005 437.89 105.396C438.705 107.026 440.226 109.199 441.312 110.177C443.16 111.861 443.214 111.915 442.019 112.132C441.367 112.295 438.868 113.708 436.477 115.283C434.087 116.859 431.208 119.412 430.012 120.879C428.817 122.4 427.187 125.062 426.372 126.855C425.557 128.648 424.471 131.582 424.036 133.374C423.547 135.167 423.167 137.395 423.113 139.894L420.559 137.123C419.147 135.602 417.191 133.049 416.213 131.419C415.235 129.789 413.66 126.312 412.682 123.596C410.998 118.923 410.943 118.38 410.943 110.828C410.998 103.82 411.161 102.408 412.465 98.0615C413.334 95.3994 414.909 91.4878 415.996 89.4234C417.082 87.3589 419.364 84.1536 420.994 82.3608C422.678 80.5136 425.612 77.8516 427.513 76.3847C429.469 74.9179 432.62 72.9621 434.576 72.0928C436.477 71.1693 439.791 69.9741 441.91 69.4851ZM447.886 87.5762C448.755 87.2503 450.222 86.9786 451.146 86.9786C452.015 86.9243 453.754 87.1959 454.949 87.5219C456.253 87.9022 458.045 89.0974 459.621 90.6729C461.359 92.3571 462.337 93.9326 462.826 95.6167C463.315 97.5725 463.315 98.6591 462.772 101.05C462.337 102.951 461.468 104.744 460.382 105.885C459.458 106.917 457.774 108.166 456.579 108.71C455.383 109.253 453.319 109.742 452.069 109.742C450.82 109.742 448.864 109.362 447.723 108.927C446.582 108.438 445.007 107.406 444.138 106.591C443.268 105.776 442.127 104.146 441.53 102.951C440.987 101.756 440.552 99.5827 440.552 98.0615C440.552 96.323 440.987 94.4759 441.747 92.9547C442.399 91.5965 443.703 90.021 444.626 89.3147C445.496 88.6628 446.963 87.9022 447.886 87.5762ZM444.898 116.153C447.126 115.392 449.136 115.229 453.047 115.338C457.611 115.501 458.643 115.718 462.011 117.348C464.239 118.434 466.901 120.282 468.531 121.911C469.997 123.433 472.008 126.258 472.986 128.213C474.018 130.332 474.941 133.266 475.267 135.548C475.593 137.666 475.811 140.22 475.811 141.252C475.865 143.099 475.702 143.262 471.899 145.164C469.726 146.25 466.032 147.826 463.641 148.641C460.164 149.836 457.991 150.162 453.047 150.379C447.886 150.542 445.876 150.379 441.91 149.455C439.194 148.804 434.739 147.174 431.968 145.87C427.296 143.588 426.97 143.316 426.97 141.795C426.97 140.926 427.296 138.264 427.785 135.982C428.22 133.646 429.415 130.061 430.447 127.942C431.642 125.443 433.163 123.324 434.902 121.803C436.369 120.499 438.542 118.923 439.737 118.271C440.932 117.674 443.214 116.696 444.898 116.153ZM248.232 131.31C261.216 131.256 294.465 131.201 372.425 131.201L375.63 132.831C377.532 133.809 379.488 135.385 380.574 136.797C381.606 138.047 382.693 140.111 383.019 141.415C383.399 142.665 383.671 146.793 383.779 157.442L294.139 157.768C244.809 157.931 188.852 158.257 135.067 158.908L135.339 151.574C135.502 146.25 135.828 143.642 136.48 142.067C137.023 140.872 138.273 138.916 139.25 137.721C140.228 136.525 142.293 134.896 146.639 132.56L185.592 132.016C207.051 131.69 235.193 131.364 248.232 131.31ZM226.229 162.005C248.612 161.734 293.324 161.516 384.051 161.462V234.207C384.051 304.344 383.997 307.006 383.019 309.016C382.421 310.102 381.172 311.841 380.139 312.873C379.162 313.851 376.988 315.318 372.371 317.545L210.474 317.817L207.214 316.567C204.335 315.535 202.923 315.372 196.349 315.427C189.884 315.427 188.2 315.644 185.483 316.622C182.332 317.763 181.354 317.817 165.382 317.817C152.235 317.817 147.889 317.654 145.824 317.056C144.14 316.567 142.021 315.318 140.391 313.905C138.87 312.547 137.186 310.428 135.23 306.137V162.168L160.33 162.331C174.129 162.385 203.792 162.223 226.229 162.005ZM95.571 225.514C110.022 225.297 124.039 225.08 131.373 224.917L131.699 308.31L133.003 311.026C133.763 312.547 135.556 314.992 137.077 316.513C138.925 318.36 140.935 319.718 143.108 320.588C146.204 321.783 147.019 321.892 175.161 322.218L172.173 324.228C170.181 325.568 168.75 327.053 167.881 328.683C166.795 330.801 166.686 331.725 166.849 335.202C167.012 338.299 167.392 339.657 169.511 342.536L168.098 352.043C167.338 357.259 166.36 362.8 165.925 364.267C165.491 365.788 164.839 368.016 164.459 369.211C163.807 371.167 163.861 371.601 164.567 372.362C165.002 372.851 166.686 373.503 168.37 373.829C170 374.155 171.684 374.481 172.173 374.589C172.608 374.752 173.857 377.36 175.107 380.946C176.302 384.314 177.877 387.791 178.638 388.66C179.399 389.53 181.028 390.725 182.224 391.268C183.419 391.811 185.646 392.246 187.385 392.246C189.015 392.246 191.677 391.866 193.361 391.431C194.991 390.996 196.403 390.616 196.458 390.616C196.512 390.616 196.566 391.159 196.566 391.866C196.512 392.844 195.588 393.496 191.514 395.451C187.439 397.407 185.809 398.602 182.495 401.971C180.214 404.252 177.226 408.11 175.813 410.446C174.4 412.836 172.39 417.128 171.412 419.953C170.38 422.778 168.859 427.994 166.469 437.99L164.078 439.131C162.774 439.783 160.33 441.793 158.591 443.586C156.853 445.378 154.191 448.801 152.669 451.191C151.094 453.582 149.844 455.809 149.844 456.081C149.79 456.407 148.595 453.202 147.074 449.018C145.552 444.835 142.13 435.328 139.468 427.831C136.751 420.388 133.981 413.216 133.274 411.967C132.514 410.663 130.938 408.979 127.407 406.643L94.7561 406.262L94.0499 399.417C93.6152 395.614 92.746 389.584 92.0397 385.998C91.2791 382.413 89.9209 377.306 88.943 374.589C87.9651 371.927 86.0093 368.016 84.6512 365.897C83.2386 363.833 80.7939 360.899 79.1641 359.378C77.5342 357.911 74.4919 355.52 72.4274 354.162C70.363 352.804 67.5379 351.12 66.2341 350.414C64.8759 349.762 63.572 348.892 63.3547 348.566C63.1374 348.241 62.9744 347.426 62.9744 345.524L66.0711 346.882C68.0269 347.697 70.2543 348.241 71.9385 348.241C73.4053 348.241 75.6328 347.752 76.828 347.263C78.0232 346.719 79.9246 345.198 81.0112 343.84C82.1521 342.536 83.4016 340.363 83.8362 339.005C84.2709 337.647 84.9228 334.17 86.0637 325.803L89.2147 324.391C91.1705 323.521 92.4743 322.544 92.6373 321.892C92.8003 321.24 92.3657 319.773 91.5508 318.36C90.7902 317.002 89.5407 313.471 88.7801 310.483C88.0195 307.495 87.3675 303.746 87.3675 302.225C87.4219 299.78 87.6392 299.128 88.8887 298.042C90.2469 296.846 90.3556 296.412 90.3556 292.718C90.3012 289.675 89.9753 288.045 88.943 285.764C88.2368 284.134 86.8243 281.635 85.8464 280.222C84.9228 278.755 82.5867 276.528 80.7396 275.224C78.8924 273.866 75.9044 272.127 74.1116 271.258C72.3188 270.443 67.9182 269.031 57.8133 266.423L57.6503 251.809C57.596 243.714 57.7589 236.271 58.0306 235.239C58.3022 234.207 59.1171 232.523 59.8234 231.49C60.4753 230.458 61.8879 228.991 62.9744 228.339C64.0066 227.633 65.8538 226.764 67.049 226.492C68.2985 226.112 80.1963 225.732 95.571 225.514ZM46.6761 271.258C48.3059 270.769 50.968 270.661 54.8253 270.824C57.9219 270.987 61.9965 271.475 63.7893 271.964C65.5821 272.453 69.2764 273.866 72.0471 275.224C75.3611 276.8 77.9688 278.484 79.653 280.222C81.1199 281.635 83.13 284.568 84.2709 286.85C85.5747 289.458 86.3353 291.685 86.3353 292.989C86.3353 294.076 86.2267 294.999 86.1723 294.999C86.118 294.999 84.1079 294.13 81.7175 293.098C79.327 292.011 76.6107 290.762 75.7414 290.327C74.8178 289.893 73.84 289.567 73.5683 289.567C73.2423 289.567 71.7212 291.305 70.1457 293.478C68.5702 295.651 66.1797 298.585 64.8759 300.052C63.5177 301.464 61.5076 303.04 60.3667 303.637C59.2258 304.181 57.7046 304.778 56.9984 304.941C56.0748 305.213 54.8253 304.887 53.1954 304.018C51.8372 303.257 49.5011 302.062 48.0343 301.301C46.5131 300.541 44.4487 299.889 43.4164 299.889C42.3299 299.889 40.5371 300.378 39.3419 300.975C37.875 301.627 36.6798 302.823 35.8106 304.344C34.724 306.354 34.561 307.114 34.887 309.939C35.05 311.732 35.8106 314.449 36.5168 315.916C37.2774 317.437 39.0159 319.61 42.9818 322.978L42.6015 327.053C42.3842 329.28 41.7323 332.974 41.1347 335.202C40.5371 337.429 39.6135 339.928 39.0159 340.798C38.4183 341.613 36.5168 343.134 34.724 344.166C32.9312 345.198 29.7802 346.611 27.7701 347.208C25.7599 347.86 22.5003 349.218 20.5988 350.251C17.8824 351.663 16.6329 352.043 15.2747 351.826C14.2968 351.663 12.6126 350.631 11.4174 349.49C9.84192 347.969 9.027 346.556 8.32074 344.166C7.66881 341.83 7.50583 339.983 7.72314 337.647C7.94045 335.637 8.80969 332.92 9.95057 330.584C10.9285 328.52 13.3732 324.825 15.3833 322.435C17.3391 320.044 19.4579 317.111 20.0555 315.916C20.5988 314.72 21.468 311.787 21.957 309.396C22.3916 307.006 23.1522 303.094 23.5868 300.704C24.0758 298.313 24.9993 294.51 25.7599 292.283C26.4662 290.056 27.9874 286.742 29.1283 284.949C30.3235 283.156 32.6052 280.494 34.1807 278.973C35.8106 277.506 38.7443 275.278 40.7001 274.083C42.6015 272.942 45.3179 271.638 46.6761 271.258ZM450.331 287.393C464.782 287.231 478.473 287.013 480.754 286.959C483.525 286.85 484.992 287.013 485.427 287.502C485.807 287.937 488.197 288.371 491.403 288.643C494.717 288.915 497.596 289.458 498.954 290.11C500.149 290.653 501.942 292.066 502.974 293.207C504.007 294.347 505.256 296.303 505.799 297.607C506.723 299.726 506.777 302.008 506.669 333.463C506.506 363.67 506.397 367.201 505.582 369.428C505.039 370.787 503.844 372.851 502.866 373.992C501.888 375.133 499.986 376.763 496.238 378.936L473.963 379.37C461.685 379.588 445.333 379.751 437.564 379.642C423.493 379.479 423.384 379.479 420.451 378.012C418.658 377.197 416.376 375.404 414.801 373.666C413.388 372.09 411.976 369.917 411.704 368.885C411.432 367.853 411.215 352.098 411.161 300.704L412.41 297.987C413.116 296.521 414.638 294.239 415.833 292.935C417.028 291.631 419.31 289.893 423.982 287.665L450.331 287.393ZM74.3289 294.021L77.2083 295.271C78.7838 295.923 80.6852 296.738 81.4458 297.009C82.5867 297.498 82.804 298.042 83.2386 301.301C83.4559 303.366 84.1079 307.277 84.7055 309.939C85.3031 312.656 86.3896 316.133 87.1502 317.708C87.8565 319.284 88.2911 320.642 88.0738 320.751C87.8565 320.859 86.7699 321.24 85.6291 321.566C84.4882 321.892 83.0757 322.869 82.4781 323.684C81.6631 324.771 81.3915 325.966 81.3915 328.139C81.3915 329.823 81.2285 331.453 81.0112 331.888C80.6852 332.431 79.9247 332.54 77.9145 332.268C76.3934 332.051 74.6005 331.508 73.9486 331.127C73.2967 330.693 72.2644 330.312 71.6668 330.312C70.8519 330.312 70.5803 330.693 70.5803 331.671C70.5803 332.431 70.9606 333.463 71.5039 333.952C72.0471 334.441 73.0794 335.148 73.84 335.474C74.5462 335.854 76.2847 336.288 77.6429 336.506C78.9468 336.669 80.142 336.94 80.1963 337.103C80.2506 337.266 79.9247 338.299 79.3814 339.439C78.8381 340.526 77.5886 341.993 76.5563 342.699C75.4698 343.405 73.8399 343.949 72.862 343.949C71.8841 343.894 69.9284 343.405 68.5158 342.753C67.1033 342.156 64.6042 341.178 62.9744 340.58C60.5297 339.765 59.8234 339.711 59.2258 340.254C58.6825 340.798 58.6825 341.939 59.3344 346.882C59.7691 350.196 60.2037 353.347 60.3123 353.891C60.4753 354.597 59.6061 355.52 57.5416 357.042C55.7488 358.291 53.63 359.323 52.3805 359.486C51.1853 359.649 49.3382 359.541 48.3059 359.215C47.2194 358.889 45.0463 357.476 43.4708 356.009C41.8409 354.597 39.7222 352.315 38.7443 350.957C37.712 349.653 36.8971 348.295 36.8971 347.969C36.8428 347.697 38.038 346.665 39.5592 345.687C41.6236 344.329 42.6558 343.188 43.6337 341.069C44.5573 339.113 45.2636 336.017 45.8612 331.399C46.3501 327.705 46.9477 324.173 47.2194 323.684C47.654 322.924 47.0021 322 44.014 319.067C41.515 316.604 40.0481 314.648 39.6135 313.199C39.2332 312.004 39.0159 310.048 39.1245 308.853C39.2875 307.658 39.7765 306.028 40.2654 305.213C40.9717 304.126 41.6779 303.692 42.8732 303.692C43.7424 303.692 46.5674 304.833 49.1208 306.137C52.4892 307.929 54.3363 308.581 56.0205 308.581C57.27 308.581 59.5518 308.038 61.0729 307.332C62.5398 306.626 65.3648 304.615 67.3206 302.823C69.2221 301.03 71.6125 298.313 72.5904 296.792L74.3289 294.021ZM189.232 319.555C190.427 319.23 193.035 319.012 194.936 318.958C196.892 318.958 200.098 319.175 201.999 319.501C204.353 319.863 206.888 320.805 209.605 322.326C212.213 323.793 215.309 326.183 218.026 328.954C221.177 332.105 222.969 334.441 224.491 337.375C225.957 340.254 226.718 342.699 227.153 345.796C227.587 349.055 227.587 351.174 227.153 354.217C226.827 356.444 226.066 359.649 225.414 361.279C224.817 362.909 223.513 365.625 222.535 367.255C220.796 370.135 220.633 370.243 218.569 370.135C217.265 370.08 216.016 369.646 215.472 369.048C214.603 368.124 214.657 367.907 216.776 364.81C218.949 361.605 218.949 361.496 218.732 357.476C218.569 354.543 218.189 352.858 217.319 351.392C216.613 350.196 215.255 348.892 213.951 348.241C212.756 347.643 211.072 347.154 210.148 347.154C209.279 347.154 206.834 348.078 204.715 349.218C200.912 351.229 200.858 351.229 199.826 350.142C199.283 349.544 197.924 347.208 196.838 344.981C195.751 342.753 194.176 340.091 193.415 339.059C192.546 337.918 190.699 336.614 188.96 335.854C186.19 334.604 185.755 334.55 182.332 335.148C180.322 335.474 177.171 336.506 175.378 337.375C173.586 338.299 171.956 338.896 171.738 338.787C171.521 338.679 171.141 337.484 170.924 336.071C170.598 334.224 170.761 333.029 171.467 331.29C171.956 330.041 173.531 328.085 174.835 326.89C176.193 325.695 179.507 323.684 182.169 322.381C184.886 321.077 188.037 319.827 189.232 319.555ZM181.083 339.657C183.202 339.059 185.538 338.679 186.244 338.842C187.005 339.005 188.254 339.548 188.96 340.037C189.721 340.526 191.568 343.351 193.035 346.285C194.556 349.218 196.566 352.315 197.544 353.184C198.703 354.235 199.88 354.76 201.075 354.76C202.053 354.814 204.226 354.054 205.965 353.13C207.649 352.261 209.714 351.5 210.42 351.5C211.452 351.5 212.104 352.043 213.082 353.836C213.788 355.086 214.549 356.879 214.766 357.748C215.038 359.052 214.657 360.301 212.756 363.887C210.528 368.233 210.474 368.505 211.289 369.863C211.724 370.678 212.973 371.873 214.005 372.579C215.038 373.286 216.83 373.992 217.971 374.209C219.112 374.426 220.199 374.861 220.362 375.133C220.525 375.459 221.014 379.099 222.155 390.888L220.633 392.789C219.818 393.821 217.808 396.049 216.179 397.624C214.494 399.254 212.158 401.047 210.963 401.59C209.768 402.134 207.866 402.568 206.78 402.568C205.639 402.568 204.335 402.405 203.792 402.188C203.303 401.916 202.216 400.667 201.401 399.309C199.989 397.027 199.935 396.538 200.206 392.518C200.423 389.149 200.315 387.954 199.663 387.085C198.848 385.998 198.794 385.998 194.339 386.976C191.84 387.465 188.743 387.9 187.493 387.9C186.19 387.9 184.288 387.465 183.202 386.976C182.115 386.433 180.865 385.509 180.485 384.912C180.051 384.314 179.725 383.716 179.725 383.553C179.725 383.391 180.703 382.956 181.898 382.63C183.093 382.25 185.049 381 186.298 379.914C187.656 378.664 188.471 377.36 188.471 376.654C188.417 375.948 188.091 375.296 187.602 375.133C187.168 374.97 186.57 374.861 186.244 374.861C185.972 374.861 184.94 375.73 183.962 376.763C182.876 377.903 181.463 378.773 180.431 378.936C178.692 379.207 178.638 379.153 177.877 376.382C177.443 374.807 176.628 372.96 176.085 372.253C175.433 371.384 174.292 370.895 172.336 370.624C170.815 370.406 169.348 370.135 169.185 369.972C168.968 369.809 169.294 367.635 169.891 365.082C170.489 362.529 171.358 357.802 171.847 354.488C172.282 351.229 172.879 347.045 173.097 345.307C173.477 342.21 173.586 341.993 175.378 341.395C176.465 341.015 179.018 340.254 181.083 339.657ZM27.8787 351.12C30.2691 350.142 32.4422 349.327 32.6596 349.327C32.9312 349.327 34.2894 351.12 35.6476 353.239C37.1688 355.52 39.3419 358.02 40.9174 359.215C42.5472 360.464 45.2093 361.768 47.4367 362.474C50.2074 363.289 51.9459 363.507 53.6844 363.235C55.0426 363.072 56.9984 362.366 58.0306 361.768C59.1171 361.116 61.3446 359.432 66.1797 355.303L68.2442 356.498C69.3307 357.15 71.5039 358.563 72.9707 359.649C74.4919 360.736 77.0453 363.126 78.6751 364.919C80.3593 366.712 82.4781 369.754 83.4016 371.656C84.3795 373.557 85.6291 376.98 86.2267 379.207C86.8786 381.435 87.9651 387.682 88.7257 393.061C89.4863 398.439 90.1926 403.655 90.6272 406.371L83.8362 406.099L83.4559 397.135C83.1843 391.051 82.8583 387.954 82.3694 387.465C81.9891 387.085 81.3915 386.759 81.0112 386.813C80.6309 386.813 80.0876 387.302 79.7617 387.9C79.4357 388.606 79.3814 392.137 80.0333 406.371H76.3933C74.3832 406.371 71.7755 406.751 70.6889 407.186C69.5481 407.621 68.1899 408.653 67.6466 409.468C66.886 410.609 66.6687 411.641 66.8317 413.434C66.9947 414.792 68.1355 418.704 71.7212 428.374L64.7672 428.048C60.91 427.831 52.4892 427.124 34.2351 425.114L33.9091 418.323C33.7461 414.575 33.3115 406.914 32.9855 401.21C32.6595 394.854 32.1706 390.616 31.7903 390.181C31.4643 389.801 30.8667 389.475 30.4864 389.53C30.1061 389.53 29.5629 390.127 29.2369 390.888C28.8747 391.793 28.8747 394.745 29.2369 399.743C29.5629 403.818 29.7802 408.436 29.7802 412.619L22.8806 412.999C19.0776 413.216 13.3732 413.868 10.2222 414.52C7.12553 415.172 4.46348 415.607 4.40915 415.498C4.35482 415.39 4.08318 410.065 3.9202 403.655C3.70289 395.886 3.75722 389.801 4.24617 385.455C4.57213 381.869 5.27839 377.251 5.71301 375.133C6.20196 373.068 7.34284 369.754 8.32074 367.798C9.29864 365.843 11.4174 362.8 13.0473 361.008C14.7314 359.215 17.7194 356.661 19.7839 355.303C21.8483 353.945 25.4883 352.098 27.8787 351.12ZM226.555 390.833L231.499 392.355C234.27 393.17 238.344 394.745 240.572 395.832C242.853 396.918 246.113 398.82 247.906 400.123C249.699 401.373 252.524 403.872 254.154 405.665C255.838 407.403 257.794 410.065 258.608 411.587C259.423 413.053 260.456 415.716 260.89 417.508C261.379 419.301 262.085 423.213 262.52 426.201C262.955 429.189 263.607 435.056 263.987 439.239C264.313 443.423 264.476 451.029 264.367 456.081C264.204 461.188 263.824 466.077 262.846 468.576L233.672 469.011C217.591 469.228 204.389 469.337 204.335 469.283C204.281 469.174 204.607 465.099 206.019 451.191L228.076 451.354C248.015 451.517 250.188 451.463 250.894 450.648C251.546 449.942 251.6 449.507 251.111 448.855C250.622 448.095 249.373 447.932 236.769 447.66V437.066C236.769 431.09 236.551 425.983 236.225 425.386C235.954 424.788 235.193 424.299 234.596 424.299C233.944 424.299 233.455 424.734 233.292 425.549C233.129 426.201 232.803 431.471 232.151 447.66L219.655 447.769C212.81 447.823 206.834 447.769 206.345 447.715C205.911 447.606 204.063 447.334 202.271 447.063C200.478 446.737 197.272 446.03 195.099 445.487C192.926 444.889 189.83 443.803 185.157 441.684L185.538 433.155C185.809 426.146 185.755 424.462 185.103 423.919C184.723 423.539 184.017 423.321 183.528 423.484C182.93 423.702 182.441 425.82 180.648 439.783L178.149 439.076C176.791 438.75 174.509 438.424 173.097 438.424C171.141 438.424 170.489 438.207 170.489 437.61C170.489 437.175 171.358 433.426 172.39 429.352C173.694 424.245 175.107 420.116 176.954 416.422C179.073 412.076 180.54 410.011 184.179 406.154C186.95 403.22 190.101 400.558 195.751 397.19L197.272 400.015C198.142 401.59 199.446 403.546 200.26 404.361C201.075 405.176 202.597 406.154 203.629 406.48C204.715 406.806 206.508 406.969 207.703 406.806C208.899 406.697 211.343 405.882 213.136 405.013C215.309 403.999 217.772 402.115 220.525 399.363C222.752 397.081 225.034 394.256 225.577 393.007L226.555 390.833ZM73.7856 410.663C74.8178 410.554 86.8243 410.554 100.461 410.663C120.236 410.826 125.506 410.989 126.918 411.641C127.896 412.021 129.037 413.053 129.417 413.868C129.852 414.683 132.46 421.257 135.23 428.428C137.947 435.599 142.13 446.845 144.52 453.419C146.856 459.993 149.192 466.295 150.442 469.446H122.192C99.048 469.446 93.6696 469.283 92.42 468.685C91.6051 468.25 90.5185 467.49 90.0296 466.892C89.4863 466.349 86.607 458.797 83.6189 450.159C80.5766 441.467 76.339 429.406 74.2202 423.321C70.9606 414.031 70.4716 412.13 71.0692 411.532C71.5039 411.152 72.6991 410.772 73.7856 410.663ZM18.6973 417.237C20.4901 417.074 23.7498 416.856 29.9975 416.748L30.0518 421.963C30.0518 426.527 30.2148 427.287 31.1927 428.048C32.0076 428.7 35.2673 429.297 43.1448 430.221C49.1208 430.873 58.2479 431.688 63.5177 431.959C68.7331 432.231 73.025 432.557 73.025 432.611C73.0794 432.72 74.1116 435.708 75.4155 439.294C76.7193 442.879 77.8602 446.085 77.9688 446.465C78.1318 447.008 72.2101 447.117 20.8704 446.9L17.8824 445.487C16.1983 444.727 14.0252 443.368 13.0473 442.499C12.015 441.63 10.5482 439.837 9.78759 438.479C9.027 437.121 7.83179 434.078 7.12553 431.688C6.4736 429.297 5.71301 425.766 5.22406 420.279L10.3309 418.975C13.1559 418.215 16.9045 417.454 18.6973 417.237ZM166.197 442.988C167.229 442.662 169.565 442.336 171.358 442.336C173.151 442.282 175.596 442.553 176.791 442.879C177.986 443.205 182.224 444.998 186.298 446.791C192.492 449.616 194.23 450.159 201.782 450.703L201.673 454.234C201.619 456.19 201.401 459.015 200.967 463.47L197.272 463.144C195.262 462.981 191.296 462.22 188.471 461.459C183.582 460.21 182.984 460.156 178.421 460.753C175.704 461.133 172.282 461.296 168.098 461.025L170 459.83C171.032 459.178 173.857 458.091 176.248 457.493C178.638 456.842 180.648 456.298 180.757 456.244C180.811 456.19 180.757 455.592 180.594 454.886C180.322 453.745 180.105 453.691 176.628 454.017C174.618 454.18 171.847 454.668 170.543 455.049C169.185 455.483 167.447 456.298 166.74 456.896C165.98 457.439 164.187 458.417 162.774 459.069C161.362 459.667 160.221 459.938 160.221 459.667C160.221 459.341 162.014 457.276 164.296 455.049C166.523 452.821 168.37 450.594 168.37 450.159C168.37 449.725 168.044 449.181 167.664 449.018C167.284 448.801 166.523 448.801 165.925 448.964C165.328 449.127 162.72 451.354 160.221 453.908C157.668 456.461 154.897 458.797 154.082 459.123C153.104 459.486 152.615 459.486 152.615 459.123C152.615 458.797 154.136 456.353 155.983 453.582C157.831 450.866 160.493 447.497 161.851 446.139C163.209 444.727 165.165 443.368 166.197 442.988ZM161.579 463.198C162.774 462.818 164.024 462.437 164.404 462.437C164.785 462.383 165.11 462.6 165.11 462.926C165.11 463.198 165.491 463.85 166.034 464.339C166.849 465.045 168.207 465.208 174.618 465.099C179.127 464.991 183.31 465.208 184.94 465.588C186.407 465.969 190.101 466.566 193.089 467.001C196.077 467.435 198.685 467.816 198.902 467.816C199.12 467.816 199.337 468.087 199.337 468.468C199.337 469.011 194.339 469.228 154.517 469.609L153.702 466.566C153.213 464.828 153.05 463.307 153.321 463.089C153.593 462.872 154.245 462.981 154.843 463.361C155.386 463.687 156.635 463.958 157.613 463.958C158.591 463.958 160.384 463.578 161.579 463.198ZM59.8777 32.2163C58.3566 33.7918 56.4551 36.4539 55.6402 38.0837C54.7709 39.7135 53.5214 42.7559 52.8151 44.8747C52.1089 46.9391 51.2396 50.7421 50.8593 53.2955C50.3704 56.8811 50.3704 59.0542 50.9137 63.0745C51.2939 65.8995 52.3262 70.4087 53.1954 73.1251C54.119 75.7871 55.8032 79.6444 56.9984 81.6545C58.1936 83.6646 60.0407 86.0007 61.0729 86.8157L63.0287 88.3368L65.4192 85.9464C60.3124 78.5035 58.2479 74.9179 57.5416 73.1251C56.8897 71.3323 55.9661 68.1269 55.5315 66.0625C54.9339 63.4004 54.7709 60.5211 54.9882 56.5551C55.1512 53.4041 55.6402 49.3839 56.1291 47.5911C56.6181 45.7982 57.7589 42.8646 58.5739 41.0717C59.4431 39.2789 61.2902 36.3452 62.6484 34.5524C64.9845 31.4557 65.0932 31.2384 64.1696 30.3149C63.6263 29.7716 63.0831 29.337 62.8657 29.3913C62.7028 29.3913 61.3446 30.6408 59.8777 32.2163ZM119.149 30.2062C119.041 30.6408 119.855 32.2707 121.051 33.8462C122.192 35.4217 124.039 38.5727 125.125 40.8001C126.158 43.0275 127.516 46.8305 128.113 49.2209C128.928 52.2632 129.254 55.3056 129.2 59.2715C129.2 62.4225 128.874 66.5514 128.494 68.5072C128.059 70.463 126.864 73.7227 125.777 75.8415C124.745 77.9059 122.898 81.1113 121.703 82.9041C120.507 84.6969 119.638 86.4354 119.747 86.8157C119.91 87.1959 120.616 87.5219 121.377 87.5219C122.3 87.5219 123.332 86.7613 124.691 85.1858C125.777 83.9363 127.842 80.4593 129.254 77.4713C130.721 74.4833 132.351 70.463 132.84 68.5072C133.6 65.8995 133.818 63.0201 133.818 57.6417C133.763 51.231 133.6 49.7098 132.297 45.418C131.482 42.7016 130.232 39.2789 129.58 37.8121C128.928 36.2909 127.135 33.7918 125.669 32.2706C123.495 29.9346 122.626 29.3913 121.214 29.3913C120.073 29.3913 119.312 29.6629 119.149 30.2062ZM69.9827 41.1804C68.6788 42.5929 66.9403 45.255 66.1797 47.0478C65.3648 48.8406 64.3869 51.6656 64.0066 53.2955C63.6807 54.9796 63.4634 58.2936 63.572 60.9013C63.7893 64.8673 64.1153 66.1168 65.8538 69.8654C66.9947 72.2558 68.7331 75.1352 69.6567 76.3304C70.5803 77.4713 71.7755 78.6122 72.3188 78.8838C72.9707 79.2098 73.6226 79.0468 74.3289 78.3949C75.2525 77.6343 75.3068 77.254 74.7635 76.3847C74.4376 75.7871 73.2967 74.2116 72.2644 72.8534C71.2322 71.4952 69.9827 69.4308 69.4394 68.2356C68.9505 67.0404 68.2442 64.2153 67.8639 61.9879C67.3206 58.5653 67.3749 57.3157 68.0812 54.219C68.5702 52.2089 69.3307 49.7642 69.8197 48.7863C70.3086 47.8084 71.8298 45.5809 73.188 43.7881C75.0352 41.2891 75.4698 40.3112 75.0895 39.7135C74.7635 39.2789 74.0573 38.79 73.4596 38.7356C72.7534 38.627 71.5582 39.4419 69.9827 41.1804ZM109.316 39.5506C109.099 40.0938 109.207 40.8001 109.479 41.1261C109.696 41.452 110.728 42.8102 111.706 44.1141C112.739 45.4179 114.042 47.8627 114.694 49.4925C115.455 51.557 115.89 54.1647 116.053 57.9133C116.27 62.2052 116.107 63.9437 115.346 66.3341C114.803 67.964 113.173 71.0606 111.761 73.2337C110.294 75.4068 109.153 77.417 109.153 77.7429C109.153 78.0146 109.642 78.5035 110.24 78.8295C110.837 79.1011 111.598 79.2641 111.978 79.1011C112.358 78.9925 113.662 77.5799 114.912 76.0044C116.161 74.4289 117.682 72.0929 118.28 70.789C118.932 69.5395 119.801 67.0947 120.29 65.3562C120.725 63.6721 121.105 60.3037 121.105 57.9133C121.105 54.9253 120.725 52.5349 119.964 50.3074C119.367 48.5146 118.28 46.1785 117.574 45.1463C116.867 44.1141 115.401 42.2126 114.205 40.9631C112.956 39.5506 111.598 38.627 110.891 38.627C110.185 38.627 109.479 39.0073 109.316 39.5506ZM86.9329 50.4161C85.0858 51.3397 83.5646 52.6435 82.8583 53.8387C82.2064 54.9253 81.7718 56.6095 81.7718 57.9133C81.8261 59.1085 82.2064 61.2816 82.6954 62.8028C83.1843 64.2697 84.2709 66.1711 85.0858 66.986C85.9007 67.7466 87.2589 68.6702 88.0738 68.9962C88.8887 69.3221 90.7359 69.5938 92.1484 69.5938C93.8869 69.5938 95.6797 69.1048 97.6355 68.0726C99.2653 67.2577 101.004 65.8452 101.601 64.9759C102.253 63.835 102.579 62.2595 102.579 59.8148C102.579 57.1527 102.253 55.7402 101.384 54.219C100.732 53.0782 99.3196 51.557 98.2874 50.7964C96.9835 49.8728 95.3537 49.3839 93.1263 49.1666C90.2469 48.8949 89.4863 49.0579 86.9329 50.4161ZM89.3233 53.4584C90.1926 53.0782 91.7681 52.8608 92.8546 53.0238C93.8869 53.1868 95.3537 53.7844 96.1143 54.3277C96.8206 54.871 97.7985 56.1205 98.1788 57.1527C98.6134 58.185 98.7764 59.6518 98.6134 60.4667C98.3961 61.2816 97.6355 62.6942 96.9292 63.6177C96.1686 64.5413 94.8104 65.3562 93.9412 65.5192C92.909 65.6822 91.3335 65.3562 89.8666 64.7043C88.2911 63.998 87.0959 63.0201 86.607 61.9879C86.118 61.0643 85.792 59.8691 85.792 59.2715C85.792 58.6739 86.1723 57.2614 86.7156 56.1748C87.2589 54.9796 88.3454 53.8931 89.3233 53.4584ZM298.213 51.6113C296.909 51.8286 296.095 52.3719 295.66 53.2955C295.171 54.2734 295.117 56.6095 295.388 61.4446L295.769 68.2356C309.296 68.4529 311.687 68.2899 312.176 67.801C312.719 67.312 312.882 65.1932 312.882 60.3581C312.882 55.2513 312.665 53.2411 312.067 52.3176C311.306 51.1767 310.872 51.1224 305.656 51.1767C302.614 51.231 299.246 51.394 298.213 51.6113ZM301.582 55.3056C302.831 55.1969 305.059 55.0883 309.079 54.9253V64.7043H299.3V55.4686L301.582 55.3056ZM324.78 51.557C322.824 51.6656 320.922 52.0459 320.542 52.3719C320.053 52.8608 319.836 54.9796 319.89 60.2494C319.89 66.3884 320.053 67.5293 320.868 68.2899C321.629 69.0505 322.878 69.1592 328.691 68.9962C333.852 68.8332 335.808 68.5616 336.46 67.9639C337.166 67.312 337.384 65.7908 337.438 60.1951C337.547 53.3498 337.547 53.1868 336.188 52.1546C335.156 51.3397 334.124 51.1224 331.571 51.231C329.778 51.2853 326.735 51.4483 324.78 51.557ZM327.931 55.3056C329.941 55.1969 332.005 55.0883 332.548 55.034C333.363 54.9253 333.472 55.4142 333.2 64.9759L324.236 65.2476V55.4686L327.931 55.3056ZM346.565 52.2089C345.913 52.5892 345.696 54.2734 345.533 59.9234C345.37 66.2798 345.478 67.2577 346.293 67.9639C347.054 68.6159 348.792 68.7789 354.008 68.7789C360.582 68.7789 360.799 68.7245 361.831 67.4207C362.809 66.2255 362.918 65.4105 362.755 59.3802C362.592 54.219 362.374 52.5892 361.777 52.2089C361.288 51.9373 357.865 51.6656 354.171 51.6656C350.422 51.6656 347 51.9373 346.565 52.2089ZM349.553 55.8489C349.77 55.6316 351.998 55.4686 359.06 55.4686V64.4326L356.996 64.8673C355.855 65.0846 353.682 65.2476 349.281 65.2476L349.173 60.7384C349.118 58.2393 349.281 56.0119 349.553 55.8489ZM349.118 77.1453C347.652 77.3083 346.293 77.8516 345.967 78.2862C345.696 78.7208 345.478 82.2521 345.478 86.0551C345.478 91.4878 345.641 93.1177 346.293 93.7696C346.891 94.4215 348.575 94.5845 353.736 94.5845C358.68 94.5845 360.69 94.4215 361.505 93.8239C362.483 93.1177 362.592 92.4114 362.592 85.7291C362.592 80.0247 362.374 78.2862 361.777 77.5256C361.07 76.765 360.038 76.6564 356.344 76.7107C353.791 76.765 350.531 76.9823 349.118 77.1453ZM349.553 81.3829C349.77 81.1656 351.998 81.0026 359.06 81.0026V90.7816H349.281L349.173 86.2724C349.118 83.7733 349.281 81.5459 349.553 81.3829ZM324.291 77.5799C322.878 77.6886 321.466 78.1232 321.031 78.6122C320.325 79.3728 320.216 80.9483 320.379 86.6527C320.433 90.5643 320.705 93.9326 320.922 94.1499C321.085 94.3672 324.345 94.7475 328.094 94.9648L334.885 95.3451C337.818 92.4114 337.873 92.4114 337.71 85.5661C337.601 79.4814 337.438 78.6665 336.514 77.9602C335.699 77.417 334.124 77.1997 331.082 77.3083C328.691 77.3626 325.594 77.4713 324.291 77.5799ZM324.291 81.4915L333.798 81.8175L334.07 91.3249H331.19C329.615 91.3249 327.442 91.1619 324.236 90.5099L324.291 86.0007V81.4915ZM297.018 78.1232C296.529 78.2319 295.877 79.1554 295.497 80.079C295.062 81.2742 295.008 83.719 295.28 87.9565L295.714 94.0956C298.648 94.9105 301.636 95.1278 304.244 95.1278C306.906 95.1278 309.676 94.8561 310.491 94.5302C311.361 94.2042 312.176 93.6609 312.393 93.335C312.61 92.9547 312.827 89.695 312.827 86.0551C312.827 80.8396 312.665 79.2098 312.013 78.5578C311.361 77.9059 309.785 77.7429 304.515 77.7972C300.875 77.8516 297.507 77.9602 297.018 78.1232ZM299.246 81.5459H309.025V90.7816H299.246V86.1637V81.5459ZM183.528 144.403C183.039 144.512 182.387 145.164 182.115 145.816C181.789 146.467 181.68 147.608 181.898 148.369C182.169 149.51 182.55 149.727 184.342 149.727C186.461 149.727 186.516 149.673 186.679 147.554C186.787 145.924 186.624 145.218 185.864 144.675C185.32 144.294 184.777 144.023 184.614 144.077C184.451 144.131 183.962 144.24 183.528 144.403ZM165.328 145.544C164.785 146.087 164.35 147.011 164.404 147.608C164.459 148.152 164.785 148.967 165.165 149.347C165.545 149.727 166.577 149.999 167.501 150.053C168.37 150.053 169.565 149.618 170.054 149.075C170.598 148.532 171.032 147.663 171.032 147.174C171.032 146.63 170.652 145.816 170.217 145.381C169.783 144.946 168.696 144.566 167.827 144.566C167.012 144.566 165.871 145.001 165.328 145.544ZM148.432 146.196C147.454 147.282 147.454 147.445 148.215 148.804C148.704 149.618 149.573 150.325 150.116 150.433C150.714 150.542 151.746 150.216 152.398 149.781C153.321 149.13 153.593 148.478 153.484 147.174C153.376 145.544 153.213 145.381 151.42 145.218C150.007 145.109 149.247 145.381 148.432 146.196ZM227.913 177.489C226.99 177.815 225.686 178.847 224.98 179.825C224.328 180.748 223.621 182.324 223.458 183.302C223.295 184.225 223.187 197.753 223.295 213.345L223.458 241.65C225.957 244.909 227.696 246.267 228.891 246.756C230.901 247.571 235.791 247.626 295.171 247.3L359.278 246.974C363.461 244.855 365.199 243.442 365.906 242.356L367.155 240.454L367.21 182.867C365.254 179.988 364.004 178.629 363.189 178.032L361.614 176.891C248.286 176.891 229.109 177.054 227.913 177.489ZM229.978 180.694H359.441L361.016 181.835C361.831 182.487 362.863 183.573 363.189 184.28C363.733 185.257 363.896 191.94 363.896 211.28C363.896 231.708 363.733 237.303 363.135 238.716C362.755 239.639 361.885 240.943 361.179 241.541C360.038 242.573 358.952 242.627 333.255 242.953C318.586 243.171 289.575 243.388 268.822 243.497C234.378 243.714 230.956 243.66 229.706 242.79C228.946 242.302 228.022 241.215 227.642 240.346C227.098 239.151 226.99 232.577 227.261 183.03L228.62 181.889L229.978 180.694ZM154.951 179.281C154.082 179.825 152.724 181.129 151.963 182.106L150.659 183.954C150.985 291.631 151.094 295.434 151.963 297.498C152.506 298.694 153.539 300.215 154.245 300.867C154.951 301.519 156.527 302.442 157.722 302.877C159.515 303.529 163.372 303.583 179.996 303.366C195.371 303.149 200.641 302.931 202.379 302.334C203.9 301.845 205.367 300.758 206.617 299.237C207.866 297.716 208.681 296.032 209.007 294.239C209.279 292.718 209.605 267.292 209.714 237.629L209.876 183.736C208.084 181.346 206.78 180.096 205.748 179.444L203.9 178.195C157.994 178.249 156.527 178.303 154.951 179.281ZM156.255 182.976C157.016 182.106 158.808 182.052 202.542 182.052L205.802 185.312V238.933C205.748 291.251 205.748 292.663 204.715 294.891C204.118 296.195 202.977 297.661 202.162 298.15C200.858 299.02 198.631 299.128 181.083 299.291C170.326 299.346 160.982 299.291 160.275 299.128C159.623 298.965 158.32 298.205 157.45 297.498C156.201 296.466 155.766 295.543 155.549 293.804C155.44 292.555 155.168 268.65 155.006 240.726C154.788 212.747 154.517 189.169 154.354 188.3C154.191 187.376 154.354 186.018 154.734 185.312C155.114 184.551 155.766 183.519 156.255 182.976ZM236.117 259.686C227.424 259.958 226.99 260.067 225.632 261.371C224.817 262.185 224.056 263.761 223.73 265.282C223.404 266.695 223.187 274.355 223.187 282.287C223.187 293.858 223.35 297.009 224.002 298.585C224.436 299.617 225.251 300.704 225.74 300.921C226.283 301.193 230.032 301.519 234.052 301.627C238.073 301.736 245.515 301.736 250.622 301.627C255.675 301.519 260.401 301.247 261.053 300.975C261.759 300.704 262.737 299.78 263.226 299.02C264.096 297.661 264.204 295.597 264.313 279.733L264.476 261.914C261.053 259.523 260.293 259.469 253.067 259.415C248.721 259.36 241.115 259.469 236.117 259.686ZM227.859 264.359C228.131 263.652 230.467 263.544 260.673 263.544L260.51 279.842C260.401 295.488 260.347 296.249 259.315 297.009C258.445 297.607 256.001 297.77 247.906 297.77C242.201 297.77 235.302 297.553 227.533 296.955V281.037C227.533 272.29 227.642 264.793 227.859 264.359ZM284.794 259.686C279.579 259.904 277.406 260.23 276.7 260.827C276.156 261.262 275.45 262.24 275.07 263C274.526 263.978 274.309 268.976 274.146 281.309L273.983 298.259L276.971 301.301C292.346 301.79 299.843 301.845 303.592 301.682C307.666 301.519 310.98 301.138 311.85 300.649C312.665 300.269 313.642 299.4 314.023 298.694C314.457 297.879 314.729 292.174 314.946 280.657C315.164 266.26 315.055 263.598 314.349 262.457C313.914 261.697 312.665 260.664 311.578 260.121C309.894 259.306 308.155 259.197 300.712 259.306C295.877 259.36 288.706 259.523 284.794 259.686ZM278.601 263.544H311.198L310.817 280.222C310.654 289.404 310.383 297.064 310.274 297.227C310.111 297.335 304.57 297.553 297.942 297.661C291.368 297.716 284.251 297.607 278.384 296.955L278.166 281.743C278.003 273.377 278.058 265.825 278.275 265.01L278.601 263.544ZM327.061 261.099C326.355 261.534 325.595 262.837 325.269 263.978C324.997 265.119 324.78 272.779 324.78 281.472C324.834 290.001 324.997 297.553 325.214 298.259C325.377 298.965 326.246 300.052 327.061 300.704C328.528 301.79 329.343 301.845 344.718 302.062L360.853 302.279C364.656 298.965 365.145 298.042 365.525 295.869C365.743 294.402 365.96 286.253 366.014 277.832C366.014 263.163 365.96 262.403 364.928 261.371C363.896 260.338 363.135 260.284 346.076 260.284C331.082 260.284 328.094 260.393 327.061 261.099ZM329.234 264.739C329.615 264.25 333.309 264.087 361.94 264.359V280.548C361.94 296.14 361.885 296.792 360.853 297.553C359.984 298.205 357.105 298.313 345.913 298.313C338.307 298.313 331.245 298.15 328.474 297.498L328.637 281.472C328.746 272.671 329.017 265.119 329.234 264.739ZM445.604 306.028C440.009 306.408 438.053 306.734 436.151 307.712C434.793 308.364 432.294 310.265 430.61 311.895C428.926 313.525 426.916 316.133 426.264 317.6C425.014 320.207 424.96 320.914 424.96 331.997V343.731C427.894 349.762 429.306 351.663 430.827 352.913C432.077 353.945 434.413 355.303 435.988 355.901C438.161 356.716 440.117 356.987 444.246 356.987H449.679C452.993 363.126 454.46 365.571 455.057 366.386C455.709 367.201 456.742 367.853 457.448 367.907C458.208 367.907 459.621 366.875 461.359 365.028C462.881 363.452 465.108 361.008 466.249 359.541L468.422 356.933C475.159 356.987 478.418 356.661 479.994 356.172C482.004 355.575 483.688 354.543 485.861 352.532C487.6 350.848 489.501 348.403 490.37 346.665C491.783 343.731 491.783 343.568 491.783 331.453C491.783 320.153 491.729 319.067 490.642 316.785C489.99 315.427 488.523 313.253 487.328 311.895C486.133 310.537 483.742 308.744 481.95 307.875C479.776 306.734 477.495 306.137 474.67 305.865C472.442 305.648 466.575 305.485 461.631 305.485C456.687 305.539 449.516 305.756 445.604 306.028ZM453.482 309.722C459.295 309.505 466.792 309.342 470.052 309.451C474.778 309.559 476.626 309.831 478.744 310.754C480.265 311.406 482.276 312.765 483.308 313.688C484.286 314.666 485.753 316.676 486.513 318.143C487.926 320.805 487.926 321.077 487.817 330.095C487.763 335.202 487.545 340.58 487.382 342.047C487.111 343.731 486.35 345.687 485.318 347.208C484.394 348.512 482.439 350.359 480.917 351.283C478.473 352.75 477.658 352.913 472.768 353.076C469.78 353.184 466.847 353.347 466.249 353.456C465.597 353.565 463.75 355.792 461.685 358.726C458.208 363.778 458.208 363.778 457.339 362.529C456.85 361.822 455.492 359.486 452.124 353.456L445.604 353.184C439.737 352.967 438.813 352.75 436.532 351.446C435.119 350.631 433.326 349.164 432.62 348.186C431.914 347.208 430.882 345.524 430.393 344.492C429.632 343.025 429.306 340.58 428.98 333.626C428.654 326.564 428.708 324.119 429.306 321.946C429.741 320.479 430.827 318.089 431.751 316.676C432.783 315.046 434.359 313.525 435.988 312.602C437.401 311.787 439.52 310.917 440.715 310.646C441.91 310.374 447.669 309.939 453.482 309.722ZM75.0895 308.255C74.9265 308.907 74.9808 310.157 75.2525 311.026C75.4698 311.895 76.0674 312.873 76.6107 313.199C77.2626 313.634 77.8059 313.634 78.5121 313.199C79.0554 312.819 79.49 311.787 79.5987 310.483C79.653 309.342 79.4357 308.038 79.0554 307.658C78.6751 307.277 77.6972 306.951 76.8823 307.006C75.7957 307.006 75.3068 307.332 75.0895 308.255ZM179.453 352.532C178.747 353.239 178.638 354.054 178.855 356.064C179.127 358.345 179.29 358.617 180.485 358.617C181.463 358.617 182.006 358.182 182.387 357.259C182.713 356.498 182.93 355.249 182.93 354.434C182.93 353.619 182.658 352.587 182.278 352.206C181.898 351.88 181.3 351.554 180.974 351.554C180.648 351.554 179.996 351.989 179.453 352.532ZM105.948 433.861C105.241 434.296 104.318 435.491 103.829 436.469C103.231 437.664 103.068 438.913 103.286 440.38C103.449 441.738 104.155 443.151 105.078 444.075C105.948 444.889 107.36 445.704 108.229 445.922C109.153 446.085 110.565 446.085 111.38 445.867C112.25 445.704 113.282 444.835 113.934 443.803C114.531 442.825 115.02 441.25 115.02 440.272C115.02 439.294 114.64 437.61 114.205 436.577C113.771 435.491 112.684 434.35 111.761 433.861C110.891 433.426 109.479 433.046 108.664 433.046C107.849 433.046 106.6 433.426 105.948 433.861ZM107.089 438.37C107.251 437.827 107.958 437.392 108.61 437.392C109.316 437.392 110.185 437.718 110.565 438.044C110.946 438.424 111.272 439.239 111.272 439.837C111.272 440.435 110.891 441.25 110.457 441.63C109.968 442.01 109.099 442.173 108.501 442.01C107.903 441.847 107.251 441.195 107.089 440.543C106.926 439.837 106.871 438.859 107.089 438.37ZM330 194C329 194.5 328.786 195.013 328 196C327.5 196.5 326 197.5 325.812 197.916C325.624 198.332 324.236 199.22 322.552 200.578C320.922 201.882 316.196 206.011 311.958 209.705C307.775 213.399 304.298 216.659 304.244 216.93C304.135 217.148 303.483 217.365 302.723 217.365C301.745 217.365 301.093 216.822 300.278 215.464C299.626 214.323 298.376 213.236 297.181 212.693C295.497 211.987 294.736 211.932 293.107 212.421C291.966 212.747 290.444 213.616 289.684 214.377C288.706 215.355 288 215.627 287.13 215.409C286.424 215.192 282.839 213.616 279.09 211.932L272.299 208.781C271.864 205.522 271.321 203.892 270.832 203.077C270.289 202.262 269.202 201.175 268.387 200.686C267.573 200.198 265.888 199.763 264.693 199.763C263.498 199.763 261.868 200.198 261.053 200.686C260.238 201.175 259.043 202.425 258.445 203.403C257.522 204.761 257.359 205.739 257.576 207.858L257.848 210.574C242.69 224.482 238.344 228.883 238.344 229.317C238.344 229.752 238.67 230.458 239.05 230.838C239.376 231.219 240.028 231.49 240.409 231.49C240.789 231.49 245.515 227.361 251.003 222.309C258.554 215.301 261.108 213.236 261.705 213.617C262.14 213.888 263.498 214.105 264.693 214.105C265.888 214.105 267.355 213.779 267.953 213.345C268.55 212.856 269.365 212.53 269.746 212.476C270.126 212.476 273.603 213.997 277.514 215.898C282.621 218.343 283 219 285 220C287 221 286.695 220.618 287 221C287.85 221.553 287.5 221.5 288.054 222.146C288.163 222.635 289.141 223.884 290.227 224.862C291.694 226.221 292.618 226.601 294.302 226.601C295.497 226.601 297.235 226.221 298.105 225.786C299.028 225.351 300.223 224.102 300.821 223.07C301.853 221.277 302.071 221.168 304.896 221.168C306 221 306.819 221.168 307.884 220.081C308.5 219.5 311.795 215.572 319.836 208.401L331.788 197.807C344.012 197.807 348.032 197.59 348.629 197.264C349.227 196.992 349.716 196.232 349.716 195.634C349.716 195.036 349.227 194.33 348.629 194.004C348.032 193.678 343.251 193.461 337.655 193.515C332.168 193.515 331 193.5 330 194ZM262.52 204.978C263.009 204.326 263.878 203.783 264.476 203.783C265.019 203.783 265.997 204.326 266.595 205.033C267.247 205.685 267.736 206.554 267.681 206.934C267.681 207.314 267.192 208.075 266.595 208.673C265.997 209.27 265.345 209.759 265.128 209.759C264.91 209.814 264.041 209.325 263.226 208.673C262.411 208.075 261.705 207.26 261.651 206.88C261.651 206.5 262.031 205.685 262.52 204.978ZM292.672 217.474C293.107 217.148 294.03 216.822 294.682 216.822C295.443 216.822 296.312 217.419 296.909 218.234C297.67 219.375 297.724 219.81 297.181 220.951C296.801 221.657 295.986 222.255 295.388 222.255C294.791 222.255 293.813 222.037 293.215 221.711C292.563 221.385 292.074 220.57 292.02 219.647C291.966 218.832 292.237 217.854 292.672 217.474ZM173.151 197.807C169.402 198.024 166.088 198.35 165.708 198.568C165.328 198.731 165.002 199.383 165.002 199.98C165.002 200.578 165.382 201.175 165.817 201.338C166.251 201.501 172.608 201.61 179.942 201.61C187.765 201.61 193.687 201.393 194.339 201.067C194.936 200.795 195.425 200.035 195.425 199.437C195.425 198.839 194.936 198.133 194.339 197.807C193.741 197.535 190.264 197.318 186.624 197.372C182.93 197.372 176.9 197.59 173.151 197.807ZM177.389 216.822C169.348 217.039 165.925 217.311 165.436 217.8C164.893 218.343 164.893 218.723 165.328 219.43C165.871 220.244 167.392 220.353 179.996 220.516C192.22 220.679 194.176 220.57 194.773 219.864C195.154 219.375 195.317 218.56 195.208 218.071C195.045 217.528 194.393 216.93 193.687 216.713C193.035 216.496 191.568 216.333 190.536 216.387C189.504 216.442 183.582 216.659 177.389 216.822ZM169.511 236.76C166.74 236.923 165.98 237.14 165.545 238.01C165.165 238.825 165.219 239.313 165.817 239.911C166.523 240.617 168.805 240.726 180.594 240.617C193.361 240.454 194.556 240.4 195.099 239.476C195.588 238.662 195.48 238.281 194.339 237.412C193.089 236.434 192.22 236.325 182.93 236.488C177.389 236.543 171.358 236.651 169.511 236.76ZM447.669 328.357C447.017 328.737 446.148 329.66 445.713 330.367C445.115 331.345 445.061 332.16 445.387 333.246C445.659 334.061 446.365 334.985 446.963 335.256C447.56 335.582 448.647 335.799 449.407 335.799C450.277 335.799 451.309 335.202 452.124 334.17C452.884 333.3 453.482 332.323 453.482 331.997C453.482 331.725 453.156 330.801 452.776 329.986C452.341 329.172 451.635 328.302 451.146 328.085C450.657 327.868 449.951 327.65 449.57 327.65C449.19 327.65 448.321 327.976 447.669 328.357ZM465.869 328.357C465.38 328.737 464.728 329.606 464.402 330.367C464.021 331.345 464.13 332.16 464.728 333.355C465.162 334.278 465.814 335.148 466.14 335.365C466.521 335.636 467.498 335.799 468.313 335.799C469.291 335.799 470.215 335.256 471.138 334.17C471.899 333.3 472.497 332.051 472.497 331.453C472.497 330.856 471.899 329.769 471.138 329.008C470.378 328.194 469.183 327.65 468.259 327.65C467.444 327.65 466.358 327.976 465.869 328.357Z"
          fill="white"
          style="fill: white; fill-opacity: 1"
        />
      </svg>