 <svg
        width="511"
        height="464"
        viewBox="0 0 511 464"
        fill="none"
        xmlns="http://www.w3.org/2000/svg"
      >
        <path
          d="M275.223 8.34291C275.167 4.10892 275.393 0.49592 275.618 0.270107C275.9 0.0442944 276.803 -0.0686128 277.593 0.0442935C278.779 0.213653 279.004 0.552374 279.174 2.47178C279.286 3.71375 279.23 7.60902 279.061 11.1091C278.779 16.4157 278.553 17.4883 277.706 17.827C277.086 18.0529 276.521 17.7706 276.013 17.0932C275.562 16.3781 275.299 13.4613 275.223 8.34291Z"
        />
        <path
          d="M307.842 20.311C309.083 18.6174 311.227 16.0205 312.638 14.4963C314.049 13.0285 315.404 11.7866 315.742 11.7866C316.024 11.7301 316.645 12.1253 317.097 12.6334C317.83 13.4237 317.661 13.8753 315.46 17.0367C314.049 18.9561 312.018 21.6094 310.945 22.9643C309.647 24.4885 308.462 25.3353 307.672 25.3353C306.939 25.3353 306.205 24.8837 306.036 24.3756C305.81 23.6982 306.487 22.2868 307.842 20.311Z"
        />
        <path
          d="M237.3 14.8915C236.849 13.9882 236.623 13.0285 236.736 12.8027C236.905 12.5204 237.583 12.3511 238.26 12.3511C238.993 12.4075 240.404 13.3672 241.646 14.7786C242.887 16.077 244.975 18.6738 246.386 20.5368C247.74 22.3997 248.813 24.3192 248.7 24.7708C248.587 25.2224 247.966 25.674 247.233 25.7869C246.273 25.8434 245.088 24.8272 242.041 21.2707C239.896 18.6738 237.752 15.8512 237.3 14.8915Z"
        />
        <path
          d="M212.978 43.9649C212.809 43.6261 212.809 43.0052 212.978 42.5535C213.091 42.1019 213.655 41.7067 214.219 41.7067C214.784 41.7067 216.646 42.1584 218.339 42.7793C220.032 43.3439 222.91 44.4729 224.716 45.3197C226.465 46.1101 228.102 47.1827 228.384 47.6343C228.61 48.1988 228.44 48.8763 227.933 49.3844C227.199 50.1183 226.578 50.0618 222.854 48.7069C220.54 47.8601 217.436 46.6181 215.969 45.8843C214.445 45.1504 213.147 44.3036 212.978 43.9649Z"
        />
        <path
          d="M327.537 47.4085C328.157 46.7875 330.923 45.2633 333.744 44.0213C336.566 42.7793 339.5 41.7067 340.403 41.7067C341.25 41.7067 342.04 42.0454 342.209 42.5535C342.378 43.0052 342.04 43.739 341.532 44.1907C340.968 44.6423 338.09 46.1665 335.155 47.5779C332.221 49.0456 329.512 50.1747 329.23 50.1747C328.947 50.1747 328.157 49.836 326.408 48.5376L327.537 47.4085Z"
        />
        <path
          d="M328.327 78.8529C328.27 78.4577 328.609 77.8368 329.004 77.4416C329.455 77.1029 330.076 76.7641 330.415 76.7641C330.753 76.7641 333.688 77.4416 336.904 78.2319C340.178 79.0223 343.169 79.982 343.564 80.3771C343.959 80.7159 344.297 81.4498 344.297 82.0143C344.297 82.5224 343.789 83.1433 343.281 83.3692C342.717 83.5385 340.234 83.3127 337.751 82.7482C335.268 82.1836 332.164 81.2804 330.866 80.6594C329.512 80.0949 328.383 79.2481 328.327 78.8529Z"
        />
        <path
          d="M210.608 80.8852C211.003 80.4901 213.768 79.5868 216.702 78.7965C219.693 78.0061 222.854 77.4416 223.756 77.498C225.054 77.6109 225.506 77.9497 225.619 78.9094C225.732 79.8691 225.28 80.3771 223.644 81.111C222.459 81.5627 219.637 82.4095 217.267 82.8611C214.953 83.3127 212.357 83.5385 211.511 83.3692C210.664 83.1433 209.93 82.6917 209.93 82.2965C209.93 81.9014 210.213 81.2804 210.608 80.8852Z"
        />
        <path
          d="M90.0105 125.257C93.4529 114.87 96.726 105.273 97.2903 103.918C97.9675 102.394 98.7011 101.547 99.3219 101.547C99.8862 101.547 100.62 101.773 101.015 102.055C101.523 102.45 101.523 103.354 100.846 106.12C100.338 108.096 97.4596 117.241 94.3558 126.387C91.3084 135.532 88.3175 144.282 87.6967 145.863C87.1324 147.387 86.2295 148.911 85.778 149.25C85.1572 149.645 84.6493 149.532 83.9721 148.968C83.2385 148.347 83.1256 147.613 83.4078 146.145C83.6335 145.073 86.5681 135.645 90.0105 125.257Z"
        />
        <path
          d="M90.594 259L107.517 275.594L90.9226 292.517L74 275.923L90.594 259Z"
        />
        <path
          d="M483 126C483 131.523 478.523 136 473 136C467.477 136 463 131.523 463 126C463 120.477 467.477 116 473 116C478.523 116 483 120.477 483 126Z"
        />
        <path
          d="M428 151C428 153.761 425.761 156 423 156C420.239 156 418 153.761 418 151C418 148.239 420.239 146 423 146C425.761 146 428 148.239 428 151Z"
        />
        <path
          d="M444 350.5C444 352.985 441.985 355 439.5 355C437.015 355 435 352.985 435 350.5C435 348.015 437.015 346 439.5 346C441.985 346 444 348.015 444 350.5Z"
        />
        <path
          d="M405 290C405 292.761 402.761 295 400 295C397.239 295 395 292.761 395 290C395 287.239 397.239 285 400 285C402.761 285 405 287.239 405 290Z"
        />
        <path
          d="M485 290.5C485 293.538 482.538 296 479.5 296C476.462 296 474 293.538 474 290.5C474 287.462 476.462 285 479.5 285C482.538 285 485 287.462 485 290.5Z"
        />
        <path
          d="M409 417C409 419.761 406.761 422 404 422C401.239 422 399 419.761 399 417C399 414.239 401.239 412 404 412C406.761 412 409 414.239 409 417Z"
        />
        <path
          d="M467 451C467 453.761 464.761 456 462 456C459.239 456 457 453.761 457 451C457 448.239 459.239 446 462 446C464.761 446 467 448.239 467 451Z"
        />
        <path
          d="M466 392.5C466 395.538 463.538 398 460.5 398C457.462 398 455 395.538 455 392.5C455 389.462 457.462 387 460.5 387C463.538 387 466 389.462 466 392.5Z"
        />
        <path
          d="M46 370H82L83 382L95 383V395.5L82 397.5L85 401L84.5 407.5L83.5 410.5H74L72.5 409.5L74 406V396H46V370Z"
        />
        <path
          fill-rule="evenodd"
          clip-rule="evenodd"
          d="M268 26.3677C265.968 26.8193 262.921 27.6661 261.228 28.3436C259.535 28.9645 257.221 30.0372 256.149 30.7146C255.077 31.3356 252.537 33.1421 250.562 34.7228C248.531 36.3035 245.54 39.239 243.847 41.2713C242.21 43.3036 240.009 46.7473 238.937 48.8925C237.921 51.0377 236.623 54.8765 236.059 57.3605C235.325 60.8606 235.156 63.4574 235.438 68.6511C235.607 73.4496 236.059 76.4981 236.962 79.095C237.639 81.1273 238.937 84.1757 239.896 85.8693C240.856 87.5629 243.564 91.2888 245.878 94.055C248.192 96.8213 251.183 100.773 252.537 102.805C253.892 104.838 255.472 107.886 256.093 109.58C256.657 111.273 257.334 113.757 257.503 115.112C257.842 117.37 257.729 117.54 255.867 118.782C253.948 120.023 253.892 120.08 253.892 124.145C253.892 126.346 254.117 128.83 254.456 129.621C254.795 130.411 255.867 131.371 256.883 131.822C258.181 132.387 258.801 133.121 259.14 134.363C259.366 135.322 260.494 137.129 261.679 138.427C262.808 139.669 265.291 141.476 267.153 142.379C270.426 144.016 270.765 144.073 277.311 143.903C283.18 143.734 284.422 143.564 286.905 142.322C288.429 141.532 290.742 139.895 292.04 138.653C293.508 137.242 294.523 135.548 294.862 134.137C295.257 132.443 295.708 131.822 296.668 131.766C297.345 131.653 298.417 130.919 299.038 130.072C299.941 128.83 300.223 127.645 300.167 124.822C300.167 121.774 299.884 120.814 298.587 118.951C297.063 116.806 297.063 116.749 297.796 113.306C298.248 111.443 299.264 108.338 300.167 106.475C301.013 104.612 304.399 99.531 307.729 95.1841C311.058 90.8372 314.613 85.4742 315.686 83.3289C316.758 81.1837 317.943 77.853 318.282 75.99C318.677 73.9013 318.79 69.8366 318.62 65.5462C318.394 60.2396 317.943 57.3605 316.871 53.9733C316.081 51.3764 314.275 47.6505 312.695 45.2231C311.171 42.7956 308.011 39.1826 305.471 36.868C302.706 34.3276 299.32 31.9001 296.499 30.4323C294.015 29.1904 289.557 27.4968 286.623 26.7629C282.898 25.8596 279.794 25.4645 276.465 25.5209C273.812 25.5209 270.031 25.9161 268 26.3677ZM269.129 31.1662C271.16 30.9404 275.449 30.771 278.722 30.8275C283.632 30.9404 285.494 31.2791 289.444 32.634C292.097 33.5373 295.765 35.2873 297.571 36.5293C299.433 37.7148 302.593 40.5375 304.625 42.7391C306.939 45.2231 309.196 48.3844 312.864 55.6669C314.15 59.9804 314.534 62.4507 314.5 67C314.594 71.5552 314.173 73.984 312.864 78.3046L311.002 81.9741C309.986 83.9499 306.6 88.9178 303.44 92.926C300.336 96.9906 297.289 101.225 296.724 102.41C296.104 103.539 295.596 104.951 295.483 105.515C295.37 106.023 295.031 106.983 294.693 107.604C294.354 108.225 293.733 110.426 293.282 112.572C292.605 116.015 292.435 116.354 291.137 116.354C290.347 116.354 288.034 116.523 282.108 117.201V88.692H289.727L292.605 85.7C294.975 83.2725 295.539 82.3128 295.934 79.9417C296.273 77.6836 296.16 76.6675 295.313 74.861C294.523 73.2238 293.508 72.2077 291.702 71.3044C289.952 70.4012 288.598 70.0625 287.469 70.2883C286.566 70.4576 284.76 71.3044 283.519 72.2077C282.277 73.0545 280.697 74.9174 280.02 76.2723C278.779 78.7562 278.722 79.2643 278.722 97.6116C278.722 115.959 278.722 116.354 277.593 116.354C276.465 116.354 276.465 115.959 276.465 78.8127L274.828 75.99C273.756 74.0706 272.515 72.8287 271.047 72.0383C269.693 71.3609 267.718 70.9092 265.912 70.9092C263.824 70.9092 262.526 71.248 261.397 72.0948C260.551 72.7157 259.309 74.24 258.745 75.482C257.729 77.5707 257.729 77.853 258.576 80.5063C259.083 82.1434 260.381 84.2887 261.623 85.6435C263.147 87.2807 264.388 88.0146 266.025 88.2968C267.266 88.5226 269.354 88.692 273.079 88.692V116.919H262.074L261.736 113.418C261.567 111.104 260.776 108.394 259.479 105.628C258.406 103.313 255.98 99.4181 254.117 96.9906C252.312 94.5631 249.546 91.0066 248.079 89.0872C246.555 87.1678 244.467 83.7806 243.395 81.6353C242.379 79.4901 241.251 76.2723 240.912 74.5787C240.573 72.8851 240.348 68.9334 240.348 65.8285C240.348 62.5542 240.686 58.7718 241.194 56.796C241.702 54.933 243 51.7716 244.129 49.7393C245.201 47.707 247.176 44.8279 248.474 43.2472C249.828 41.723 252.142 39.4648 253.666 38.3358C255.19 37.2067 258.463 35.2309 260.946 33.9889C263.956 32.4458 266.683 31.5049 269.129 31.1662ZM264.05 76.3852C264.501 75.99 265.291 75.7078 265.855 75.7078C266.42 75.7078 267.774 76.5546 268.903 77.5707C270.37 78.8691 270.991 80.0547 271.273 81.8047C271.668 84.0064 271.555 84.1757 270.426 84.1757C269.693 84.1757 268.282 83.837 267.323 83.4418C266.307 82.9902 265.009 81.9741 264.501 81.1837C263.937 80.3369 263.429 79.095 263.372 78.3611C263.316 77.6272 263.598 76.7804 264.05 76.3852ZM287.131 76.3288C287.639 75.99 288.372 75.7078 288.767 75.7078C289.106 75.7078 289.727 76.2723 290.065 77.0062C290.573 77.9659 290.573 78.6998 289.952 80.1676C289.501 81.1837 288.372 82.5386 287.469 83.1031C286.566 83.6677 285.325 84.1757 284.817 84.1757C283.97 84.1757 283.858 83.837 284.14 82.087C284.365 80.9015 284.93 79.2643 285.381 78.4175C285.833 77.5707 286.623 76.611 287.131 76.3288ZM259.535 122.451C260.664 121.717 263.824 121.548 276.465 121.491C287.808 121.435 292.492 121.604 293.846 122.112C295.313 122.677 295.652 123.185 295.652 124.427C295.652 125.387 295.257 126.177 294.523 126.516C293.846 126.854 286.453 127.08 258.406 127.08L258.293 125.161C258.181 123.636 258.406 123.072 259.535 122.451ZM265.348 131.935C266.025 131.822 271.724 131.709 278.045 131.653C285.155 131.653 289.557 131.822 289.727 132.161C289.896 132.5 289.614 133.516 289.162 134.419C288.711 135.322 287.639 136.564 286.792 137.072C285.889 137.637 284.704 138.145 284.083 138.201C283.462 138.314 281.036 138.54 278.722 138.71C276.296 138.935 273.135 138.822 271.273 138.427C268.903 137.976 267.436 137.298 266.025 136C264.952 134.984 264.106 133.685 264.05 133.177C264.05 132.556 264.557 132.104 265.348 131.935ZM416.983 34.6663C416.193 35.4002 415.29 36.9809 415.008 38.1664C414.443 40.3116 414.274 40.4245 410.493 41.6101L406.543 42.852C403.495 40.7633 401.859 40.1423 400.956 40.1423C399.658 40.1423 398.416 41.0455 394.974 44.5456C392.604 46.9167 390.516 49.5135 390.346 50.3038C390.177 51.0942 390.29 52.2233 390.629 52.8442C390.911 53.4652 391.814 54.5943 392.547 55.3846L393.902 56.796C391.757 61.1993 390.798 62.7235 390.403 63.0623C389.951 63.401 388.653 63.8526 387.525 64.0784C386.34 64.2478 384.76 65.0381 383.97 65.8285C382.672 67.1269 382.559 67.5785 382.559 73.1674C382.559 78.5304 382.672 79.2079 383.857 80.5063C384.59 81.4095 385.945 82.087 387.355 82.3128C388.597 82.4821 389.951 82.9338 390.403 83.2725C390.798 83.6112 391.644 84.8532 392.209 86.0387C392.829 87.1678 393.281 88.5226 393.281 88.9743C393.281 89.4259 392.66 90.6114 391.87 91.5146C390.967 92.5873 390.459 93.8857 390.459 95.0712C390.516 96.5954 391.249 97.668 395.143 101.507C398.134 104.499 400.222 106.136 401.069 106.192C401.746 106.192 402.987 105.854 403.89 105.402C404.737 105.007 405.753 104.217 406.148 103.709C406.768 102.862 407.163 102.918 410.549 104.386C412.637 105.233 414.387 106.192 414.5 106.475C414.556 106.813 414.782 107.717 414.951 108.62C415.121 109.467 415.967 110.935 416.87 111.951L418.394 113.701C430.47 113.023 432.163 112.741 432.953 111.951C433.461 111.443 434.251 109.975 434.703 108.733C435.323 106.757 435.888 106.249 439.161 104.668L442.942 102.805C445.764 104.951 447.287 105.628 448.19 105.628C449.375 105.628 449.657 105.854 449.375 106.644C449.15 107.152 448.867 108.112 448.754 108.733C448.585 109.41 449.037 110.596 449.94 111.725L451.407 113.531C449.488 117.257 448.755 117.878 447.062 118.33C445.707 118.725 444.635 119.459 444.24 120.306C443.845 121.096 443.506 123.467 443.506 125.669C443.45 128.774 443.732 129.959 444.635 131.201C445.256 132.048 446.328 132.895 447.062 133.064C447.739 133.29 448.754 133.855 449.319 134.363C449.883 134.871 450.278 135.774 450.278 136.395C450.278 137.016 449.883 138.032 449.432 138.653C448.924 139.274 448.585 140.177 448.585 140.629C448.529 141.081 449.319 142.548 450.278 143.903C451.238 145.258 453.269 147.008 454.962 147.911C457.671 149.492 458.009 149.549 459.477 148.758C460.323 148.307 461.678 148.024 462.524 148.137C463.709 148.194 464.33 148.758 465.064 150.395C465.628 151.524 466.644 152.879 467.377 153.331C468.224 153.895 470.086 154.178 473.134 154.178C477.084 154.178 477.817 154.065 478.89 152.936C479.623 152.202 480.188 151.186 480.188 150.678C480.188 150.113 480.752 149.266 481.486 148.815C482.163 148.363 483.291 147.968 484.025 147.968C484.702 147.968 486 148.419 486.903 148.984L488.54 149.944C493.562 145.992 495.481 144.242 496.102 143.452C496.666 142.661 497.174 141.476 497.117 140.798C497.117 140.064 496.61 138.992 495.989 138.371C495.199 137.58 494.973 136.847 495.199 136C495.424 135.266 495.989 134.25 496.497 133.685C497.005 133.121 497.851 132.669 498.415 132.725C498.98 132.725 500.052 132.104 500.786 131.314C502.027 130.072 502.196 129.395 502.196 125.556C502.253 121.999 502.027 120.87 501.068 119.628C500.391 118.669 499.318 117.991 498.415 117.935C497.287 117.822 496.61 117.257 496.045 116.072C495.368 114.548 495.368 114.152 496.61 112.007C497.795 109.975 497.851 109.467 497.23 108.338C496.835 107.604 495.312 105.797 493.844 104.33C492.377 102.805 490.684 101.45 490.063 101.281C489.443 101.112 488.032 101.281 486.96 101.62C485.887 101.958 484.307 102.241 483.461 102.241C482.558 102.241 481.711 101.902 481.486 101.563C481.203 101.168 480.752 100.096 480.47 99.1358C480.188 98.2326 479.285 97.16 478.495 96.7648C477.705 96.3696 475.334 96.0309 473.134 96.0309C470.933 96.0309 468.562 96.2567 467.829 96.4825C466.926 96.7083 466.079 97.7245 465.402 99.3052C464.838 100.604 463.766 102.015 462.976 102.41C461.79 102.975 461.113 102.918 459.42 102.297C457.784 101.676 456.937 101.676 455.526 102.184C454.511 102.523 453.664 102.692 453.664 102.523C453.664 102.354 454.793 100.829 456.204 99.1358C457.614 97.4422 458.743 95.8051 458.743 95.4664C458.743 95.1841 458.348 93.9421 457.84 92.8131C457.389 91.6276 456.599 90.2162 456.147 89.7082C455.47 88.8049 455.526 88.3533 456.655 85.8129C457.558 83.7241 458.292 82.8773 459.307 82.6515C460.098 82.5386 461.452 82.087 462.355 81.7483C463.258 81.3531 464.33 80.3934 464.725 79.5466C465.233 78.5304 465.515 76.0465 465.515 72.8851C465.515 69.4979 465.233 67.2398 464.669 66.1107C464.104 65.0381 463.258 64.3042 462.298 64.1349C461.395 63.9655 460.098 63.6268 459.364 63.401C458.405 63.1187 457.445 61.9896 456.429 59.9009L454.906 56.796C458.122 53.2394 458.743 51.9974 458.743 50.8684C458.743 49.57 457.897 48.2715 454.849 45.1102C452.705 42.852 450.391 40.6504 449.657 40.1987C448.867 39.8036 447.626 39.5777 446.779 39.8036C445.876 39.9729 444.409 40.7633 443.506 41.5536L441.813 42.9649C435.549 40.481 435.323 40.3116 434.646 37.7712C434.026 35.5131 433.574 34.8921 431.938 34.2147C430.583 33.6502 428.044 33.3679 424.206 33.3679C418.958 33.3679 418.281 33.4808 416.983 34.6663ZM419.409 38.6745C419.579 38.3358 421.497 37.9971 423.98 37.9406C426.351 37.9406 428.777 38.1664 429.398 38.4487C430.245 38.9003 430.527 39.5213 430.47 41.2713C430.414 43.2472 430.64 43.5859 432.163 44.3763C433.123 44.8279 434.251 45.2231 434.646 45.2231C434.985 45.2231 436.621 45.9005 438.145 46.6908C440.12 47.707 441.475 47.9893 442.66 47.7635C443.563 47.5941 445.03 46.7473 447.513 44.3763L453.946 50.8119L452.14 52.7878C451.125 53.9168 450.109 55.3846 449.94 56.1185C449.714 56.9089 450.278 58.8847 451.576 61.5945C452.648 63.9091 453.89 66.2801 454.285 66.8446C454.793 67.4091 455.978 67.8608 457.332 67.9737C458.574 68.0301 459.759 68.3689 459.985 68.6511C460.21 68.9898 460.436 70.2318 460.436 71.4738C460.436 72.7157 460.21 74.6916 459.985 75.8771C459.646 77.6272 459.364 77.9659 458.179 77.9659C457.389 77.9659 456.034 78.4175 455.188 78.982C454.172 79.603 452.931 81.4095 451.689 84.1757C450.617 86.4903 449.714 88.8049 449.714 89.2565C449.714 89.7081 450.56 91.1195 453.608 94.6196L447.457 100.829L445.933 99.3616C445.03 98.5713 443.901 97.7245 443.393 97.4987C442.829 97.3293 442.265 97.4422 442.095 97.7245C441.926 98.0632 441.362 98.289 440.854 98.289C440.29 98.289 438.935 98.8536 437.863 99.531C436.791 100.208 435.436 100.829 434.928 100.942C434.364 101.055 433.123 101.507 432.22 101.958C431.317 102.41 430.414 103.37 430.245 104.104C430.132 104.781 429.906 105.967 429.849 106.757C429.68 108.112 429.567 108.168 419.804 108.451V106.757C419.804 105.854 419.522 104.555 419.24 103.934C418.958 103.313 417.096 102.015 415.177 101.055C413.202 100.152 411.001 98.9665 410.211 98.5148C409.364 98.0068 408.123 97.8374 407.107 98.0068C406.204 98.1761 404.568 99.0229 401.633 101.394L398.529 98.289C395.651 95.4099 395.482 95.0712 396.215 93.8857C396.611 93.2082 397.401 92.5308 397.965 92.3615C398.473 92.1921 399.037 91.4582 399.206 90.6679C399.376 89.8775 399.263 88.8049 398.981 88.2968C398.642 87.7323 397.626 85.6435 396.723 83.6112C395.764 81.5789 394.466 79.3772 393.845 78.6998C392.999 77.6836 392.096 77.4014 387.638 77.4014V69.4979H389.5C390.459 69.4979 392.096 69.1592 392.999 68.6511C394.297 67.9737 395.2 66.6753 396.723 63.1187C397.852 60.5783 398.924 57.925 399.094 57.2476C399.376 56.2879 398.981 55.3282 395.595 51.1506L401.464 45.2795L403.721 46.6908C404.963 47.4247 406.656 48.0457 407.558 48.0457C408.405 48.0457 409.195 47.8764 409.308 47.6505C409.421 47.3683 410.719 46.8602 412.242 46.4086C413.766 45.957 415.911 45.1666 416.983 44.6021C418.055 44.0375 419.127 43.1908 419.409 42.7391C419.635 42.231 419.635 41.2713 419.466 40.5939C419.24 39.86 419.24 39.0132 419.409 38.6745ZM470.989 100.999C471.102 100.717 471.723 100.547 472.287 100.547C472.908 100.547 473.98 100.773 474.714 101.055C475.447 101.337 476.124 102.184 476.35 103.144C476.632 104.33 477.253 105.007 478.89 105.684C480.075 106.136 481.824 106.813 482.727 107.152C483.912 107.547 485.097 107.547 486.847 107.096C488.596 106.644 489.499 106.644 490.233 107.096C490.91 107.547 491.136 108.338 491.023 109.636C490.91 110.709 490.797 112.572 490.797 113.814C490.741 115.056 491.079 116.975 491.531 118.104C491.982 119.233 492.716 120.532 493.167 121.096C493.619 121.604 494.691 122.056 495.594 121.999C497.061 121.999 497.117 122.112 497.117 124.822C497.117 127.362 497.005 127.645 495.876 127.645C495.142 127.701 494.127 128.266 493.506 128.943C492.941 129.621 491.756 131.653 490.853 133.459C489.951 135.209 489.217 137.016 489.217 137.411C489.217 137.75 489.838 138.709 492.039 140.911L488.37 144.581L486.395 143.339C484.42 142.153 484.364 142.153 481.316 143.169C479.623 143.734 477.648 144.806 476.971 145.54C476.237 146.274 475.673 147.347 475.673 147.968C475.673 148.589 475.278 149.21 474.827 149.379C474.375 149.549 473.134 149.661 472.174 149.661C470.481 149.661 470.255 149.492 469.917 147.573C469.578 145.653 469.183 145.258 466.249 143.903C464.443 143.056 462.581 142.322 462.129 142.322C461.678 142.322 460.493 142.774 459.59 143.395C457.897 144.411 457.897 144.411 453.946 141.306L457.332 137.185L455.752 133.967C454.906 132.217 453.551 129.959 452.818 129.056C451.689 127.645 451.35 127.532 450.899 128.209C450.56 128.717 450.052 128.887 449.488 128.661C448.811 128.322 448.642 127.532 448.754 125.556C448.867 123.016 448.924 122.846 450.843 122.451C451.915 122.225 453.156 121.604 453.551 121.04C453.946 120.475 454.849 118.33 456.768 112.459L454.116 108.733L455.414 107.434C456.599 106.249 456.937 106.192 458.179 106.757C459.025 107.209 460.662 107.378 462.129 107.152C463.54 106.983 465.854 106.362 467.377 105.684C469.353 104.781 470.143 104.104 470.368 102.975C470.594 102.071 470.876 101.225 470.989 100.999ZM26.467 56.4572C25.0562 56.683 23.4197 57.1347 22.7989 57.4734C22.1781 57.8121 20.8802 58.9412 19.8644 60.0138L18.115 61.8767C17.7199 164.339 17.7199 165.242 18.8486 167.105C19.4694 168.178 20.9366 169.815 22.1217 170.775L24.3226 172.525L162.47 172.807C166.646 168.968 168.17 167.162 168.565 166.259C169.186 164.96 169.299 154.686 169.129 113.757L168.96 62.8929C166.703 59.9009 165.066 58.4331 163.825 57.6428L161.624 56.2314C58.8595 56.1185 27.8779 56.2314 26.467 56.4572ZM25.3948 61.0299L161.567 61.3122L162.865 63.2881C164.107 65.0946 164.22 65.8849 164.163 79.095H21.6702L22.1217 72.0948C22.5732 65.9414 22.7989 64.7559 23.984 63.0058L25.3948 61.0299ZM21.9524 84.2322H164.728L164.445 165.468L161.342 168.63H25.3948L22.2346 165.468L22.0653 124.822L21.9524 84.2322ZM418.789 143.677C417.321 144.411 415.854 145.766 415.177 146.895C414.33 148.476 414.161 149.379 414.5 151.129C414.782 152.823 415.685 154.178 417.999 156.492L421.046 159.597L420.99 171.17C413.371 171.622 409.364 172.13 407.163 172.638C405.019 173.089 401.859 174.049 400.109 174.727C398.416 175.461 395.425 177.267 393.45 178.791C391.475 180.372 388.484 183.308 386.791 185.283C385.155 187.316 383.01 190.477 382.107 192.34C381.148 194.203 380.245 196.574 379.963 197.59C379.568 199.284 379.229 199.51 375.73 200.526C373.191 201.316 371.272 202.276 370.031 203.518C369.015 204.534 367.773 206.679 367.153 208.429C366.306 210.97 366.137 212.833 366.306 218.647C366.475 223.954 366.757 226.043 367.491 227.115C367.943 227.849 369.128 229.204 370.031 230.107C370.877 231.01 372.626 232.196 373.868 232.817C375.11 233.381 376.915 233.833 377.818 233.833C379.342 233.833 379.624 234.115 380.301 236.261C380.696 237.559 381.599 239.648 382.22 240.89C382.841 242.132 384.139 244.164 385.098 245.35C386.058 246.592 388.541 248.511 390.516 249.753C392.547 250.938 395.595 252.293 397.288 252.801C399.771 253.479 404.906 253.761 422.682 253.987C438.145 254.213 446.046 254.1 448.359 253.648C450.222 253.309 453.043 252.406 454.567 251.672C456.147 250.882 458.405 249.414 459.646 248.342C460.888 247.325 462.637 245.462 463.484 244.22C464.33 243.035 465.628 240.382 466.362 238.349L467.716 234.68C473.303 233.156 475.56 232.252 476.294 231.688C477.084 231.123 478.495 229.543 479.398 228.244L481.091 225.873V207.413C478.495 203.687 476.971 202.106 476.012 201.542C475.109 200.977 472.964 200.413 471.215 200.187C468.167 199.905 468.111 199.848 467.377 197.534C466.926 196.235 465.797 193.413 464.781 191.211C463.766 189.066 461.791 185.904 460.436 184.211C459.082 182.517 456.316 179.92 454.285 178.396C452.31 176.872 448.642 174.896 446.271 173.993C442.829 172.694 440.29 172.186 434.421 171.678C430.301 171.339 426.633 170.944 426.238 170.831C425.73 170.662 425.504 168.855 425.561 164.283V157.904C429.059 155.702 430.47 154.234 430.978 153.105C431.542 151.863 431.712 150.508 431.486 149.436C431.317 148.532 430.583 146.952 429.849 145.936C429.172 144.919 427.818 143.734 426.802 143.226C425.786 142.774 424.15 142.379 423.134 142.379C422.118 142.379 420.143 142.943 418.789 143.677ZM421.554 146.726C422.344 146.218 423.134 145.766 423.247 145.766C423.416 145.766 424.206 146.218 424.94 146.726C425.73 147.234 426.689 148.024 427.028 148.532C427.479 149.135 427.536 149.906 427.197 150.847C426.915 151.637 426.125 152.653 425.391 153.162C424.714 153.67 423.642 154.234 423.134 154.46C422.457 154.686 421.554 154.347 420.425 153.387C419.466 152.597 418.732 151.411 418.732 150.734C418.732 150 419.071 149.04 419.466 148.532C419.861 148.024 420.82 147.234 421.554 146.726ZM242.379 159.879C240.856 160.162 237.808 160.952 235.607 161.63C233.463 162.25 229.795 163.831 227.425 165.073C225.111 166.315 221.499 168.686 219.411 170.38C217.323 172.073 214.614 174.783 213.373 176.42C212.188 178.057 210.213 181.275 209.084 183.59C207.899 185.961 206.488 189.743 205.867 192.058C205.021 195.558 204.795 198.155 204.851 206.453C204.851 213.905 205.19 218.083 205.924 221.978L206.939 227.341C201.522 233.72 200.845 234.906 200.563 237.107C200.393 238.575 200.506 241.567 200.901 243.712C201.296 246.027 202.312 249.075 203.328 250.995C204.4 252.971 206.093 255.003 207.391 255.963C208.632 256.866 210.551 257.713 211.623 257.882C212.752 258.052 214.163 258.277 214.897 258.447C215.912 258.616 216.307 259.35 217.041 261.947C217.492 263.697 218.678 267.197 219.58 269.681C220.54 272.165 222.289 275.891 223.531 277.867C224.716 279.899 227.086 283.342 228.835 285.488C230.585 287.689 232.165 290.117 232.334 290.851C232.504 291.641 232.56 293.561 232.391 295.085C232.221 296.665 231.714 298.698 231.262 299.601C230.698 300.786 229.738 301.52 228.215 301.972C227.03 302.367 222.459 303.44 218.113 304.456C213.768 305.416 206.206 307.335 201.353 308.69C196.443 310.045 190.63 312.134 188.373 313.263C186.116 314.392 182.504 316.537 180.303 318.005C178.159 319.473 175.281 321.787 173.983 323.142C172.685 324.497 170.484 327.602 169.073 330.086C167.606 332.57 165.461 337.142 164.276 340.247C163.091 343.352 160.947 349.844 159.536 354.643C158.125 359.498 155.247 369.885 153.046 377.789C150.845 385.749 147.403 398.225 145.371 405.62C143.34 412.959 141.647 419.169 141.647 419.282C141.647 419.451 141.421 419.564 141.082 419.564C140.744 419.564 140.462 411.886 140.405 397.999L140.236 376.377C136.737 369.998 134.705 367.119 133.464 365.877C132.222 364.691 130.473 363.337 129.514 362.885C128.611 362.433 127.143 361.812 126.297 361.474L124.717 360.853C127.821 357.127 129.231 354.982 129.852 353.683C130.529 352.159 130.924 350.07 130.924 348.038C130.924 346.231 130.642 343.747 130.304 342.505C129.852 341.038 128.611 339.175 126.466 337.142C124.265 334.941 122.572 333.755 120.766 333.247C119.356 332.852 116.59 332.626 114.559 332.739C112.527 332.908 109.931 333.473 108.633 334.094C107.448 334.715 105.642 335.957 104.683 336.86C103.78 337.82 102.369 339.852 101.579 341.376C100.507 343.522 100.225 345.102 100.225 347.868C100.225 350.748 100.563 352.215 101.749 354.53C102.877 356.675 104.175 358.143 106.545 359.78C108.295 361.022 110.101 362.038 110.496 362.038C110.891 361.982 111.173 362.151 111.173 362.264C111.173 362.433 110.27 363.619 109.198 364.974C108.069 366.272 106.94 368.248 106.658 369.321C106.376 370.45 105.925 374.571 105.699 378.523L105.247 385.692H99.3219C99.3784 381.571 99.0398 380.611 98.1933 379.764C97.1775 378.861 96.0488 378.635 91.647 378.523L86.3424 378.353C86.3424 372.482 86.1166 369.716 85.778 368.474C85.4959 367.232 84.988 365.99 84.6494 365.651C84.3108 365.312 76.523 364.974 65.0107 364.804C50.5075 364.579 45.6542 364.353 44.582 363.788L43.1712 362.998C48.0244 360.458 50.5075 358.538 51.8618 357.07C53.3855 355.377 54.5706 353.344 55.0785 351.538C55.53 350.014 55.925 348.207 55.925 347.586C55.925 346.965 55.4735 345.102 54.9657 343.352C54.2885 341.094 53.2727 339.457 51.1282 337.255C49.2095 335.223 47.4601 334.037 45.7107 333.529C44.3563 333.078 42.4375 332.57 41.4782 332.344C40.5188 332.118 38.4308 332.4 36.3992 332.965C33.634 333.755 32.4489 334.489 29.9094 337.086C27.9343 339.062 26.5235 341.094 26.1284 342.505C25.7334 343.747 25.3948 346.062 25.3948 347.586C25.3948 349.167 25.7898 351.594 26.2977 352.949C26.7492 354.361 28.16 356.732 29.4015 358.199C30.6431 359.667 31.546 360.966 31.4896 361.078C31.3767 361.191 29.9659 361.982 28.2729 362.885C26.6363 363.788 23.8711 365.877 22.2346 367.514C20.5416 369.151 18.6793 371.522 18.0021 372.877C16.9299 374.91 16.7041 376.66 16.3091 384.281C16.0834 389.249 15.6319 395.854 15.2933 398.959C15.0112 402.063 14.6161 409.064 14.3904 414.483C14.2211 419.959 13.8261 427.806 13.4875 431.984C13.2053 436.218 12.4152 443.669 11.7945 448.637C11.1737 453.605 10.3837 458.121 10.1015 458.686C9.70646 459.476 8.85997 459.646 6.20762 459.646C4.34533 459.646 2.20088 459.928 1.41082 460.21C0.677195 460.549 0 461.226 0 461.791C0 462.525 0.677197 462.864 2.70878 463.202C4.17604 463.428 114.841 463.767 248.587 463.936C382.389 464.106 496.158 464.049 501.406 463.767L511 463.315C511 460.944 510.605 460.436 509.589 460.154C508.856 459.928 499.206 459.702 488.145 459.646C477.14 459.589 467.49 459.363 466.7 459.138L465.289 458.742C468.167 457.275 469.465 456.146 470.086 455.299C470.707 454.452 471.384 452.871 471.553 451.742C471.892 450.274 471.61 449.089 470.594 447C469.748 445.137 468.506 443.726 466.982 442.766C465.741 441.976 463.54 441.242 461.96 441.073C459.477 440.79 458.969 440.452 456.824 437.911C455.526 436.387 453.551 433.903 452.423 432.435C451.181 430.855 450.335 429.105 450.335 428.201V426.621C456.26 427.298 462.919 427.863 468.957 428.371L479.962 429.274C482.614 432.379 484.082 433.621 484.928 434.072C485.775 434.468 487.411 434.806 488.596 434.806C489.725 434.806 491.7 434.242 492.885 433.564C494.127 432.83 495.594 431.419 496.158 430.29C497.005 428.766 497.174 427.693 496.948 425.379C496.779 423.742 496.102 421.653 495.481 420.693C494.86 419.79 493.619 418.661 492.659 418.153C491.756 417.701 489.838 417.306 488.427 417.306H485.887L469.465 396.7C470.086 392.297 469.973 390.208 469.635 389.079C469.296 388.007 468.111 386.257 466.982 385.128C465.12 383.321 464.725 383.152 461.395 383.152C458.517 383.152 457.558 383.434 455.978 384.619C454.906 385.41 453.382 386.934 452.592 388.007C451.633 389.305 451.181 390.66 451.238 392.184C451.238 393.483 451.802 395.571 452.536 396.983L453.89 399.523C447.569 411.773 445.425 415.669 445.086 416.12C444.635 416.628 443.732 416.741 442.152 416.516C440.91 416.29 439.669 415.951 439.33 415.725C438.992 415.499 436.621 412.112 434.082 408.16L429.454 400.934C431.147 394.555 431.204 393.37 430.64 390.942C430.132 388.515 429.624 387.611 427.649 385.974C425.673 384.337 424.771 383.998 422.682 383.998C421.328 384.055 419.127 384.507 417.886 385.071C416.644 385.636 415.064 386.934 414.387 388.007C413.71 389.079 412.976 391.112 412.807 392.466C412.525 394.329 412.75 395.741 413.54 397.829L414.669 400.652C408.518 406.975 408.123 407.201 405.188 407.483C403.439 407.652 401.125 408.33 399.827 409.064C398.586 409.798 397.118 411.04 396.611 411.886C396.046 412.677 395.482 413.919 395.256 414.653C395.087 415.33 395.256 416.911 395.651 418.153C396.046 419.395 397.175 421.258 398.134 422.33C399.15 423.403 400.73 424.419 402.084 424.758C403.589 425.096 404.906 425.078 406.035 424.701C406.994 424.419 408.8 423.346 410.154 422.443C412.468 420.749 412.637 420.749 415.798 421.314C417.547 421.653 421.836 422.556 425.222 423.29C428.664 424.08 431.825 424.814 432.276 424.927C432.784 425.096 433.574 426.169 434.082 427.298L434.985 429.443C430.47 433.903 428.1 436.105 426.802 437.234C424.658 439.097 424.037 439.323 421.272 439.323C419.579 439.323 417.378 439.661 416.362 440.113C415.346 440.508 413.653 441.807 412.637 443.048C410.888 445.137 410.775 445.476 411.114 448.355C411.283 450.162 411.96 452.307 412.694 453.436C413.484 454.621 414.951 455.807 416.475 456.428C418.224 457.218 419.635 457.444 420.99 457.162C422.118 456.992 423.755 456.259 424.658 455.525C425.617 454.791 426.859 453.21 427.423 452.025C428.326 450.218 428.439 449.033 428.156 445.815L427.818 441.863C437.524 433.621 439.161 432.548 440.459 432.548C441.418 432.548 443.055 432.379 444.127 432.209C446.046 431.871 446.271 431.984 449.883 436.274C451.971 438.758 454.003 441.355 454.398 442.032C455.019 443.105 454.962 443.839 454.116 446.549C453.382 448.694 453.156 450.5 453.382 451.912C453.608 453.323 454.511 454.791 456.147 456.484L458.517 458.912C445.425 459.476 424.771 459.646 404.229 459.646H366.814C372.062 455.299 374.319 452.928 375.222 451.629C376.125 450.275 377.48 447.847 378.157 446.097C379.342 443.387 379.455 442.089 379.455 435.371C379.455 428.371 379.229 427.072 377.141 418.717C375.843 413.749 372.739 402.233 370.2 393.031C367.717 383.886 363.992 370.45 361.904 363.111C359.873 355.828 357.333 347.304 356.261 344.199C355.189 341.094 353.383 336.804 352.311 334.602C351.238 332.457 349.263 329.126 347.909 327.263C346.611 325.4 344.354 322.803 342.943 321.505C341.476 320.15 338.71 318.061 336.792 316.819C334.816 315.577 331.092 313.658 328.44 312.529C325.844 311.456 319.862 309.424 315.178 308.069C310.55 306.714 303.327 304.851 299.094 303.835C294.918 302.875 290.347 301.746 288.936 301.295C287.131 300.73 286.171 300.053 285.663 298.924C285.155 297.851 285.043 296.27 285.268 293.956C285.438 292.093 286.115 289.835 286.736 288.875C287.356 287.972 289.219 285.544 290.912 283.512C292.605 281.536 295.031 277.81 296.386 275.326C297.684 272.842 299.659 268.044 300.787 264.6L302.819 258.39C307.164 257.882 308.914 257.487 309.535 257.148C310.155 256.81 311.905 255.229 313.372 253.535C314.896 251.842 316.476 249.358 316.927 247.946C317.379 246.592 317.717 243.938 317.717 242.188C317.717 240.382 317.492 237.728 317.153 236.261C316.871 234.793 315.799 232.478 314.783 231.067C313.767 229.712 312.695 228.244 312.356 227.849C311.961 227.341 312.243 224.575 313.146 219.042C314.049 213.905 314.613 207.752 314.783 201.937C315.065 193.921 314.952 192.453 313.88 188.953C313.259 186.808 311.848 183.759 310.832 182.235C309.817 180.711 307.954 178.678 306.713 177.719C305.471 176.759 302.706 175.348 300.505 174.501C298.361 173.654 295.031 172.13 293.169 171.057C291.307 170.041 288.259 168.46 286.397 167.557C284.535 166.71 280.867 165.186 278.214 164.283C275.618 163.38 270.539 161.968 266.928 161.234C262.469 160.275 258.124 159.767 252.819 159.597C248.643 159.484 243.959 159.597 242.379 159.879ZM469.748 204.365C470.086 204.082 471.271 204.082 472.343 204.252C473.472 204.477 474.601 204.929 474.939 205.268C475.278 205.606 475.842 206.453 476.237 207.187C476.632 207.978 476.858 211.308 476.858 215.937C476.858 222.655 476.745 223.615 475.56 225.647C474.657 227.341 473.698 228.131 472.061 228.639C470.82 229.035 469.522 229.26 469.127 229.091C468.562 228.809 468.506 226.099 468.788 216.784C469.014 209.107 469.353 204.647 469.748 204.365ZM375.335 204.986C376.069 204.76 377.198 204.647 377.818 204.703C378.947 204.76 378.947 205.211 379.229 228.752H377.988C377.254 228.809 375.956 228.527 374.997 228.244C373.868 227.849 372.965 226.946 372.288 225.534C371.441 223.728 371.329 222.26 371.441 215.937C371.611 209.502 371.78 208.316 372.796 206.961C373.473 206.058 374.602 205.211 375.335 204.986ZM410.267 176.194C412.017 175.969 419.127 175.856 426.068 175.969C435.775 176.081 439.612 176.364 442.152 177.098C444.014 177.606 446.723 178.565 448.077 179.243C449.488 179.864 452.423 182.235 454.624 184.437C457.389 187.259 459.251 189.743 463.032 197.308V216.276C463.032 233.438 462.976 235.527 462.016 237.785C461.452 239.196 460.041 241.567 458.912 243.091C457.389 245.067 455.865 246.309 449.545 249.358H425.222C401.915 249.301 400.787 249.245 396.893 248.059C393.563 247.1 392.265 246.309 390.064 244.164C388.597 242.696 386.791 240.212 386.058 238.632C385.38 237.107 384.421 234.172 383.97 232.139C383.518 229.994 383.236 225.026 383.236 220.002C383.236 215.373 383.462 208.711 383.744 205.211C384.139 200.695 384.76 197.816 385.775 195.332C386.565 193.356 388.541 190.138 390.177 188.106C391.814 186.13 394.297 183.533 395.651 182.404C397.006 181.275 399.15 179.864 400.391 179.243C401.633 178.622 403.665 177.775 404.906 177.38C406.148 176.985 408.574 176.477 410.267 176.194ZM240.969 164.678C243.621 164.113 246.894 163.944 252.537 164.113C257.447 164.283 262.582 164.791 266.081 165.525C269.185 166.202 274.038 167.501 276.803 168.404C279.625 169.364 285.212 171.848 289.219 173.993C293.282 176.138 298.079 178.396 299.941 179.074C301.803 179.695 304.173 181.049 305.246 182.066C306.261 183.082 307.616 184.832 308.18 186.017C308.801 187.146 309.647 189.687 310.099 191.663C310.55 193.582 310.945 196.687 310.945 198.55C310.945 200.413 310.55 205.155 310.099 208.994C309.647 212.889 308.857 218.083 308.406 220.567C307.954 223.051 307.447 225.534 307.277 226.099C307.051 226.833 306.487 227.059 302.763 226.776L300.731 218.591C299.602 214.131 298.135 206.848 297.458 202.502C296.781 198.155 295.991 194.034 295.708 193.356C295.426 192.622 294.806 192.058 294.298 192.058C293.846 192.058 291.871 193.3 289.952 194.767C287.639 196.574 284.873 198.042 281.882 199.058C279.399 199.905 274.885 200.808 271.724 201.147C268.621 201.485 263.542 201.598 260.438 201.429C257.334 201.203 253.158 200.808 251.126 200.469C249.151 200.131 243.395 199.114 238.429 198.155C232.616 197.082 228.497 196.574 226.86 196.8C225.393 196.969 223.418 197.76 222.063 198.719C220.822 199.566 219.524 200.921 219.185 201.711C218.79 202.445 218.113 206.115 217.605 209.84C217.097 213.566 216.364 218.986 215.292 227.002L213.599 226.664C212.696 226.494 211.736 226.212 211.511 225.986C211.285 225.817 210.664 223.389 210.1 220.567C209.423 217.01 209.14 212.72 209.197 206.171C209.197 198.437 209.423 196.122 210.438 192.34C211.116 189.856 212.47 186.243 213.486 184.267C214.501 182.348 216.477 179.299 217.944 177.493C219.355 175.743 221.894 173.372 223.587 172.243C225.224 171.114 227.481 169.702 228.553 169.081C229.682 168.46 232.052 167.388 233.914 166.71C235.777 166.033 238.993 165.13 240.969 164.678ZM288.09 201.147C290.234 199.961 292.153 199.171 292.379 199.34C292.548 199.566 293 201.711 293.338 204.195C293.677 206.679 294.862 212.776 295.934 217.744C297.063 222.712 298.135 227.906 298.361 229.204C298.812 231.462 298.756 231.631 297.571 231.575C296.837 231.575 294.806 230.277 292.774 228.47C290.347 226.325 288.316 225.026 286.397 224.462C284.873 224.01 282.56 223.502 281.318 223.333C279.794 223.107 277.763 223.333 275.11 224.18C272.966 224.801 270.483 225.817 269.636 226.381C268.846 226.889 267.492 228.244 266.645 229.317C265.235 231.293 265.178 231.293 260.833 231.293C258.463 231.293 255.81 231.518 254.964 231.744C253.666 232.083 253.327 231.97 252.932 230.898C252.65 230.164 251.691 228.865 250.788 227.906C249.885 227.002 248.248 225.817 247.176 225.252C246.104 224.744 243.677 224.01 241.815 223.672C239.953 223.333 237.413 223.22 236.172 223.446C234.93 223.672 232.899 224.18 231.657 224.631C230.303 225.083 228.384 226.551 226.86 228.188C224.547 230.728 224.095 231.01 219.242 231.01L219.637 226.946C219.863 224.688 220.709 219.268 221.499 214.921C222.346 210.574 223.305 206.058 223.644 204.873C224.152 203.348 224.885 202.389 226.014 201.824C227.199 201.26 228.497 201.09 230.246 201.373C231.657 201.542 236.51 202.445 240.969 203.348C245.483 204.252 251.86 205.268 255.077 205.663C258.519 206.058 263.767 206.227 267.492 206.002C271.104 205.832 276.296 205.155 279.061 204.534C282.108 203.8 285.72 202.445 288.09 201.147ZM232.109 228.752C233.632 227.736 234.648 227.623 238.711 227.793C242.097 227.905 244.185 228.301 245.709 229.091C246.894 229.712 248.361 231.067 248.982 232.139C249.941 233.777 250.054 234.906 249.828 238.632C249.659 241.511 249.151 244.164 248.361 245.858C247.74 247.325 246.499 248.963 245.652 249.471C244.806 250.035 243.057 250.543 241.815 250.656C240.573 250.826 238.203 250.656 236.454 250.317C234.366 249.866 232.899 249.132 231.826 248.116C231.036 247.269 229.964 245.688 229.513 244.559C229.005 243.487 228.497 240.946 228.271 238.914C227.933 235.865 228.045 234.849 229.061 232.591C229.795 230.954 230.98 229.43 232.109 228.752ZM273.982 228.526C275.223 228.075 278.045 227.68 280.189 227.68C283.237 227.623 284.76 227.906 286.679 228.922C288.09 229.599 289.839 231.067 290.573 232.139C291.758 233.946 291.871 234.511 291.532 238.067C291.307 240.269 290.686 243.035 290.122 244.277C289.557 245.519 288.372 247.269 287.469 248.116C286.341 249.132 284.76 249.866 282.447 250.317C280.584 250.656 277.932 250.769 276.521 250.6C275.167 250.374 273.305 249.753 272.458 249.132C271.612 248.454 270.483 247.156 269.975 246.14C269.467 245.124 268.903 242.301 268.79 239.761C268.621 237.22 268.734 234.398 269.129 233.269C269.467 232.196 270.201 230.841 270.709 230.333C271.273 229.768 272.74 228.978 273.982 228.526ZM209.027 231.97C209.705 231.857 211.285 231.688 215.009 231.575V239.93C215.009 244.503 215.235 249.584 215.461 251.221C215.856 254.043 215.799 254.213 214.614 254.156C213.881 254.156 212.47 253.817 211.341 253.309C210.1 252.801 208.745 251.503 207.73 249.809C206.714 248.172 205.754 245.632 205.359 243.43C205.021 241.454 204.908 238.745 205.134 237.503C205.359 236.261 206.037 234.567 206.657 233.72C207.278 232.93 208.35 232.139 209.027 231.97ZM304.512 232.309C304.625 231.914 305.641 231.575 306.882 231.575C308.067 231.575 309.591 232.027 310.381 232.591C311.34 233.325 312.074 234.736 312.582 236.712C313.033 238.462 313.259 241.341 313.146 243.43C312.977 246.196 312.525 247.721 311.34 249.527C310.55 250.825 309.139 252.293 308.293 252.688C307.447 253.14 305.979 253.592 303.496 253.874L303.553 246.817C303.609 242.978 303.778 238.236 303.948 236.373C304.117 234.511 304.399 232.704 304.512 232.309ZM218.847 234.906L223.7 235.244L224.49 240.325C224.885 243.317 225.732 246.366 226.465 247.664C227.199 248.963 228.948 250.769 230.528 251.785C232.109 252.858 234.366 253.93 235.607 254.269C236.849 254.608 239.558 254.721 241.533 254.608C243.564 254.439 245.991 253.93 246.894 253.422C247.853 252.971 249.151 252.011 249.828 251.277C250.449 250.543 251.465 249.075 251.973 247.946C252.537 246.874 253.327 244.164 253.779 241.906C254.174 239.648 254.795 237.277 255.077 236.656C255.415 236.035 256.205 235.414 256.939 235.188C257.616 235.019 259.253 235.019 260.607 235.188C261.905 235.414 263.316 235.865 263.711 236.261C264.106 236.712 264.614 238.914 264.84 241.228C265.065 243.825 265.743 246.366 266.533 247.946C267.379 249.64 268.79 251.164 270.652 252.35C273.248 254.1 273.756 254.213 278.214 254.213C281.262 254.213 284.083 253.818 285.833 253.197C287.526 252.632 289.614 251.334 290.968 249.979C292.379 248.567 293.62 246.591 294.185 244.841C294.693 243.317 295.313 240.551 295.596 238.801C295.991 235.583 296.047 235.527 299.659 235.527V239.648C299.659 241.906 299.433 246.535 299.094 249.922C298.756 253.366 298.079 257.826 297.627 259.802C297.176 261.834 295.934 265.673 294.862 268.27C293.733 270.923 291.815 274.875 290.517 277.02C289.219 279.221 286.51 282.665 284.478 284.641C282.277 286.843 279.174 289.157 276.803 290.399C274.659 291.528 270.822 293.052 268.338 293.73C265.404 294.52 262.3 294.972 259.309 294.972C256.826 294.915 253.158 294.52 251.126 293.956C249.151 293.448 245.596 292.093 243.226 291.02C239.84 289.439 238.034 288.085 233.858 283.907C229.795 279.842 228.215 277.754 226.409 274.084C225.111 271.487 223.418 267.423 222.571 265.052C221.781 262.624 220.766 258.503 220.314 255.85C219.919 253.253 219.411 247.438 219.185 242.978L218.847 234.906ZM236.51 294.972C236.454 293.673 236.623 292.544 236.736 292.544C236.905 292.544 238.26 293.335 239.727 294.294C241.194 295.198 243.903 296.44 245.765 297.061C247.628 297.682 250.562 298.415 252.255 298.754C254.005 299.093 257.39 299.375 259.874 299.432C262.582 299.432 265.912 299.093 268.056 298.528C270.088 297.964 273.135 296.891 274.828 296.157C276.578 295.367 278.666 294.238 281.036 292.544V295.649C281.036 297.399 281.318 299.488 281.657 300.335C281.995 301.182 283.067 302.706 285.833 305.585L284.14 308.803C283.237 310.609 281.205 313.319 279.625 314.843C278.045 316.424 274.941 318.682 272.571 319.868C269.129 321.618 267.379 322.126 262.977 322.634C258.971 323.086 256.488 323.086 253.102 322.577C250.054 322.126 247.289 321.279 244.354 319.868C242.041 318.682 239.163 316.763 238.034 315.577C236.849 314.448 234.987 311.626 231.883 305.246L233.294 303.835C234.084 303.101 235.1 301.295 235.607 299.883C236.115 298.528 236.51 296.27 236.51 294.972ZM287.469 310.496C288.711 308.069 289.839 306.093 290.009 306.15C290.234 306.15 295.821 307.504 302.48 309.254C309.196 310.948 317.04 313.15 319.975 314.053C322.966 315.013 328.101 317.271 331.487 319.021C336.622 321.674 338.259 322.86 341.363 326.247C343.451 328.449 345.934 331.61 346.95 333.304C347.965 334.941 349.828 339.231 351.069 342.788C352.311 346.401 355.076 355.377 357.22 362.829C359.365 370.28 363.033 383.265 365.347 391.62C367.717 400.031 370.595 410.927 371.836 415.895C373.078 420.862 374.376 427.129 374.771 429.726C375.166 432.435 375.279 436.274 375.11 438.476C374.94 440.677 374.32 443.726 373.755 445.25C373.078 447.282 371.611 449.315 368.789 452.137C366.25 454.734 363.823 456.654 362.017 457.444C359.478 458.573 357.954 458.686 330.528 459.363L330.923 457.105C331.148 455.863 331.656 452.307 332.108 449.202C332.559 446.097 333.18 440.169 333.462 435.935C333.801 431.758 334.196 425.887 334.647 417.306L343.846 417.249C348.868 417.249 353.665 417.024 354.399 416.854C355.527 416.516 355.809 416.064 355.809 413.072L334.647 412.79L334.929 409.854C335.099 408.217 335.607 401.047 336.058 393.878C336.566 386.765 336.904 377.789 336.904 367.063L335.099 365.03C334.083 363.901 332.277 362.377 329.004 360.288L189.332 360.57L187.414 361.982C186.341 362.772 184.761 364.409 183.858 365.651C182.278 367.909 182.278 368.079 182.278 375.53C182.278 379.764 182.673 388.741 183.125 395.571C183.576 402.402 183.971 409.12 183.971 412.79L175.958 412.846C171.5 412.846 166.872 413.072 165.631 413.298C164.107 413.523 163.373 414.032 163.26 414.653C163.148 415.33 163.768 415.951 165.066 416.459C166.534 417.136 169.242 417.306 175.506 417.306C181.77 417.306 184.084 417.532 184.253 418.04C184.366 418.435 184.761 422.951 185.1 428.032C185.439 433.169 186.003 439.887 186.285 442.992C186.624 446.097 187.357 450.952 187.978 453.718C188.599 456.541 189.05 458.912 189.05 458.968C189.05 459.025 182.673 459.138 160.552 459.138L156.883 457.275C154.908 456.259 151.974 454.17 150.394 452.646C148.814 451.065 146.838 448.355 145.992 446.549C145.145 444.742 144.243 441.976 143.904 440.339C143.622 438.702 143.34 436.331 143.34 435.089C143.34 433.847 144.017 429.782 144.75 426.056C145.54 422.33 147.459 414.483 149.039 408.556C150.619 402.684 154.175 389.7 156.883 379.764C159.649 369.829 163.091 357.804 164.558 352.949C165.969 348.151 168.057 342.054 169.129 339.4C170.258 336.804 172.008 333.304 173.023 331.666C174.096 330.029 176.014 327.545 177.369 326.078C178.667 324.666 180.924 322.634 182.278 321.618C183.689 320.602 186.341 319.021 188.204 318.118C190.066 317.158 194.411 315.464 197.797 314.335C201.24 313.15 209.366 311.005 215.856 309.48C222.402 307.956 227.933 306.658 228.158 306.658C228.384 306.658 228.723 307.392 228.892 308.238C229.061 309.085 229.964 311.061 230.811 312.585C231.714 314.166 233.914 316.819 235.72 318.513C237.526 320.263 240.799 322.577 243 323.763C245.652 325.174 248.474 326.134 251.691 326.699C254.343 327.207 257.673 327.545 259.027 327.545C260.438 327.545 263.372 327.15 265.517 326.699C267.718 326.247 271.499 324.892 273.982 323.65C276.916 322.239 279.681 320.319 281.939 318.174C284.309 315.86 286.002 313.545 287.469 310.496ZM36.1171 337.538C36.625 337.368 38.4308 337.255 40.2367 337.199C42.3811 337.199 44.187 337.538 45.5978 338.215C46.7264 338.836 48.363 340.191 49.0966 341.207C50.2253 342.731 50.5639 343.917 50.6768 347.022C50.8461 350.691 50.7332 351.199 49.1531 353.683C47.7987 355.772 46.67 356.675 44.187 357.861C41.7603 358.933 40.406 359.272 38.9387 358.99C37.8665 358.82 36.0042 357.917 34.7627 357.07C33.5776 356.224 31.941 354.361 31.2074 352.949C30.3045 351.256 29.9094 349.506 29.9094 347.473C29.9094 345.836 30.3045 343.804 30.6995 342.957C31.151 342.11 32.3925 340.586 33.4083 339.626C34.4241 338.667 35.6656 337.707 36.1171 337.538ZM109.649 338.667C111.794 337.255 112.414 337.086 116.082 337.255C119.581 337.425 120.371 337.65 122.234 339.118C123.362 340.078 124.83 341.828 125.507 343.07C126.184 344.425 126.635 346.401 126.635 347.868C126.635 349.562 126.128 351.369 125.112 353.119C124.265 354.643 122.572 356.449 121.274 357.353C119.468 358.538 118.227 358.877 115.97 358.877C113.543 358.877 112.527 358.538 110.101 356.901C108.069 355.546 106.771 354.078 105.755 352.102C104.57 349.788 104.401 348.828 104.739 346.739C104.909 345.384 105.586 343.352 106.207 342.223C106.771 341.151 108.351 339.57 109.649 338.667ZM114.164 365.651C115.123 364.917 116.534 364.804 120.484 364.974C123.588 365.087 126.24 365.538 127.256 366.046C128.216 366.554 129.852 367.796 130.924 368.869C131.94 369.885 133.407 372.03 134.085 373.555C135.1 375.869 135.439 377.902 135.721 383.998C135.89 388.232 136.342 405.112 136.68 421.54C137.019 438.024 137.301 453.266 137.414 459.363L124.152 459.646V436.5C124.152 414.991 124.096 413.354 123.193 413.072C122.629 412.902 121.839 412.902 121.331 413.072C120.766 413.298 120.371 414.653 120.089 417.757C119.863 420.185 119.412 430.234 119.073 440.169C118.735 450.105 118.34 458.573 118.227 458.968C118.058 459.476 116.195 459.646 105.53 459.646V455.017C105.53 452.476 105.812 443.105 106.094 434.242C106.432 425.435 106.827 415.33 106.94 411.83C107.166 407.257 107.448 405.507 107.956 405.507C108.351 405.507 109.931 404.83 111.455 404.039C113.035 403.193 115.292 401.725 116.534 400.765C117.719 399.805 119.525 397.717 120.541 396.136C121.556 394.612 122.742 391.958 123.249 390.208C123.757 388.515 124.152 385.918 124.152 384.45C124.152 382.418 123.927 381.684 123.193 381.402C122.629 381.176 121.839 381.289 121.331 381.571C120.879 381.91 120.259 383.378 120.033 384.902C119.751 386.426 119.186 389.023 118.735 390.66C118.171 392.862 117.268 394.329 115.292 396.305C113.825 397.83 111.455 399.58 110.044 400.257C108.182 401.217 105.925 401.612 101.241 401.951C96.0488 402.289 94.8073 402.233 94.0172 401.499C93.5093 401.047 93.1143 400.37 93.1143 399.975C93.1143 399.58 94.0172 398.902 95.0895 398.394C96.2181 397.942 97.2903 397.265 97.5161 396.87C97.7418 396.475 98.1933 394.781 99.1526 389.926L102.2 389.813C103.893 389.757 106.094 389.531 107.11 389.362C108.182 389.249 109.085 388.684 109.254 388.12C109.423 387.555 109.762 383.547 110.044 379.2C110.383 372.934 110.721 370.845 111.681 368.926C112.358 367.627 113.43 366.103 114.164 365.651ZM195.991 365.369C199.49 365.256 230.754 365.087 265.517 365.087C320.765 365.087 328.891 365.2 330.02 365.933C330.697 366.442 331.713 367.684 332.221 368.756C332.954 370.393 333.067 371.805 332.728 376.66C332.559 379.934 331.656 395.176 330.697 410.531C329.794 425.943 328.891 439.887 328.722 441.581C328.552 443.331 328.327 445.645 327.875 448.92H191.308L191.082 446.831C190.913 445.645 190.687 443.331 190.518 441.581C190.348 439.887 189.84 432.887 189.389 426.056C188.881 419.225 188.147 406.918 187.639 398.676C187.132 390.491 186.736 380.385 186.511 368.813L188.091 367.232C189.558 365.764 190.01 365.651 195.991 365.369ZM30.1916 366.498C31.6589 365.821 33.9162 365.482 36.5685 365.425C38.8258 365.425 41.0267 365.538 41.4782 365.651C42.2118 365.933 42.3247 367.853 42.3247 391.337L36.3992 391.394L36.0042 387.555C35.722 384.902 35.2706 383.547 34.5934 383.039C34.029 382.644 33.239 382.361 32.7311 382.474C32.0539 382.644 31.941 383.66 32.0539 388.289C32.1668 392.918 32.3361 394.047 33.1826 394.612C33.7469 395.007 35.7785 395.346 37.81 395.346C40.6317 395.346 41.9861 395.628 43.4533 396.588C44.977 397.547 46.6136 397.942 55.0221 398.394L55.3607 409.685L50.1124 409.29C47.2343 409.064 42.494 408.443 39.503 407.935C36.5685 407.427 33.0133 406.523 31.6589 405.846C30.248 405.168 27.8779 403.418 26.4106 401.951C24.9433 400.483 23.2504 398.168 22.686 396.87C22.0653 395.571 21.2752 392.918 20.8802 391.055C20.4287 388.853 20.3158 385.749 20.5416 381.91C20.7673 378.24 21.2752 375.361 21.896 374.063C22.4039 372.934 24.0404 370.958 25.3948 369.716C26.8056 368.53 28.9501 367.063 30.1916 366.498ZM47.7422 369.942C48.4194 369.603 55.2478 369.377 81.8277 369.321V374.853C81.8842 377.902 82.1099 380.724 82.392 381.176C82.7871 381.853 84.3108 382.079 94.8073 382.305L94.6944 387.95C94.5815 390.999 94.3558 393.765 94.0737 393.991C93.7915 394.273 91.0827 394.612 87.9789 394.725C83.8593 394.95 82.2227 395.233 81.8277 395.854C81.4327 396.531 81.7713 397.152 83.0693 398.394C84.8187 400.088 84.8187 400.144 84.4801 404.322C84.2543 406.862 83.8593 408.725 83.4078 409.007C83.0128 409.233 80.8119 409.402 78.4417 409.402C76.128 409.402 73.8707 409.177 73.3628 408.894C72.6292 408.443 72.6856 408.16 73.5321 406.523C74.3786 404.999 74.5479 403.644 74.3786 399.58C74.2093 394.725 74.1528 394.499 72.7985 394.104C72.0648 393.934 65.8572 393.708 46.8393 393.595L46.7829 382.079C46.67 371.24 46.7264 370.506 47.7422 369.942ZM458.517 389.305C459.533 388.289 460.831 387.386 461.283 387.386C461.791 387.386 462.637 387.612 463.145 387.837C463.653 388.063 464.274 388.853 464.556 389.531C464.838 390.265 464.781 391.733 464.443 393.031C464.161 394.329 463.427 395.571 462.75 395.854C462.129 396.192 461 396.418 460.21 396.418C459.477 396.418 458.292 395.91 457.671 395.289C457.05 394.668 456.599 393.539 456.599 392.692C456.655 391.902 457.445 390.434 458.517 389.305ZM419.692 389.644C420.482 389.023 421.78 388.515 422.513 388.515C423.247 388.515 424.206 388.91 424.658 389.362C425.166 389.87 425.673 391.055 425.843 392.071C426.068 393.2 425.843 394.725 425.278 396.023C424.432 397.999 424.263 398.112 421.836 398.112C419.579 398.112 419.24 397.942 418.394 396.305C417.829 395.12 417.604 393.821 417.829 392.636C418.055 391.563 418.845 390.321 419.692 389.644ZM59.0853 398.112H70.5411V400.37C70.5411 401.612 70.0332 403.644 69.4125 404.886C68.5096 406.749 68.3967 407.539 68.8482 409.12C69.1868 410.362 70.1461 411.604 71.2748 412.394C72.8549 413.523 73.8142 413.636 78.7239 413.636C83.5771 413.636 84.7058 413.467 86.5116 412.394C88.5997 411.152 88.5997 411.04 88.5997 407.709C88.5997 405.846 88.6561 404.322 88.769 404.322C88.8254 404.322 89.8976 404.717 91.0827 405.225C92.2678 405.677 95.3152 406.241 97.7982 406.467C100.281 406.693 102.369 407.088 102.482 407.314C102.651 407.539 102.313 419.225 101.861 433.282C101.354 447.339 100.846 458.968 100.676 459.081C100.507 459.251 90.5748 459.476 56.7151 459.759L56.3765 457.613C56.1507 456.428 55.0785 449.315 54.0063 441.863C52.9341 434.411 51.749 425.774 51.4104 422.669C51.0718 419.564 50.6768 416.233 50.2253 413.354H53.3291C55.0785 413.354 56.8844 413.185 57.3923 412.959C57.9002 412.733 58.6338 411.83 59.0853 410.983C59.6496 409.798 59.7625 408.048 59.4803 403.757L59.0853 398.112ZM464.838 400.426C465.402 400.088 465.967 399.862 466.136 399.805C466.305 399.805 469.014 402.91 472.174 406.749C475.334 410.531 478.833 414.878 479.905 416.346C481.937 418.999 481.937 419.056 481.034 421.145C480.583 422.33 479.962 423.629 479.736 424.08C479.454 424.588 478.664 424.871 477.93 424.814C477.197 424.758 472.005 424.306 466.418 423.798C460.831 423.346 454.736 422.669 452.874 422.387C451.012 422.104 449.319 421.54 449.093 421.145C448.867 420.75 448.698 419.903 448.698 419.282C448.698 418.661 450.673 414.483 457.445 401.781L460.662 401.386C462.411 401.16 464.33 400.709 464.838 400.426ZM19.2436 400.088L20.3723 401.499C20.993 402.289 22.5732 404.096 23.9276 405.451C25.2819 406.862 27.8779 408.725 29.6837 409.628C31.6024 410.588 35.7785 411.83 39.503 412.62C43.0583 413.298 46.1621 414.257 46.3879 414.653C46.6136 415.048 46.8393 416.741 46.8393 418.435C46.8393 420.185 47.2344 424.475 47.6858 428.032C48.1373 431.645 49.3224 439.605 50.2253 445.815C51.1847 452.025 52.0311 457.726 52.2004 458.404C52.4826 459.646 52.4262 459.646 46.8957 459.533C43.7919 459.476 41.1396 459.251 40.9703 459.081C40.801 458.968 40.1802 455.75 39.5595 452.025C38.9387 448.299 37.8101 440.565 37.02 434.806C36.2299 429.105 35.4399 423.967 35.2706 423.403C35.1013 422.838 34.5369 422.387 33.9726 422.387C33.4647 422.387 32.7311 422.669 32.3925 423.121C32.0539 423.516 30.5866 431.306 29.0629 440.452C27.5957 449.654 26.1284 457.726 25.8463 458.404C25.3948 459.589 25.0562 459.646 20.0337 459.646C15.6319 459.646 14.6726 459.533 14.6726 458.799C14.6726 458.347 15.1805 454.339 15.8012 449.936C16.3655 445.532 17.1556 439.21 17.4942 435.935C17.7764 432.718 18.2843 424.419 18.6229 417.588C18.905 410.757 19.1872 404.039 19.1872 402.628L19.2436 400.088ZM417.491 403.418L426.238 403.475L427.705 405.733C428.495 406.975 430.47 410.023 432.107 412.507C433.743 414.991 435.098 417.419 435.154 417.87C435.154 418.378 434.703 419.169 434.138 419.733C433.179 420.637 432.671 420.58 424.263 418.717C419.353 417.645 414.895 416.515 414.274 416.177C413.653 415.895 412.863 414.709 412.581 413.523C412.242 412.338 412.017 411.04 412.017 410.531C412.017 410.08 413.258 408.273 414.725 406.58L417.491 403.418ZM401.52 413.467C402.197 412.62 403.044 412.225 404.285 412.225C405.245 412.225 406.543 412.677 407.107 413.241C407.671 413.749 408.066 414.991 408.066 416.007C408.066 417.08 407.558 418.322 406.938 418.999C406.317 419.62 405.414 420.128 404.963 420.128C404.511 420.128 403.552 419.846 402.818 419.451C402.141 419.112 401.407 418.548 401.182 418.209C400.956 417.87 400.73 416.967 400.674 416.177C400.617 415.386 401.012 414.144 401.52 413.467ZM439.104 422.387C439.443 421.766 440.233 421.258 440.967 421.258C441.644 421.201 442.885 421.709 443.732 422.387C444.635 423.008 445.312 423.854 445.312 424.193C445.312 424.588 444.578 425.661 443.619 426.621C441.926 428.258 441.813 428.258 440.346 427.467C439.387 426.903 438.766 426.056 438.653 425.04C438.597 424.193 438.822 423.008 439.104 422.387ZM487.806 421.822C488.483 421.54 489.16 421.314 489.33 421.258C489.499 421.258 490.176 421.822 490.853 422.5C491.531 423.233 492.264 424.532 492.49 425.492C492.772 426.79 492.603 427.467 491.643 428.427C490.91 429.217 489.781 429.726 488.765 429.726C487.806 429.726 486.565 429.217 485.944 428.596C485.323 427.975 484.815 426.903 484.815 426.169C484.815 425.492 485.21 424.362 485.718 423.629C486.226 422.895 487.185 422.104 487.806 421.822ZM32.7875 442.145C32.7311 441.694 32.9004 441.411 33.0133 441.581C33.1826 441.75 33.9726 445.476 34.7627 449.879C35.5527 454.339 36.1735 458.347 36.1735 458.799C36.1735 459.42 35.4963 459.646 33.3518 459.646C31.4708 459.646 30.5302 459.401 30.5302 458.912C30.5302 458.573 31.0381 454.791 31.6589 450.613C32.2796 446.436 32.7875 442.597 32.7875 442.145ZM417.378 444.855C418.281 444.008 419.24 443.274 419.579 443.274C419.917 443.218 420.877 443.895 421.723 444.686C422.852 445.702 423.303 446.661 423.303 448.073C423.303 449.315 422.852 450.5 422.175 451.178C421.554 451.799 420.425 452.307 419.635 452.307C418.732 452.307 417.773 451.742 417.096 450.726C416.418 449.879 415.854 448.581 415.854 447.847C415.798 446.944 416.362 445.871 417.378 444.855ZM460.041 446.379C460.775 445.928 461.847 445.532 462.355 445.532C462.919 445.532 463.991 446.097 464.781 446.774C465.515 447.508 466.305 448.75 466.474 449.597C466.7 450.839 466.362 451.573 465.12 452.871C464.217 453.775 462.919 454.565 462.298 454.565C461.621 454.565 460.605 454.057 459.985 453.436C459.251 452.702 458.8 451.46 458.8 449.823C458.687 447.734 458.912 447.113 460.041 446.379ZM141.985 449.371L145.653 453.436C147.685 455.694 149.942 458.009 152.143 459.702L141.703 459.646L141.816 454.508L141.985 449.371ZM192.436 452.815L259.309 452.984C296.103 453.097 326.408 453.379 326.634 453.605C326.916 453.888 326.747 455.129 325.392 458.799L313.541 459.194C307.051 459.42 277.481 459.42 247.91 459.194C194.75 458.799 194.073 458.799 193.621 457.67C193.396 457.049 193.057 455.694 192.831 454.678L192.436 452.815ZM73.4757 194.316L72.1213 194.824L72.2906 218.591H89.2204C89.2204 231.97 89.0511 236.148 88.8254 236.486C88.4868 236.994 82.2792 237.22 64.5592 237.333C49.7174 237.446 40.5188 237.728 40.1238 238.067C39.7852 238.406 39.3902 242.979 39.108 249.696L38.713 260.818L26.6363 261.213C22.4039 265.447 22.3474 265.56 22.1781 270.415C22.0653 273.125 22.2346 278.431 22.4603 282.213C22.7425 285.996 23.0246 289.214 23.1939 289.383C23.3632 289.552 30.5302 289.948 39.108 290.173L54.7399 290.568C56.9972 288.367 57.9002 286.843 58.2388 285.77C58.5209 284.697 58.7467 282.326 58.7467 280.576V277.302L70.3154 277.358L88.2046 294.52C88.9947 305.02 89.2204 308.803 89.2204 309.65C89.2204 311.174 89.2204 311.174 85.4394 311.174C82.4485 311.117 81.3198 311.4 80.1912 312.247C79.0625 313.15 78.9496 313.488 79.514 314.109C80.0783 314.674 83.2385 314.9 91.9292 315.069C102.031 315.239 103.78 315.126 104.627 314.335C105.135 313.827 105.586 313.206 105.586 312.867C105.586 312.585 104.965 312.077 104.175 311.738C103.385 311.456 100.62 311.174 97.9675 311.174H93.1707V294.52L110.947 277.471C134.141 277.02 141.252 276.737 141.703 276.568C142.154 276.342 142.775 275.608 143.001 274.931C143.227 274.197 143.396 265.447 143.396 255.455V237.22H93.1707V218.591C106.658 218.365 107.956 218.139 108.803 217.292C109.706 216.389 109.818 215.091 109.818 205.042L109.875 193.751C82.7307 193.808 74.2093 194.034 73.4757 194.316ZM77.5388 198.268H105.022V213.51H91.7599C84.4801 213.51 78.1031 213.397 77.6517 213.228C76.9745 213.002 76.8052 211.873 76.8052 207.752C76.8052 204.873 76.9745 201.542 77.1438 200.413L77.5388 198.268ZM43.5662 241.172H89.2769L88.5432 255.568L70.9362 272.729L59.0853 272.786L58.7467 268.382C58.4081 264.713 58.1259 263.81 56.8844 262.624C55.53 261.326 54.9092 261.156 43.5662 260.931V241.172ZM93.2272 241.172H138.938V272.786H111.85L93.2836 255.568L93.2272 248.342V241.172ZM82.5049 267.423C86.681 263.245 90.3491 259.802 90.5748 259.802C90.8006 259.802 93.8479 262.511 97.3468 265.842C100.846 269.116 104.401 272.503 106.827 274.762L90.6877 290.117L74.8865 275.1L82.5049 267.423ZM27.8214 265.955H53.2162L53.442 267.253C53.6113 267.931 53.7241 272.278 53.7806 285.149H46.8393C43.0583 285.149 37.1893 284.98 27.765 284.302L27.8214 275.157V265.955ZM435.831 268.326C434.421 269.06 432.84 270.358 432.276 271.318C431.768 272.221 431.091 274.141 430.865 275.496L430.47 277.979L407.897 284.415C403.552 281.367 402.31 280.915 400.504 280.915C398.642 280.915 397.626 281.31 395.933 282.665C394.748 283.625 393.394 285.149 392.999 286.052C392.547 286.955 392.039 288.593 391.927 289.665C391.757 290.794 391.983 292.319 392.491 293.335C392.942 294.238 394.41 295.762 395.708 296.722L398.021 298.415V327.489C393.62 330.424 392.717 331.441 392.265 332.965C391.927 334.207 391.814 336.07 392.039 337.368C392.322 338.949 393.112 340.247 394.635 341.715C396.611 343.578 397.175 343.86 399.714 343.86C402.028 343.86 402.931 343.522 404.906 341.941L407.333 340.078C423.078 345.497 428.439 347.53 429.454 347.981C430.696 348.659 431.26 349.336 431.26 350.183C431.26 350.917 431.825 352.385 432.558 353.457C433.292 354.53 434.759 355.998 435.831 356.732C436.904 357.409 438.653 357.974 439.782 357.974C440.854 357.974 442.603 357.409 443.676 356.732C444.748 355.998 446.215 354.53 446.949 353.457C447.682 352.385 448.247 350.691 448.247 349.788C448.19 348.094 448.359 348.038 456.26 344.82C460.662 343.07 466.531 340.868 469.24 339.909L474.206 338.215C478.1 339.965 479.849 340.473 480.526 340.473C481.203 340.473 482.671 339.965 483.799 339.4C484.984 338.78 486.226 337.368 487.016 335.9C487.75 334.546 488.314 332.795 488.314 332.005C488.258 331.215 487.806 329.578 487.185 328.336C486.621 327.094 485.21 325.457 484.082 324.666L482.106 323.255V299.262C485.379 296.778 486.79 295.028 487.355 293.843C488.145 292.262 488.37 290.907 488.145 289.101C487.975 287.689 487.467 285.714 486.96 284.697C486.452 283.681 485.436 282.496 484.759 282.044C484.082 281.592 482.219 281.028 480.696 280.802C478.212 280.463 477.535 280.576 475.447 281.931L473.077 283.455L448.247 276.963C448.247 273.915 447.739 272.108 447.174 271.036C446.554 269.963 445.256 268.608 444.183 268.044C443.168 267.536 441.418 267.084 440.346 267.084C439.217 267.084 437.186 267.649 435.831 268.326ZM437.807 272.729C438.653 271.77 439.725 271.036 440.233 270.979C440.741 270.979 441.475 271.318 441.87 271.713C442.208 272.108 442.716 273.181 442.885 274.141C443.111 275.213 442.942 276.455 442.378 277.641C441.87 278.657 440.854 279.786 440.177 280.125C439.104 280.633 438.653 280.52 437.299 279.109C436.057 277.867 435.775 277.189 436.001 275.947C436.226 275.1 437.016 273.633 437.807 272.729ZM445.989 282.722C445.989 281.875 446.271 281.197 446.666 281.197C447.061 281.197 452.084 282.439 457.84 284.02C463.54 285.544 468.957 287.125 469.86 287.52C470.763 287.915 471.779 288.762 472.061 289.383C472.4 290.004 472.456 290.569 472.174 290.625C471.892 290.681 470.763 291.359 469.691 292.093C468.562 292.827 465.967 294.577 463.879 296.044C460.493 298.415 459.759 298.698 453.89 298.698L449.94 291.472C447.795 287.52 445.989 283.568 445.989 282.722ZM421.441 284.923C427.649 283.23 433.066 281.931 433.461 281.988C433.913 282.044 434.195 282.665 434.138 283.455C434.082 284.246 431.43 288.818 428.269 293.617C423.078 301.633 422.344 302.424 420.594 302.819C419.24 303.045 418.224 302.932 417.491 302.424C416.87 302.028 414.5 299.601 412.242 297.117C409.985 294.577 408.123 292.036 408.123 291.472C408.123 290.964 408.574 289.948 409.139 289.27C409.872 288.254 412.75 287.294 421.441 284.923ZM398.247 286.673C399.037 285.544 400.109 284.584 400.561 284.584C401.012 284.584 401.915 285.375 402.48 286.391C403.1 287.407 403.665 288.762 403.665 289.383C403.665 290.004 403.157 291.189 402.536 292.036C401.915 292.883 400.956 293.617 400.391 293.617C399.827 293.617 398.811 292.996 398.134 292.319C397.401 291.641 396.836 290.568 396.836 289.948C396.78 289.327 397.457 287.859 398.247 286.673ZM437.637 287.52C438.879 285.883 440.12 284.584 440.402 284.584C440.685 284.584 441.87 286.165 443.055 288.085C444.24 290.06 446.271 293.561 447.569 295.875C448.867 298.19 449.883 300.73 449.883 301.52C449.883 302.311 449.714 303.214 449.488 303.553C449.262 303.948 445.256 305.021 440.628 306.037C435.944 307.053 431.655 307.956 431.035 308.125C430.188 308.238 429.454 307.674 426.802 303.779L431.091 297.117C433.518 293.504 436.452 289.157 437.637 287.52ZM477.422 285.488C478.269 285.036 479.398 284.641 479.962 284.641C480.526 284.584 481.486 285.375 482.106 286.391C482.953 287.802 483.179 288.818 482.953 290.512C482.784 291.754 482.332 293.109 481.937 293.504C481.542 293.899 480.526 294.238 479.68 294.181C478.438 294.181 478.043 293.843 477.817 292.601C477.592 291.754 477.084 290.004 476.689 288.649C475.899 286.278 475.899 286.278 477.422 285.488ZM472.738 294.746L477.648 299.545L477.479 310.948C477.366 317.158 477.084 322.521 476.858 322.803C476.576 323.029 473.811 320.658 464.894 311.682V300.674L468.788 297.738L472.738 294.746ZM403.834 297.23C404.511 296.722 405.245 296.609 405.809 296.948C406.317 297.23 408.518 299.206 410.606 301.295C414.5 305.133 414.5 305.133 413.879 307.109C413.54 308.238 413.258 309.763 413.258 310.496C413.258 311.287 413.992 313.206 416.475 317.553L411.904 322.465C408.123 326.529 407.051 327.376 405.64 327.432C404.68 327.432 403.608 327.263 403.213 327.037C402.649 326.699 402.536 323.368 402.649 312.303C402.818 299.149 402.875 297.964 403.834 297.23ZM454.793 304.738C455.357 303.891 456.316 303.214 456.824 303.214C457.389 303.158 458.235 303.327 458.687 303.44C459.138 303.609 459.702 304.569 459.872 305.585C460.041 306.601 459.928 307.956 459.59 308.69C459.251 309.367 458.461 310.214 457.84 310.496C457.219 310.835 456.317 310.948 455.865 310.779C455.414 310.666 454.736 309.537 454.341 308.408C453.833 306.545 453.89 306.093 454.793 304.738ZM419.409 308.069C420.087 307.222 420.877 306.545 421.215 306.545C421.497 306.545 422.118 306.771 422.626 306.996C423.134 307.222 423.924 308.125 424.319 308.972C424.771 309.819 424.996 311.287 424.827 312.19C424.658 313.263 424.15 313.997 423.416 314.166C422.795 314.335 421.836 314.335 421.272 314.222C420.764 314.053 419.861 313.15 419.297 312.247C418.789 311.287 418.281 310.271 418.281 310.045C418.224 309.763 418.789 308.859 419.409 308.069ZM444.014 309.65C445.538 309.255 447.287 308.916 447.795 308.859C448.472 308.859 449.319 309.819 450.222 311.513C451.35 313.658 451.52 314.505 451.125 315.86C450.843 316.819 448.642 322.521 446.271 328.561C443.845 334.658 441.588 339.909 441.249 340.36C440.91 340.755 439.895 340.981 438.992 340.925C437.524 340.699 437.186 340.078 427.874 317.553L430.188 312.755L435.662 311.569C438.709 310.948 442.434 310.101 444.014 309.65ZM458.461 315.239C459.815 314.843 461.226 314.561 461.621 314.505C462.016 314.505 464.33 316.65 466.7 319.303C469.127 321.956 471.271 324.497 471.497 324.948C471.723 325.4 471.666 326.699 471.328 327.884C470.933 329.013 470.82 330.933 471.046 332.118C471.328 334.037 471.215 334.32 469.804 334.997C468.957 335.392 463.822 337.425 458.405 339.513C452.987 341.546 448.134 343.239 447.682 343.239C447.231 343.296 446.667 343.07 446.441 342.844C446.215 342.618 446.892 340.021 447.964 337.029C449.037 334.094 451.238 328.11 455.978 315.86L458.461 315.239ZM414.895 325.513C419.861 320.489 420.369 320.094 424.206 320.432L428.326 330.029C430.583 335.279 432.615 340.473 432.84 341.489C433.235 343.183 433.179 343.296 431.881 343.296C431.091 343.296 425.561 341.715 419.635 339.739C409.703 336.521 408.744 336.126 408.518 334.828C408.405 334.037 408.574 332.852 408.913 332.174C409.308 331.497 411.96 328.505 414.895 325.513ZM476.463 328.731C476.915 328.336 478.156 328.053 479.228 328.053C480.357 328.053 481.711 328.505 482.276 329.07C482.84 329.578 483.235 330.65 483.235 331.441C483.235 332.231 482.84 333.416 482.389 334.094C481.937 334.828 481.034 335.392 480.413 335.392C479.793 335.392 478.495 334.602 477.592 333.699C476.632 332.739 475.842 331.384 475.786 330.707C475.729 329.973 476.012 329.07 476.463 328.731ZM398.586 332.57C399.658 331.666 400.674 330.876 400.843 330.82C401.012 330.82 401.746 331.271 402.48 331.836C403.608 332.683 403.777 333.134 403.439 334.941C403.27 336.126 402.705 337.481 402.197 337.933C401.746 338.384 400.843 338.78 400.222 338.78C399.658 338.78 398.642 338.271 398.021 337.65C397.401 337.029 396.836 336.013 396.78 335.392C396.667 334.771 397.401 333.642 398.586 332.57ZM437.411 345.949C438.089 345.159 438.822 344.989 440.064 345.215C440.967 345.385 442.095 346.005 442.49 346.514C442.885 347.078 443.168 348.207 443.168 349.054C443.168 349.901 442.66 351.143 442.039 351.764C441.418 352.385 440.402 352.893 439.782 352.893C439.161 352.893 438.145 352.385 437.524 351.764C436.904 351.143 436.339 350.183 436.339 349.618C436.283 349.11 436.283 348.264 436.396 347.812C436.452 347.36 436.904 346.514 437.411 345.949ZM417.491 55.554C415.911 56.2314 413.427 57.9815 411.96 59.3363C410.437 60.7477 408.574 63.0058 407.728 64.4171C406.543 66.5059 406.204 67.9172 405.978 72.4335C405.753 75.99 405.866 77.9659 406.204 77.9659C406.486 77.9659 406.825 78.4175 406.825 78.9256C406.881 79.4901 407.333 80.845 407.784 81.9176C408.292 82.9902 409.985 85.079 411.509 86.5468C413.089 88.0145 415.741 89.8775 417.321 90.6679C419.917 91.9098 420.99 92.0792 425.109 91.9663C428.89 91.8534 430.47 91.5147 432.728 90.442C434.251 89.6517 435.775 88.8049 436.114 88.5791C436.396 88.2968 437.299 87.6194 438.089 87.0549C438.879 86.4903 440.177 85.0225 441.08 83.837C441.926 82.595 442.998 79.9982 443.45 77.9659C443.901 75.9336 444.24 73.4496 444.296 72.4335C444.296 71.4173 444.014 69.8931 443.619 69.0463C443.281 68.1995 442.885 67.0704 442.773 66.5059C442.66 65.9978 441.983 64.5865 441.305 63.401C440.572 62.2719 438.992 60.2961 437.75 59.1105C436.565 57.925 434.533 56.4572 433.292 55.7798C431.599 54.933 429.68 54.5943 425.673 54.4249C420.99 54.2556 419.917 54.4249 417.491 55.554ZM419.184 60.2396C420.425 59.788 422.965 59.3928 424.827 59.3928C426.915 59.3364 429.059 59.7315 430.47 60.3525C431.712 60.917 433.8 62.6671 435.154 64.1913C436.509 65.7156 437.807 67.8608 438.089 68.9334C438.427 70.006 438.653 72.0948 438.653 73.5625C438.653 75.0303 438.258 77.232 437.75 78.3611C437.299 79.5466 436.283 81.2966 435.493 82.3128C434.759 83.3289 433.066 84.7967 431.712 85.5871C430.414 86.321 428.044 87.1678 426.52 87.3371C424.488 87.6194 422.852 87.45 420.877 86.7726C419.297 86.2081 417.039 84.9661 415.854 84.0064C414.669 82.9902 413.145 81.1837 412.468 79.9417C411.565 78.1917 411.283 76.611 411.283 73.1674C411.283 69.2721 411.509 68.3124 412.75 66.1107C413.597 64.6994 414.895 63.0058 415.572 62.3284C416.306 61.6509 417.942 60.6912 419.184 60.2396ZM33.4647 67.5785C32.7875 68.4253 32.2232 69.5544 32.2796 70.1189C32.2796 70.6834 32.7311 71.5867 33.1826 72.0383C33.634 72.4899 34.8755 72.8851 35.9478 72.8851C37.02 72.8851 38.3179 72.4899 38.7694 72.0383C39.2773 71.5867 39.6723 70.6834 39.6723 70.0624C39.6723 69.4415 39.5595 68.5382 39.4466 68.0866C39.3337 67.635 38.8258 67.2398 38.3179 67.2398C37.8101 67.2398 37.415 66.9575 37.415 66.6753C37.415 66.3365 36.7943 66.1107 36.0606 66.1107C35.2141 66.1107 34.1419 66.7317 33.4647 67.5785ZM48.1373 66.7882C47.6858 67.1269 47.4036 67.2398 47.4601 66.9011C47.5729 66.6188 47.2343 66.7882 46.7264 67.2398C46.2185 67.6914 45.8235 68.6511 45.8235 69.3286C45.88 70.0625 46.4443 71.0222 47.1215 71.4738C47.8551 71.9254 49.0966 72.3206 49.9431 72.3206C50.9589 72.3206 51.749 71.9254 52.0876 71.1915C52.3697 70.5705 52.6519 69.6673 52.6519 69.2157C52.6519 68.764 52.0876 67.8608 51.354 67.2398C50.6768 66.6188 49.8303 66.1107 49.4917 66.1107C49.2095 66.1107 48.5887 66.393 48.1373 66.7882ZM60.6654 67.2398C59.9882 67.5785 59.311 68.3124 59.1417 68.9334C58.9724 69.5544 58.9724 70.5705 59.1417 71.1915C59.311 71.8689 60.0446 72.4335 60.9475 72.6028C61.9069 72.7722 63.0356 72.5464 63.7692 72.0383C64.5028 71.5867 65.2364 70.4576 65.4057 69.6108C65.575 68.764 65.5186 67.9172 65.2364 67.6914C65.0107 67.4656 64.1642 67.1833 63.3742 67.014C62.5841 66.8446 61.399 66.9575 60.6654 67.2398ZM69.0739 107.209C68.6789 107.378 66.1394 109.015 63.4306 110.822C60.7782 112.572 55.8121 116.185 52.4262 118.725C49.0402 121.322 45.9928 123.862 45.6542 124.427C45.1463 125.33 45.4285 125.838 47.6294 127.814C49.0402 129.112 53.3855 132.33 57.223 134.927C61.0604 137.58 65.2364 140.403 66.478 141.306C67.7195 142.21 69.4125 142.887 70.259 142.887C71.2748 142.887 71.952 142.492 72.1213 141.871C72.2906 141.363 72.2906 140.516 72.1213 140.064C72.0084 139.613 71.2748 138.935 70.5976 138.54C69.8639 138.201 65.4622 135.209 60.8347 131.935C56.1507 128.604 52.0876 125.838 51.8054 125.669C51.4668 125.556 51.9747 124.766 52.9341 123.975C53.837 123.128 58.4081 119.741 63.092 116.41C67.7195 113.08 71.7262 109.805 71.952 109.241C72.2341 108.564 72.1213 107.886 71.6698 107.434C71.3312 107.039 70.7104 106.701 70.4283 106.757C70.0897 106.813 69.5253 106.983 69.0739 107.209ZM113.599 107.096C113.148 107.265 112.866 107.886 112.922 108.507C112.979 109.072 114.22 110.539 115.744 111.668C117.211 112.854 121.782 116.241 125.902 119.177C129.965 122.112 133.351 124.766 133.351 125.104C133.351 125.387 131.037 127.362 128.159 129.395C125.281 131.427 120.936 134.419 118.509 136C116.139 137.637 113.882 139.443 113.599 140.064C113.261 140.685 113.148 141.589 113.317 142.04C113.487 142.492 114.107 143 114.728 143.169C115.462 143.339 117.098 142.605 119.356 141.081C121.331 139.782 125.958 136.564 129.683 133.967C133.407 131.314 137.301 128.379 138.317 127.419C139.333 126.459 140.123 125.387 140.123 125.104C140.123 124.766 139.333 123.749 138.317 122.733C137.301 121.774 132.617 118.217 127.99 114.886C123.306 111.556 118.735 108.338 117.832 107.773C116.873 107.209 115.744 106.757 115.292 106.813C114.841 106.813 114.051 106.983 113.599 107.096ZM468.562 111.556C467.095 112.007 465.007 113.418 463.596 114.773C462.186 116.185 460.718 118.386 460.098 120.136C459.477 121.774 458.969 124.032 458.969 125.104C458.969 126.177 459.195 127.193 459.533 127.362C459.815 127.532 459.985 127.87 459.815 128.209C459.646 128.491 459.872 129.564 460.323 130.58C460.775 131.596 461.621 132.951 462.186 133.572C462.75 134.193 464.104 135.379 465.176 136.169C466.249 136.959 468.788 138.032 470.82 138.597C473.416 139.274 474.883 139.387 475.899 139.048C476.689 138.71 477.479 138.484 477.705 138.427C477.987 138.371 479.003 138.032 479.962 137.637C480.978 137.185 482.784 135.717 483.969 134.363C485.097 133.008 486.452 130.75 486.903 129.338C487.355 127.927 487.75 125.951 487.75 124.935C487.75 123.919 487.467 123.016 487.185 122.846C486.847 122.677 486.734 122.282 486.903 121.999C487.072 121.661 486.847 120.588 486.452 119.572C486 118.556 484.815 116.749 483.743 115.564C482.671 114.378 480.808 112.854 479.567 112.233C478.325 111.612 475.899 111.047 474.206 110.935C472.4 110.765 470.03 111.047 468.562 111.556ZM468.845 117.201C469.748 116.749 472.005 116.354 473.754 116.354C476.519 116.354 477.31 116.58 478.777 117.878C479.736 118.725 480.921 120.193 481.429 121.153C481.993 122.282 482.163 123.806 481.993 125.669C481.824 127.193 481.26 129.225 480.752 130.185C480.188 131.088 479.059 132.387 478.269 133.008C477.14 133.798 475.842 134.137 473.585 134.137C470.933 134.137 470.086 133.855 468.28 132.443C467.039 131.483 465.628 129.677 465.064 128.322C464.386 126.798 464.161 125.274 464.386 124.088C464.556 123.072 465.289 121.322 465.967 120.136C466.587 118.951 467.885 117.652 468.845 117.201ZM404.793 196.122C403.382 196.518 400.956 197.534 399.432 198.493C397.852 199.397 395.708 200.921 394.635 201.937C393.563 202.897 391.927 205.042 390.967 206.736C389.444 209.558 389.331 210.236 389.331 215.429C389.331 220.567 389.5 221.357 390.967 224.405C391.983 226.325 393.958 228.922 395.764 230.615C397.457 232.196 399.996 234.059 401.407 234.736C403.89 235.978 404.455 236.035 423.247 236.035H442.603C448.867 232.76 451.689 230.785 452.874 229.543C454.116 228.301 455.809 225.873 456.599 224.18C457.897 221.47 458.122 220.341 458.122 215.712C458.122 211.365 457.897 209.84 456.881 207.808C456.204 206.397 454.285 203.856 452.648 202.163C450.899 200.3 448.247 198.324 446.271 197.364L442.885 195.727C412.073 195.445 406.656 195.558 404.793 196.122ZM407.163 200.3C409.139 200.243 417.829 200.187 426.52 200.187C441.193 200.187 442.49 200.243 444.522 201.316C445.764 201.937 447.852 203.687 449.206 205.268C450.56 206.792 452.197 209.502 452.818 211.195C453.664 213.453 453.89 215.034 453.664 217.123C453.495 218.647 452.987 220.905 452.479 222.034C452.028 223.22 450.447 225.365 448.924 226.889C446.949 228.865 445.538 229.768 443.45 230.277C441.362 230.841 436.17 231.01 423.98 230.898C414.838 230.841 406.091 230.615 404.624 230.446C402.367 230.164 401.52 229.656 399.094 227.285C397.513 225.704 395.82 223.672 395.313 222.768C394.805 221.809 394.297 220.68 394.127 220.228C394.015 219.776 393.902 217.744 393.902 215.712C393.902 213.623 394.297 211.139 394.861 209.897C395.369 208.768 396.723 206.736 397.908 205.381C399.15 204.082 400.899 202.614 401.915 202.163C402.875 201.711 403.721 201.09 403.665 200.864C403.665 200.639 405.245 200.413 407.163 200.3ZM237.47 238.632C236.962 239.083 236.567 240.212 236.567 241.172C236.623 242.188 237.018 242.979 237.752 243.374C238.373 243.656 239.106 243.938 239.445 243.938C239.727 243.938 240.517 243.43 241.138 242.809C241.759 242.188 242.266 241.285 242.266 240.833C242.266 240.382 241.759 239.478 241.138 238.857C240.517 238.236 239.614 237.728 239.219 237.728C238.768 237.728 237.978 238.124 237.47 238.632ZM278.44 238.575C277.706 239.083 277.142 239.93 277.198 240.438C277.198 240.946 277.65 241.962 278.101 242.64C278.553 243.374 279.456 243.938 280.077 243.938C280.697 243.938 281.6 243.374 282.052 242.64C282.503 241.962 282.898 241.059 282.898 240.664C282.898 240.269 282.39 239.478 281.77 238.857C281.149 238.236 280.472 237.728 280.189 237.728C279.964 237.728 279.174 238.124 278.44 238.575ZM260.889 258.729C260.438 259.068 260.156 259.689 260.156 259.971C260.212 260.31 260.664 260.987 261.172 261.439C261.962 262.173 261.962 262.342 260.889 263.245C259.874 264.148 259.817 264.374 260.551 265.503C260.946 266.237 261.792 266.858 262.357 266.971C262.921 267.084 264.106 266.463 264.952 265.673C266.194 264.6 266.533 263.753 266.533 262.003C266.533 260.761 266.138 259.35 265.686 258.898C265.235 258.447 264.106 258.052 263.259 258.052C262.413 258.052 261.341 258.334 260.889 258.729ZM266.25 273.012C264.05 274.084 262.526 274.423 259.479 274.423C256.883 274.366 254.343 273.971 252.142 273.181C250.336 272.56 248.474 272.165 248.079 272.391C247.684 272.56 247.345 273.35 247.345 274.141C247.345 275.326 247.91 275.834 250.844 277.189C252.819 278.092 255.641 278.996 257.221 279.221C259.14 279.447 261.228 279.278 263.711 278.713C265.743 278.205 268.395 277.076 269.636 276.229C271.217 275.1 271.894 274.254 271.894 273.237C271.894 272.165 271.555 271.826 270.483 271.77C269.693 271.713 267.774 272.278 266.25 273.012ZM255.81 401.386C255.02 401.612 253.553 402.402 252.481 403.193C251.465 403.926 249.998 405.564 249.264 406.806C248.361 408.273 247.853 410.023 247.797 411.886C247.74 413.975 248.079 415.386 249.208 417.362C250.111 418.943 251.747 420.749 253.102 421.596C254.795 422.725 256.318 423.233 258.576 423.346C261.059 423.516 262.244 423.233 264.275 422.161C265.686 421.427 267.548 419.733 268.508 418.435C270.031 416.29 270.201 415.556 270.201 411.943C270.201 408.443 269.975 407.539 268.733 405.902C267.943 404.83 265.912 403.249 264.219 402.402C262.469 401.499 260.325 400.878 259.196 400.934C258.124 400.934 256.6 401.16 255.81 401.386ZM255.81 406.41C257.165 405.733 258.463 405.451 260.043 405.62C261.284 405.789 262.921 406.354 263.711 406.975C264.501 407.539 265.46 408.951 265.799 410.08C266.42 411.83 266.363 412.507 265.63 414.257C265.178 415.443 264.332 416.854 263.824 417.419C263.316 417.983 261.905 418.661 260.72 418.943C259.479 419.282 258.124 419.282 257.334 418.999C256.657 418.717 255.246 417.645 254.23 416.628C253.214 415.556 252.199 414.088 252.029 413.298C251.86 412.451 252.142 410.983 252.763 409.685C253.384 408.386 254.625 407.088 255.81 406.41ZM404.85 208.881C403.777 209.445 402.31 210.8 401.577 211.816C400.843 212.889 400.222 214.47 400.222 215.429C400.279 216.389 400.956 218.083 401.915 219.381C403.044 221.018 404.229 221.865 405.978 222.373C407.333 222.768 409.139 222.994 409.985 222.825C411.001 222.599 412.242 221.526 413.54 219.776C414.613 218.308 415.516 216.446 415.516 215.542C415.516 214.695 414.838 213.002 413.935 211.76C413.089 210.518 411.565 209.107 410.549 208.655C409.59 208.203 408.292 207.808 407.728 207.808C407.22 207.808 405.865 208.26 404.85 208.881ZM406.204 213.792C406.486 213.623 407.163 213.453 407.728 213.453C408.292 213.453 409.082 214.074 409.421 214.865C410.042 216.05 409.985 216.446 409.308 217.179C408.631 217.857 408.179 217.913 407.163 217.462C406.486 217.123 405.866 216.276 405.809 215.486C405.753 214.808 405.922 214.018 406.204 213.792ZM435.041 209.784C433.856 210.574 432.897 211.591 432.953 212.042C432.953 212.494 432.671 212.945 432.276 213.058C431.825 213.171 431.655 214.074 431.712 215.599C431.825 217.066 432.333 218.478 433.123 219.438C433.856 220.228 435.154 221.357 436.114 221.921C437.016 222.542 438.484 222.994 439.33 223.051C440.233 223.051 441.587 222.655 442.434 222.26C443.337 221.809 444.635 220.792 445.425 219.946C446.497 218.76 446.836 217.857 446.779 215.768C446.779 214.187 446.328 212.55 445.651 211.534C445.086 210.631 443.901 209.558 442.998 209.107C442.152 208.711 440.515 208.373 439.33 208.373C438.032 208.373 436.396 208.881 435.041 209.784ZM437.581 214.3C437.919 213.849 438.709 213.453 439.274 213.453C439.838 213.453 440.685 214.074 441.023 214.865C441.644 216.05 441.588 216.446 440.91 217.179C440.402 217.687 439.556 217.913 438.766 217.744C438.089 217.518 437.412 216.897 437.242 216.276C437.073 215.655 437.242 214.752 437.581 214.3Z"
          fill="white"
          style="fill: white; fill-opacity: 1"
        />
      </svg>