<svg
        width="507"
        height="321"
        viewBox="0 0 507 321"
        fill="none"
        xmlns="http://www.w3.org/2000/svg"
      >
        <path
          d="M181.981 133.069C181.869 132.574 182.259 132.128 182.816 131.979C183.318 131.88 188.331 131.781 193.957 131.732C199.527 131.732 204.485 131.781 204.93 131.93C205.432 132.078 205.766 132.524 205.766 132.92C205.766 133.316 205.209 133.812 204.54 133.96C203.816 134.059 198.524 134.158 192.676 134.059C183.15 133.911 182.092 133.861 181.981 133.069Z"
          fill="#FF5A1F"
          style="
            fill: #ff5a1f;
            fill: color(display-p3 1 0.3529 0.1216);
            fill-opacity: 1;
          "
        />
        <path
          d="M25 207C42.1859 209.768 50.6812 209.693 64 207L61 216.5C47.8499 218.333 40.2772 218.203 26.5 216.5L25 207Z"
          fill="#FF5A1F"
          style="
            fill: #ff5a1f;
            fill: color(display-p3 1 0.3529 0.1216);
            fill-opacity: 1;
          "
        />
        <path
          d="M485 69H507V82H485V69Z"
          fill="#FF5A1F"
          style="
            fill: #ff5a1f;
            fill: color(display-p3 1 0.3529 0.1216);
            fill-opacity: 1;
          "
        />
        <path
          d="M454 108.5C454 113.194 450.194 117 445.5 117C440.806 117 437 113.194 437 108.5C437 103.806 440.806 100 445.5 100C450.194 100 454 103.806 454 108.5Z"
          fill="#FF5A1F"
          style="
            fill: #ff5a1f;
            fill: color(display-p3 1 0.3529 0.1216);
            fill-opacity: 1;
          "
        />
        <path
          fill-rule="evenodd"
          clip-rule="evenodd"
          d="M356.776 0.445706C354.771 0.643798 350.537 1.43617 347.306 2.17902C344.076 2.87234 339.341 4.11042 336.723 4.85326C334.105 5.64563 329.593 6.73515 326.696 7.32943C323.577 7.92371 320.346 8.91417 318.898 9.75606C317.505 10.4989 315.723 11.8856 314.943 12.8265C314.163 13.7674 313.216 15.3522 312.826 16.2931C312.492 17.2341 312.214 18.7198 312.214 19.5121C312.214 20.3045 312.492 21.8397 312.771 22.8797C313.105 24.0187 314.275 25.5044 315.834 26.8416C318.062 28.7234 318.285 29.1692 318.341 31.1501C318.341 32.3882 317.784 37.291 317.171 42.0452C316.503 46.7994 315.946 52.5936 315.89 54.9212C315.779 58.8335 315.556 59.5269 312.826 64.8258C311.211 67.9458 309.373 71.66 308.76 72.9972C307.98 74.8295 307.813 75.9686 308.092 77.4543C308.314 78.5438 309.039 79.8809 309.707 80.4256C310.375 80.9704 312.436 81.7628 314.219 82.258C316.558 82.8523 317.673 83.397 318.118 84.2389C318.508 84.8332 319.344 88.4979 320.012 92.3112C320.68 96.1245 321.739 100.235 322.296 101.473C322.909 102.711 324.078 104.296 324.914 105.088C325.749 105.831 327.198 106.673 328.089 106.921C328.98 107.168 331.654 107.564 333.938 107.812C336.222 108.06 340.622 108.159 343.686 108.06L349.256 107.861C353.768 113.458 355.105 115.339 355.105 115.587C355.105 115.835 353.489 117.519 351.428 119.301C349.423 121.084 347.473 122.966 347.139 123.511C346.805 124.056 346.359 125.838 346.137 127.473C345.97 129.107 346.025 131.633 346.248 133.069L346.749 135.644C338.84 143.518 335.386 147.331 333.938 149.263C332.489 151.194 330.373 154.413 329.203 156.444C328.033 158.474 326.028 162.634 324.747 165.606C323.41 168.577 321.572 173.529 320.569 176.501C319.566 179.472 318.564 182.295 318.341 182.691C317.951 183.335 315.667 183.285 299.291 181.998C280.909 180.611 280.686 180.611 272.943 181.403C268.654 181.849 256.845 183.087 246.763 184.177C236.681 185.266 224.872 186.455 220.583 186.901C216.294 187.346 208.774 188.089 203.872 188.634C198.97 189.179 185.49 190.664 173.96 191.952C162.429 193.239 152.848 194.23 152.681 194.081C152.514 193.933 152.737 190.367 153.182 186.158C153.684 181.948 154.241 175.906 154.464 172.786L154.854 167.091C183.318 166.546 200.53 166.2 211.392 165.952C229.105 165.556 231.445 165.407 233.673 164.516C235.065 164.021 236.848 162.783 237.683 161.842C238.519 160.95 239.41 159.267 239.689 158.177C239.967 156.989 240.023 153.274 239.744 149.015C239.466 145.053 238.909 134.604 238.408 125.739C237.962 116.875 237.182 103.058 236.736 95.035C236.291 87.0122 235.678 75.7705 235.344 70.0258C235.065 64.3306 234.508 54.6241 234.23 48.4832C233.896 42.3423 233.394 33.7748 233.116 29.4168C232.893 25.0587 232.336 20.7997 232.002 20.0074C231.668 19.215 230.553 17.7788 229.607 16.8874C228.604 15.9465 227.044 14.8569 226.153 14.4608C224.649 13.817 214.121 13.7179 134.355 13.7674C68.8485 13.817 43.9494 13.9655 43.0582 14.3617C42.3341 14.6589 41.1643 15.4017 40.4959 15.996C39.7717 16.5407 38.7691 17.7293 38.2678 18.5217C37.4879 19.7102 37.3208 21.2454 37.4322 26.693C37.4879 30.3577 38.0449 41.8471 38.7134 52.1974C39.3261 62.5478 40.4402 81.4656 41.22 94.2921C41.9998 107.119 43.1139 125.244 43.7266 134.654C44.3951 144.063 45.0635 154.067 45.342 156.939C45.6762 160.851 46.0661 162.585 46.9574 163.872C47.5701 164.813 48.7956 166.101 49.6868 166.646C50.5224 167.24 52.2491 167.933 53.4746 168.23C54.9229 168.626 61.1616 168.726 71.8565 168.577C80.7689 168.478 95.0288 168.23 103.607 168.032C112.965 167.834 119.371 167.834 119.538 168.131C119.761 168.379 119.482 173.381 118.87 179.224C118.313 185.068 117.7 191.308 117.477 193.091C117.254 194.874 116.92 196.756 116.697 197.3C116.363 198.093 115.527 198.39 112.464 198.687C110.347 198.885 106.893 199.43 104.721 199.876C102.604 200.272 98.3153 200.717 95.2516 200.767C91.7981 200.817 85.1137 201.609 77.7053 202.748C71.1323 203.788 64.6151 204.679 63.2226 204.729C61.83 204.729 60.326 204.976 59.8804 205.224C59.4348 205.422 57.5409 205.719 55.7027 205.868C53.8645 205.967 51.6921 205.818 50.8566 205.521C49.9653 205.224 49.2969 204.63 49.2969 204.234C49.2969 203.837 49.9653 203.342 50.8566 203.194C51.6921 203.045 54.143 202.451 56.2597 201.906C58.4321 201.361 61.273 200.42 62.6655 199.777C64.0581 199.182 66.509 197.35 68.1801 195.765C69.7955 194.131 72.0236 191.358 73.0262 189.525C74.0846 187.643 75.0872 185.217 75.2544 184.078C75.5329 182.394 75.3658 181.701 74.4745 180.71C73.4162 179.571 73.0263 179.472 68.1244 179.472C63.5011 179.472 62.5541 179.67 59.3234 181.007C57.3181 181.849 54.7558 183.285 53.586 184.226C52.3605 185.167 50.7452 187.148 49.9096 188.634C49.0741 190.12 47.9043 192.992 47.2916 194.973C46.7346 196.904 46.1218 198.538 45.9547 198.538C45.7876 198.588 45.2863 198.192 44.785 197.697C44.0608 197.003 43.7823 195.22 43.5595 189.129C43.3367 183.682 42.8911 180.314 42.0555 177.491C41.4428 175.312 40.1059 172.242 39.1033 170.607C38.1007 169.023 36.0954 166.646 34.5357 165.358C32.8646 163.971 30.4694 162.634 28.5755 161.99C26.793 161.396 23.5065 160.653 21.3341 160.356C18.3262 159.91 16.9336 159.91 16.0424 160.356C15.0954 160.752 14.6498 161.495 14.427 163.03C14.2599 164.169 14.2599 166.646 14.4827 168.577C14.7055 170.508 15.3739 173.381 15.931 175.015C16.488 176.649 17.9363 179.522 19.1617 181.453C20.3315 183.384 22.5596 186.108 24.0079 187.594C25.5118 189.08 28.2413 191.209 30.0795 192.398C31.9177 193.537 35.4826 195.419 38.0449 196.508C42.0555 198.291 42.724 198.786 43.7266 200.668C44.3394 201.807 44.8407 203.144 44.8407 203.639C44.8407 204.382 44.0051 204.531 38.0449 204.778C34.2572 204.927 29.3553 204.976 27.1272 204.877C23.1723 204.729 23.0609 204.778 22.7267 205.967C22.5596 206.66 22.7267 208.096 23.0609 209.186C23.3951 210.275 23.9522 213.296 24.2307 215.872C24.5649 218.447 25.1776 222.904 25.6232 225.776C26.0689 228.649 26.9044 232.115 27.4614 233.502C27.9628 234.888 28.9097 236.572 29.5224 237.315C30.1352 238.008 31.9734 238.999 33.7001 239.593C35.3712 240.138 38.8805 240.732 41.4985 240.881C44.2837 241.079 48.0714 240.98 50.6895 240.683C53.1404 240.336 56.0369 239.742 57.0953 239.247C58.2093 238.751 59.5462 237.563 60.2703 236.424C60.9388 235.334 61.9971 231.967 62.6098 228.995C63.2226 226.024 63.891 222.31 64.0581 220.824C64.2252 219.338 64.7265 215.723 65.1722 212.801C65.6178 209.83 66.0634 207.453 66.1748 207.453C66.2305 207.453 68.9042 207.007 72.135 206.512C75.3658 205.967 81.3817 204.976 85.5037 204.283C89.6257 203.639 94.1376 202.946 95.5301 202.748L98.0368 202.451C95.363 204.877 94.9731 205.719 94.9731 207.354C94.9731 209.186 95.2516 209.632 97.0898 210.919C98.2596 211.761 100.599 212.702 102.493 213.098C104.331 213.494 108.62 214.138 111.962 214.485C115.695 214.881 123.827 215.129 132.851 215.079C143.824 215.03 150.564 214.782 159.031 213.94C165.326 213.395 174.238 212.454 178.806 211.91C183.429 211.365 189.166 210.622 191.617 210.176C194.068 209.731 196.686 209.136 197.466 208.79C198.246 208.443 199.304 207.403 199.806 206.462C200.585 205.076 200.641 204.63 200.084 204.184C199.694 203.837 193.845 203.243 186.326 202.797C179.14 202.302 168.612 201.609 162.93 201.213C157.249 200.817 152.403 200.321 152.18 200.123C151.957 199.925 151.79 199.232 151.901 198.538C152.068 197.399 152.403 197.251 156.803 196.706C159.421 196.359 170.673 195.072 181.869 193.834C193.066 192.596 204.318 191.358 206.936 191.11C209.554 190.862 215.792 190.169 220.861 189.624C225.93 189.08 234.564 188.188 240.079 187.643C245.593 187.148 256.734 185.96 264.866 185.118C275.784 183.979 280.853 183.682 284.362 183.88C286.98 184.028 295.224 184.622 302.744 185.217C310.264 185.811 316.447 186.306 316.503 186.356C316.614 186.405 316.057 188.535 315.333 191.11C314.609 193.685 312.993 198.142 311.712 201.015C310.431 203.887 309.261 206.512 308.983 206.858C308.649 207.403 308.259 207.403 306.81 206.759C305.808 206.314 304.081 205.967 303.023 205.967C301.964 205.967 300.627 205.769 300.126 205.521C299.569 205.274 296.951 203.59 294.277 201.807C291.548 200.024 286.813 197.449 283.694 196.112C280.519 194.775 276.842 193.388 275.45 193.091C273.89 192.695 271.439 192.596 269.044 192.794C266.927 192.992 263.418 193.438 261.246 193.834C259.129 194.23 255.954 195.022 254.283 195.567C252.612 196.112 249.66 197.697 247.766 199.182C245.816 200.569 243.087 203.144 241.638 204.778C240.134 206.462 238.575 208.443 238.129 209.285C237.349 210.622 236.904 210.771 232.837 211.365C230.386 211.662 226.487 212.355 224.203 212.851C220.527 213.643 219.803 213.693 218.076 213.049C217.018 212.702 214.567 212.157 212.673 211.91C210.333 211.563 207.437 211.613 204.039 211.959C200.363 212.355 197.076 213.098 192.731 214.584C189.389 215.773 185.991 217.06 185.211 217.456C184.432 217.852 182.315 218.694 180.477 219.239C178.639 219.833 172.4 220.972 166.551 221.814C160.758 222.656 149.729 224.439 142.042 225.776C134.411 227.064 125.721 228.5 122.824 228.995C119.928 229.441 117.143 229.986 116.697 230.233C116.084 230.58 115.862 231.62 115.862 234.294C115.862 236.523 116.196 238.454 116.697 239.346C117.143 240.138 118.145 241.178 118.925 241.673C119.817 242.267 129.787 244.347 146.777 247.616C161.315 250.34 174.294 252.618 175.631 252.568C176.912 252.519 182.148 251.726 187.328 250.785C192.453 249.844 198.636 248.557 201.087 247.913L205.543 246.774C212.45 249.646 216.071 250.835 218.076 251.33C220.081 251.776 223.702 252.172 226.153 252.222C230.331 252.321 230.721 252.42 232.28 253.806C233.227 254.648 235.4 255.787 237.182 256.382C238.909 256.976 241.36 257.521 242.585 257.62C243.922 257.669 244.813 257.966 244.813 258.362C244.813 258.66 245.705 259.749 246.763 260.69C247.821 261.631 249.102 262.423 249.548 262.423C249.994 262.423 250.384 262.671 250.384 262.919C250.384 263.166 249.827 263.513 249.158 263.612C248.434 263.76 244.479 264.503 240.357 265.345C236.235 266.187 229.439 267.574 225.317 268.416C221.195 269.258 214.065 270.743 209.442 271.684C204.875 272.576 195.182 274.507 187.997 275.844C176.633 278.023 174.349 278.32 170.729 278.122C168.445 277.974 162.151 276.934 156.803 275.844C151.456 274.755 141.541 272.823 134.801 271.585C128.061 270.347 117.923 268.465 112.241 267.326C106.559 266.237 100.321 265.048 98.3153 264.652C96.31 264.256 85.4479 262.126 74.0846 259.898C62.7769 257.719 49.9653 255.243 45.6762 254.5C41.3871 253.707 31.1378 251.726 22.8381 250.092C14.5941 248.507 6.2387 246.873 4.28911 246.477C2.39522 246.13 0.668432 245.932 0.501324 246.081C0.389919 246.229 0.278514 246.824 0.278514 247.467C0.278514 248.062 0.668432 248.656 1.28116 248.755C1.78249 248.904 10.2493 250.538 20.053 252.469C29.8566 254.351 41.6656 256.58 46.2332 257.422C50.8566 258.214 59.212 259.799 64.8937 260.938C70.5753 262.077 83.8326 264.652 94.4161 266.682C105 268.713 119.148 271.387 125.888 272.625C132.628 273.863 144.27 276.092 151.79 277.627C161.649 279.558 167.052 280.4 171.286 280.598L177.135 280.846C219.469 272.278 236.235 268.911 241.75 267.821C247.264 266.732 253.28 265.741 255.118 265.593C258.071 265.345 259.797 265.642 270.158 268.317C276.62 270 282.413 271.338 283.137 271.338C283.805 271.338 284.362 271.486 284.362 271.734C284.362 271.932 282.914 272.328 281.187 272.675C279.405 272.972 261.691 276.587 241.75 280.697C221.864 284.758 198.692 289.562 190.392 291.345C182.036 293.128 174.405 294.613 173.514 294.613C172.623 294.613 169.281 294.168 166.161 293.573C162.986 293.029 151.901 290.899 141.485 288.869C131.068 286.838 116.14 283.817 108.342 282.233C100.543 280.598 90.5169 278.617 86.0607 277.776C81.6045 276.934 73.2491 275.349 67.4003 274.309C61.6072 273.219 50.6895 271.139 43.1696 269.604C35.6497 268.069 23.3951 265.642 15.8753 264.157C8.35541 262.671 1.78249 261.433 1.28116 261.433C0.557027 261.433 0.278514 261.829 0.278514 262.671C0.278514 263.414 0.668432 264.008 1.28116 264.157C1.78249 264.256 7.51987 265.395 13.9257 266.682C20.3872 267.92 29.5224 269.753 34.2572 270.644C38.9919 271.585 46.7903 273.17 51.525 274.111C56.2597 275.101 63.7796 276.537 68.2358 277.28C72.692 278.073 80.3233 279.509 85.2251 280.45C90.127 281.391 101.268 283.669 110.013 285.452C118.758 287.234 131.514 289.81 138.421 291.196C145.328 292.583 152.96 294.019 155.411 294.415C157.861 294.811 160.312 295.257 160.869 295.406C161.761 295.604 161.816 297.535 161.816 327.794V359.984C164.434 359.984 164.657 359.736 164.936 357.656C165.103 356.319 165.214 348.148 165.159 339.432C165.047 330.716 165.047 317.493 165.103 310.114L165.159 296.594C169.67 297.139 171.899 297.288 172.957 297.288C174.015 297.288 176.188 297.139 177.692 296.941L180.477 296.545V359.736L183.54 359.984V295.852C205.32 291.097 227.601 286.492 247.041 282.53C266.482 278.617 284.919 274.903 287.983 274.309L293.553 273.219C305.195 274.903 311.211 275.497 314.442 275.646L320.291 275.943C320.346 287.333 320.569 290.305 321.015 291.048C321.516 291.89 321.516 292.187 321.015 292.335C320.625 292.434 318.062 292.286 315.277 292.038C312.047 291.741 301.129 291.741 284.362 292.088C265.813 292.434 257.346 292.781 254.561 293.276C252.389 293.672 248.657 294.613 246.206 295.356C243.755 296.05 240.023 297.585 237.851 298.724C235.734 299.863 232.225 302.24 230.164 304.023C228.047 305.806 225.317 308.678 224.092 310.461C222.811 312.244 221.084 315.215 220.248 317.146C219.413 319.078 218.076 322.594 217.241 325.07C216.461 327.546 215.012 332.895 214.065 336.956C213.119 341.066 211.726 347.801 210.89 351.961C210.111 356.121 209.554 359.637 209.721 359.786C209.888 359.885 210.445 359.984 211.002 359.984C211.503 359.984 212.06 359.835 212.227 359.637C212.339 359.39 213.508 353.992 214.734 347.603C215.959 341.215 217.853 332.944 218.856 329.28C219.914 325.615 221.585 320.811 222.532 318.632C223.479 316.453 225.373 313.234 226.71 311.451C227.991 309.668 230.776 306.846 232.893 305.112C235.01 303.379 238.63 301.15 240.914 300.061C243.198 299.021 247.599 297.585 250.662 296.842C253.726 296.149 258.628 295.356 261.524 295.059C264.588 294.762 278.402 294.613 294.444 294.712L322.129 294.861C336.667 301.299 343.017 303.874 345.635 304.815C348.253 305.707 352.487 306.994 355.105 307.638C357.723 308.331 362.959 309.322 366.802 309.916C370.646 310.461 375.77 311.055 378.221 311.154L382.678 311.402C383.792 316.255 384.739 319.177 385.463 321.108C386.243 323.04 387.914 326.11 389.195 328.042C390.476 329.973 392.426 332.35 393.54 333.44C394.598 334.48 397.16 336.312 399.277 337.5C401.338 338.689 403.455 339.68 404.012 339.68C404.513 339.68 407.075 340.274 409.693 340.918C412.311 341.611 415.097 342.156 415.988 342.156C416.823 342.156 418.773 341.71 420.277 341.165C421.837 340.62 423.341 340.274 423.619 340.422C423.898 340.571 424.176 341.512 424.176 342.552C424.176 343.542 423.73 345.622 423.173 347.108C422.561 348.594 421.391 351.07 420.555 352.556C419.664 354.041 417.826 356.369 416.433 357.656L413.871 360.034C418.327 359.984 418.829 359.736 420.5 357.904C421.502 356.715 423.006 354.685 423.786 353.298C424.566 351.961 425.624 349.485 426.126 347.851C426.794 345.771 427.017 344.087 426.738 342.304C426.404 339.68 426.404 339.68 428.242 339.184C429.189 338.887 430.47 338.689 431.028 338.689C431.529 338.689 432.253 339.234 432.531 339.927C432.81 340.62 433.089 342.502 433.089 344.137C433.089 345.919 432.643 348.148 431.974 349.733C431.139 351.615 429.691 353.348 426.516 356.171L422.227 359.984C426.627 359.984 427.351 359.687 429.635 357.805C431.863 356.022 432.699 355.626 435.317 355.329C436.988 355.18 439.884 354.388 441.722 353.645C443.561 352.853 446.067 351.466 447.293 350.476C448.518 349.535 450.189 347.653 451.025 346.316C451.86 344.979 452.807 342.552 453.197 340.918C453.643 338.59 453.643 337.352 453.03 335.123C452.362 332.4 452.362 332.202 453.42 331.508C454.033 331.112 455.147 330.617 455.927 330.518C456.706 330.369 458.266 329.527 459.38 328.636C460.55 327.794 462.444 325.367 463.669 323.337C465.118 320.91 466.12 318.484 466.454 316.305C466.9 313.977 466.9 311.748 466.51 309.124C466.176 306.994 465.619 303.28 465.173 300.804C464.728 298.328 464.226 293.772 464.004 290.652C463.781 287.482 463.892 281.341 464.282 276.785C464.616 272.278 465.396 264.85 466.009 260.195C466.622 255.54 467.401 249.745 467.791 247.22C468.181 244.744 468.571 242.614 468.738 242.466C468.905 242.317 474.531 241.029 481.271 239.643C488.011 238.207 495.921 236.572 498.818 235.928C501.714 235.334 508.454 233.898 513.746 232.759C518.982 231.669 523.717 230.729 524.162 230.729C524.887 230.729 524.998 236.226 524.998 277.033C524.998 302.488 525.109 323.684 525.276 324.08C525.444 324.476 526.056 324.823 526.669 324.823C527.282 324.823 527.839 324.773 527.895 324.724C528.006 324.624 528.173 303.181 528.34 277.082L528.619 229.54C536.417 227.46 539.035 226.816 539.481 226.717C540.205 226.519 540.372 232.313 540.595 275.547C540.873 324.179 540.873 324.575 541.987 324.575C543.101 324.575 543.101 324.179 543.38 275.052L543.658 225.578C558.364 221.319 562.932 219.932 563.321 219.734C563.823 219.437 563.99 216.912 563.99 210.325C564.046 203.491 563.878 201.114 563.321 200.717C562.932 200.42 561.595 200.024 560.369 199.876C559.144 199.727 553.239 198.935 547.279 198.093C541.319 197.251 531.292 196.112 524.998 195.567L513.579 194.527C509.903 191.506 507.897 190.417 506.783 190.12C505.613 189.872 502.55 189.377 499.932 189.08C497.314 188.782 495.197 188.535 495.141 188.485C495.141 188.436 494.529 184.821 493.86 180.462C493.247 176.104 492.412 170.558 492.133 168.082C491.855 165.606 491.576 162.882 491.576 162.04V160.406C504.332 160.406 515.918 160.653 525.555 160.95C535.192 161.247 543.937 161.347 544.94 161.198C545.887 161.049 547.669 160.158 548.783 159.316C549.897 158.425 551.234 156.79 551.791 155.701C552.626 154.017 552.905 151.293 553.351 138.12C553.685 129.553 554.186 114.597 554.52 104.94C554.855 95.2826 555.356 80.4752 555.634 72.0067C555.913 63.5878 556.47 49.7708 556.804 41.3023C557.306 28.1292 557.306 25.7025 556.637 24.2168C556.192 23.2759 555.077 21.7407 554.186 20.7997C553.295 19.8588 552.014 18.9179 551.345 18.7198C550.621 18.4721 534.69 18.0264 515.974 17.7788C497.202 17.4817 464.338 17.036 443.004 16.7884L404.123 16.2931C398.72 11.8856 395.545 9.55797 393.54 8.27037C391.534 7.03229 388.025 5.19994 385.741 4.20948C383.457 3.26853 380.06 2.12949 378.221 1.68378C376.383 1.2876 372.651 0.693322 369.866 0.445706C367.081 0.19809 363.85 0 362.625 0C361.399 0.0495232 358.781 0.247613 356.776 0.445706ZM352.598 3.91233C356.609 3.11996 359.115 2.97138 365.41 3.11995C370.144 3.26852 374.545 3.66471 376.55 4.11042C378.388 4.55613 381.619 5.64564 383.792 6.53706C385.964 7.478 389.306 9.16179 391.311 10.3503C393.317 11.5389 397.216 14.5598 400.001 17.036C403.845 20.4531 405.516 22.3845 407.075 25.2073C408.245 27.2378 409.415 30.3577 409.749 32.1405C410.25 34.5672 410.25 36.6967 409.749 40.5595C409.359 43.4318 408.579 47.8889 407.911 50.4641C407.298 53.0393 405.516 58.9326 404.012 63.5878C402.508 68.243 400.447 73.6905 399.5 75.7209C398.497 77.7514 397.383 79.6828 397.049 80.0295C396.659 80.3761 395.768 80.5247 395.099 80.3761C394.375 80.2276 392.871 79.7323 391.701 79.2866C390.253 78.7419 388.805 77.4543 387.245 75.5229C385.964 73.8886 384.739 72.2543 384.516 71.9077C384.237 71.561 384.627 70.2239 385.296 68.9363C386.187 67.2029 386.521 65.6677 386.521 63.3401C386.465 61.2602 386.075 59.3288 385.351 57.8926C384.794 56.6545 383.29 54.6736 382.065 53.485C380.895 52.2965 379.224 51.0089 378.388 50.6622C377.497 50.266 375.715 49.9689 374.322 49.9689C372.93 49.9689 370.256 50.5136 368.362 51.207C366.022 52.0489 363.794 52.4451 361.678 52.4451C358.781 52.4451 358.336 52.2965 357.389 51.1079C356.832 50.3155 355.717 48.5327 354.882 47.1461C354.102 45.7099 353.211 43.1347 352.932 41.4509C352.598 39.47 352.598 37.3405 352.932 35.6072C353.211 34.1215 353.879 32.3386 354.325 31.6453C354.826 30.952 355.717 30.0606 356.33 29.6644C357.054 29.1196 357.277 28.6244 356.943 27.9806C356.72 27.4854 356.052 26.8416 355.55 26.6435C354.938 26.3463 350.76 26.5939 344.967 27.2377C338.394 27.9311 333.325 28.2282 328.924 28.0796C324.691 27.9311 321.795 27.5844 320.291 27.0397C318.731 26.4454 317.673 25.6035 316.726 24.1178C315.612 22.3349 315.444 21.4931 315.612 18.9179C315.779 16.3426 316.113 15.5998 317.505 14.3122C318.397 13.4208 320.123 12.3313 321.293 11.7865C322.407 11.2913 325.805 10.3008 328.813 9.65702C331.765 9.01322 337.224 7.6761 340.901 6.68563C344.577 5.69517 349.813 4.40756 352.598 3.91233ZM47.7929 16.4912C50.021 16.1941 52.0263 15.8969 52.3605 15.8474C52.6391 15.8474 51.8035 16.6398 50.4109 17.6798C48.8513 18.8683 47.9043 20.0569 47.7372 20.9978C47.5701 21.8397 47.9043 29.1692 48.4057 37.3405C48.907 45.5118 49.9096 62.2506 50.6895 74.4829C51.4136 86.7646 52.4162 103.256 52.9176 111.13C53.3632 119.054 54.0873 132.722 54.5886 141.587C55.0343 150.451 55.5356 159.068 55.7027 160.802C55.8698 162.535 56.3154 164.169 56.8168 164.615C57.2624 165.011 57.6523 165.457 57.6523 165.606C57.6523 165.754 56.9282 165.853 55.9812 165.853C55.09 165.853 53.6417 165.507 52.8062 165.061C51.9149 164.665 50.6338 163.476 49.8539 162.486C48.5728 160.703 48.4614 160.108 47.5144 144.558C47.0131 135.694 46.1775 122.322 45.6762 114.844C45.2306 107.366 44.3394 92.6579 43.7266 82.159C43.1139 71.66 42.1112 55.6145 41.4985 46.5023C40.8858 37.39 40.3845 27.6835 40.3845 24.9597C40.3845 20.0569 40.3845 20.0074 42.0555 18.5217C43.4481 17.3331 44.5622 16.9369 47.7929 16.4912ZM77.4268 16.7884C89.6814 16.6398 127.559 16.4912 161.538 16.3922C220.861 16.2931 223.424 16.3426 225.317 17.1845C226.376 17.7293 227.768 18.7693 228.381 19.5617C229.272 20.6512 229.607 22.1369 229.941 25.9501C230.164 28.6739 231.445 51.306 232.837 76.2162C234.174 101.126 235.567 125.739 235.901 130.939C236.179 136.139 236.625 144.162 236.792 148.768C237.126 156.444 237.071 157.385 236.124 159.118C235.344 160.554 234.453 161.347 232.837 161.941C230.888 162.684 226.209 162.882 194.681 163.575C174.906 164.021 145.217 164.615 128.673 164.912C112.13 165.259 90.5169 165.507 80.7132 165.556C63.5568 165.606 62.7212 165.556 61.5515 164.615C60.8831 164.07 60.1032 163.179 59.8804 162.634C59.6019 162.089 59.1563 157.632 58.8221 152.729C58.4878 147.827 57.5966 133.019 56.8168 119.797C56.0369 106.574 54.7001 82.9513 53.7531 67.302C52.8619 51.6527 51.8592 34.9138 51.5807 30.1596C51.1351 22.4835 51.1908 21.295 51.9706 19.8093C52.5276 18.9179 53.4189 17.8779 54.0316 17.5807C54.7558 17.2341 62.6098 16.9369 77.4268 16.7884ZM406.797 19.2645C406.741 19.1159 411.309 19.0169 416.935 19.116C422.616 19.1655 449.911 19.5121 477.651 19.8093C505.391 20.1064 531.515 20.5026 535.693 20.6512C542.099 20.9483 543.547 21.1464 544.884 22.0378C545.719 22.5826 546.833 23.8207 547.391 24.7616C548.226 26.2968 548.226 28.0301 547.78 42.5404C547.558 51.4051 547.056 67.8963 546.722 79.1876C546.444 90.4789 545.887 111.576 545.552 125.987C545.051 148.173 544.772 152.581 543.993 154.413C543.491 155.602 542.489 157.038 541.709 157.533C540.316 158.474 539.481 158.474 498.539 157.929C475.59 157.583 455.035 157.187 449.019 156.691L447.014 151.987C445.9 149.411 444.563 146.539 444.062 145.697C443.561 144.806 443.115 143.964 443.115 143.815C443.115 143.667 463.224 143.716 487.844 143.914C512.409 144.063 533.186 144.063 534.078 143.914C535.247 143.617 535.693 143.171 536.083 141.735C536.361 140.695 536.751 132.821 536.918 124.254C537.141 115.686 537.643 99.393 538.088 88.1017C538.534 76.8105 539.146 59.7745 540.205 32.8834L538.868 30.2091C538.144 28.773 537.141 27.3863 536.696 27.1882C536.25 26.9901 518.704 26.693 497.704 26.4949C476.704 26.3463 448.574 26.0492 435.15 25.8016C411.476 25.4549 410.807 25.4054 410.418 24.4644C410.25 23.9197 409.359 22.5826 408.468 21.4931C407.577 20.4035 406.853 19.4131 406.797 19.2645ZM547.948 21.394C546.444 20.0569 546.276 19.7597 547.112 19.7597C547.669 19.7597 549.117 20.354 550.343 21.1464C551.568 21.8892 553.016 23.3254 553.518 24.2664C554.353 25.8511 554.353 27.8815 553.406 55.6641C552.794 72.0067 551.958 97.7588 551.457 112.863C550.955 127.968 550.398 143.716 550.176 147.827C549.841 154.364 549.619 155.503 548.672 156.444C548.059 157.038 546.889 157.83 546.054 158.227C545.162 158.623 544.16 158.771 543.826 158.623C543.324 158.425 543.658 157.83 544.884 156.741C546.276 155.602 546.833 154.512 547.223 152.482C547.502 150.996 547.892 142.973 548.115 134.654C548.282 126.334 548.783 108.06 549.229 94.0445C549.674 80.0295 550.343 59.0811 550.733 47.4927C551.29 29.2187 551.29 26.1978 550.621 24.7121C550.176 23.7711 548.95 22.2854 547.948 21.394ZM412.367 28.4758C412.534 28.2282 418.327 28.1787 425.791 28.3768C433.033 28.5254 460.271 28.8225 486.285 28.9711C512.353 29.1692 534.078 29.4663 534.635 29.7139C535.136 29.9615 535.86 31.0015 536.194 32.0415C536.64 33.2796 536.751 37.2414 536.528 44.769C536.361 50.7613 535.693 70.4715 535.08 88.597C534.412 106.722 533.743 125.937 533.075 141.141L487.399 141.092C444.452 141.092 441.667 141.042 440.998 140.25C440.608 139.754 438.993 137.526 437.378 135.297C435.818 133.069 434.537 131.137 434.592 131.088C434.648 130.989 450.189 131.137 469.128 131.335C488.067 131.534 506.839 131.633 510.794 131.534C514.804 131.385 518.481 131.137 519.038 130.89C519.595 130.642 520.152 130.097 520.375 129.701C520.542 129.305 520.987 119.698 521.433 108.406C521.823 97.115 522.547 78.1476 523.048 66.3115C523.661 51.4546 523.772 44.3232 523.383 43.2833C523.048 42.4909 522.213 41.3023 521.544 40.6585C520.375 39.6185 519.706 39.5195 512.743 39.3214C508.621 39.1728 487.232 38.9747 425.29 38.5786L420.89 43.2833L420.555 50.7117C420.388 54.8222 420.054 65.6182 419.72 74.7305C419.441 83.8428 419.051 96.4712 418.829 102.711C418.55 112.715 418.606 114.2 420.277 116.082L421.112 115.092C421.781 114.299 421.948 112.517 421.948 106.425C421.948 102.216 422.227 93.2026 422.505 86.3684C422.784 79.5837 423.062 71.1153 423.118 67.5496C423.173 64.0335 423.341 60.2697 423.898 57.3974H469.574L469.128 68.8867C468.905 75.2257 468.348 90.776 467.903 103.454C467.457 116.132 467.067 126.928 467.067 127.473C467.067 128.463 466.733 128.463 432.531 128.216L427.128 123.214C423.452 119.846 419.887 117.172 416.266 115.042C412.868 113.061 410.919 111.625 411.142 111.279C411.309 110.932 411.086 109.298 410.585 107.663C410.139 106.029 408.858 102.959 407.799 100.879C406.296 98.0064 405.46 96.9664 404.569 96.8178C403.845 96.6693 402.285 96.4216 398.943 95.7778L398.72 92.5588C398.664 90.776 398.163 88.1513 397.717 86.7646C397.272 85.3284 396.492 84.0408 396.046 83.8923C395.601 83.7437 395.211 83.4466 395.211 83.1494C395.211 82.9018 395.768 82.6542 396.492 82.6542C397.16 82.7037 398.386 82.1094 399.277 81.4161C400.113 80.7228 401.394 78.9399 402.174 77.4543C402.953 75.9686 404.569 71.7591 405.85 68.1934C407.075 64.5782 409.081 58.0412 410.306 53.6831C411.699 48.5822 412.646 44.0756 412.813 41.0547C412.98 38.4795 412.868 34.6662 412.59 32.6358C412.311 30.6053 412.2 28.7234 412.367 28.4758ZM345.635 29.9615C347.919 29.5653 350.37 29.2682 352.32 29.1692L351.206 31.1501C350.537 32.3882 349.98 34.6662 349.757 37.2414C349.423 40.5595 349.59 41.8966 350.537 44.769C351.15 46.7004 352.32 49.0775 353.099 50.1175C353.879 51.1079 354.548 52.0489 354.548 52.1974C354.548 52.346 351.206 52.2965 347.195 52.1479C342.794 51.9993 338.895 51.5536 337.558 51.1079C336.054 50.6127 332.824 50.3651 327.421 50.3156C319.845 50.2165 319.455 50.167 319.455 49.226C319.455 48.6813 319.956 44.6699 320.569 40.3119C321.182 35.9538 321.683 32.1901 321.683 31.8929C321.683 31.5958 325.638 31.2491 331.543 31.0015C337.001 30.8034 343.351 30.3577 345.635 29.9615ZM425.569 42.689C426.404 41.5499 426.571 41.5499 439.94 41.5499C447.348 41.5499 468.181 41.6985 486.173 41.8966C518.202 42.2928 518.982 42.2928 519.595 43.2833C519.929 43.828 520.208 46.7003 520.263 55.0698L489.07 54.8717C471.913 54.7726 450.301 54.6736 441.054 54.6736C424.677 54.6736 424.232 54.6241 423.953 53.6831C423.786 53.1384 423.619 51.6032 423.619 50.2165C423.619 48.8794 423.898 46.8489 424.176 45.7594C424.455 44.6699 425.123 43.2833 425.569 42.689ZM319.789 55.565C320.012 54.1288 320.458 52.9403 320.792 52.9403C321.126 52.9403 321.906 53.2869 322.519 53.6831C323.298 54.2279 324.97 54.426 327.81 54.426C330.094 54.426 339.452 54.6736 348.532 55.0203C365.02 55.6641 365.076 55.6641 364.073 56.6545C363.516 57.1993 362.847 57.9916 362.625 58.3878C362.346 58.784 363.126 58.1897 364.351 57.1002C365.577 55.9117 367.805 54.5745 369.476 53.9803C371.036 53.4355 373.375 52.9403 374.601 52.9403C376.439 52.9403 377.219 53.2869 379.057 54.9212C380.282 56.0107 381.786 57.8431 382.399 59.0316C383.012 60.1707 383.513 62.1021 383.513 63.3401C383.513 64.7268 383.012 66.5096 382.176 68.0449C381.396 69.4315 379.725 71.6105 378.388 72.9476C377.052 74.2848 375.269 75.6714 374.322 76.1171C373.152 76.6124 371.816 76.7609 370.033 76.5133C367.861 76.2657 367.359 76.3647 367.359 76.959C367.359 77.3552 367.916 78.0485 368.641 78.4447C369.309 78.8409 370.813 79.1876 371.983 79.1876C373.097 79.1876 374.991 78.8409 376.16 78.3457C377.274 77.9 378.834 77.0581 379.558 76.5133C380.839 75.5229 380.895 75.5229 381.508 76.4143C381.842 76.9095 382.9 78.3952 383.792 79.6333C385.351 81.7628 385.63 81.9113 388.136 82.0599C390.197 82.1094 390.699 82.3075 390.643 82.9513C390.532 83.4466 391.144 84.1399 392.091 84.5856C392.983 85.0313 394.152 85.9227 394.654 86.616C395.434 87.557 395.712 89.0427 396.046 97.0159H394.375C393.484 97.0159 390.197 97.9073 387.134 99.0464C384.07 100.136 379.335 102.067 376.55 103.305C373.821 104.543 369.42 106.772 366.802 108.258C364.184 109.793 361.009 111.774 359.728 112.665C358.391 113.606 357.11 114.25 356.776 114.101C356.497 113.953 356.219 113.656 356.219 113.359C356.219 113.111 354.882 110.833 353.322 108.406C351.206 105.187 350.147 103.999 349.534 104.197C349.089 104.345 347.195 104.642 345.357 104.94C343.519 105.187 340.511 105.435 338.672 105.435C336.834 105.435 333.938 105.237 332.267 104.94C330.596 104.642 328.59 104.048 327.866 103.553C327.142 103.107 326.028 101.82 325.415 100.73C324.747 99.5911 323.744 95.8274 323.076 92.0636C322.407 88.3989 321.349 84.4865 320.792 83.4466C320.179 82.3571 319.232 81.218 318.619 80.8218C318.007 80.4752 316.28 79.8314 314.72 79.4352C313.216 78.9895 311.768 78.3952 311.545 78.0485C311.322 77.7019 311.1 76.8105 311.1 75.9686C311.1 75.1762 312.269 72.3534 316.224 65.0735L316.893 67.302C317.227 68.5401 317.895 70.0258 318.341 70.5705C318.787 71.1648 320.179 72.3534 321.405 73.1953C323.577 74.7305 323.744 74.78 329.482 74.78C334.383 74.78 335.497 74.6314 336.221 73.8886C336.723 73.3933 337.391 71.66 337.725 70.0258C338.06 68.3915 338.617 65.1725 338.951 62.8449C339.229 60.5173 339.508 58.3383 339.508 58.0412C339.508 57.5954 339.062 57.645 338.115 58.2888C337.224 58.8335 336.611 59.725 336.444 60.864C336.333 61.8049 335.999 64.3801 335.776 66.5096C335.442 69.2829 335.107 70.4715 334.495 70.6696C334.049 70.8181 333.102 71.3629 332.434 71.9077C331.71 72.5515 330.596 72.8981 329.37 72.8486C328.367 72.7991 326.418 72.2543 325.081 71.66C323.744 71.0162 322.184 69.9762 321.627 69.2829C321.126 68.5896 320.402 67.0544 320.068 65.8163C319.733 64.5782 319.455 62.3497 319.455 60.864C319.455 59.3783 319.622 56.9516 319.789 55.565ZM472.749 57.645L495.921 57.7935C508.733 57.8431 519.428 57.9916 519.706 58.0907C520.04 58.1897 520.152 61.2107 519.873 66.6087C519.706 71.2143 519.094 87.0122 518.592 101.721C518.035 116.429 517.478 128.562 517.255 128.711C517.088 128.859 506.505 128.859 470.688 128.463L470.744 119.797C470.744 115.042 471.078 101.671 471.412 90.0827C471.802 78.4942 472.247 66.4601 472.415 63.3401L472.749 57.645ZM398.664 98.6007C400.447 98.4026 402.174 98.3035 402.563 98.353C402.953 98.4026 403.845 99.5416 404.457 100.829C405.126 102.117 406.073 104.345 406.518 105.682C406.964 107.069 407.521 108.901 408.022 111.378L405.404 111.081C403.845 110.932 400.948 111.18 398.553 111.576C396.269 112.021 391.98 113.061 389.083 113.903C386.187 114.696 381.174 116.429 377.943 117.667C374.712 118.955 370.367 120.886 368.195 122.025C366.078 123.115 361.065 126.284 357.054 129.008C353.099 131.781 349.256 134.257 348.588 134.604C347.863 134.901 347.306 135 347.306 134.802C347.306 134.554 347.808 133.96 348.476 133.415C349.423 132.623 349.59 132.078 349.312 130.593C349.145 129.553 349.145 127.77 349.367 126.631C349.646 124.848 350.314 123.957 353.656 121.084C355.829 119.202 360.229 115.884 363.46 113.755C366.747 111.576 372.818 108.307 377.386 106.227C381.842 104.197 387.747 101.721 390.476 100.73C393.261 99.7397 396.937 98.7988 398.664 98.6007ZM400.781 114.101C404.012 113.507 407.131 113.111 407.744 113.21C408.357 113.359 410.975 114.696 413.593 116.231C416.211 117.766 420.611 121.035 423.341 123.511C426.126 125.987 430.136 130.295 432.309 133.168C434.537 136.04 437.656 140.844 439.383 143.815C441.054 146.787 443.059 150.848 443.839 152.729C444.619 154.661 446.012 158.87 447.014 162.139C448.017 165.407 448.908 168.23 449.019 168.478C449.131 168.676 449.688 168.626 450.245 168.379C450.746 168.181 451.359 167.388 451.638 166.646C451.86 165.853 451.693 164.219 451.136 162.535C450.691 160.95 450.356 159.663 450.468 159.663C450.579 159.663 452.473 159.712 458.712 159.91L458.879 164.12C458.935 166.447 458.99 168.626 458.99 168.973C458.99 169.32 458.545 169.468 457.876 169.32C457.263 169.221 455.648 169.122 454.256 169.171C452.863 169.171 449.242 169.468 446.179 169.716C443.115 170.013 438.715 170.706 436.431 171.202C434.147 171.746 430.526 172.836 428.354 173.628C426.237 174.421 422.951 175.956 421.112 176.996C419.274 178.085 416.266 180.314 414.428 181.948C411.922 184.226 410.25 186.405 407.688 190.862C405.794 194.23 403.176 199.826 401.784 203.738C400.391 207.552 397.996 215.129 396.436 220.576C394.876 226.024 392.481 235.186 391.089 240.881C389.696 246.576 387.579 255.985 386.354 261.681C385.128 267.376 383.569 275.299 382.9 279.261C382.009 284.313 381.675 288.819 381.619 294.613C381.564 299.12 381.786 304.122 382.455 308.728L375.882 308.381C372.261 308.183 366.691 307.489 363.46 306.846C360.229 306.152 354.715 304.766 351.206 303.726C347.641 302.686 340.232 299.813 334.495 297.238C328.813 294.663 324.023 292.335 323.8 291.989C323.577 291.642 323.354 288.374 323.354 284.709C323.354 281.044 323.577 277.181 323.8 276.092C324.134 274.457 324.747 273.863 328.367 271.585C330.651 270.198 333.993 267.574 335.776 265.84C337.558 264.107 340.845 260.195 343.073 257.223C345.301 254.252 349.256 248.656 351.874 244.843C354.492 241.029 358.614 234.888 360.954 231.224C363.349 227.559 368.863 218.199 373.208 210.424C377.553 202.649 381.285 195.815 381.508 195.22C381.731 194.428 381.564 193.982 381.007 193.735C380.449 193.487 379.837 193.636 379.391 194.081C379.001 194.478 375.046 201.163 370.59 208.938C366.134 216.713 360.452 226.172 358.057 229.986C355.606 233.799 350.871 240.831 347.585 245.585C344.298 250.34 340.344 255.936 338.784 257.966C337.224 259.997 334.55 262.968 332.879 264.602C331.153 266.187 328.256 268.416 326.418 269.505C324.58 270.595 321.85 271.833 320.291 272.229C318.787 272.625 315.89 272.922 313.885 272.922C311.879 272.922 307.256 272.477 303.58 271.882C299.903 271.337 294.389 270.496 291.325 270.05C288.261 269.604 279.516 267.722 271.829 265.89C264.198 264.008 256.01 261.879 253.726 261.185C251.442 260.442 249.102 259.452 248.545 259.006C247.599 258.313 247.487 257.57 247.71 253.014C247.877 248.26 248.044 247.517 249.882 244.1C250.996 242.069 252.946 239.296 254.227 237.909C255.508 236.572 256.901 234.888 257.346 234.195C258.071 233.007 258.238 232.957 266.649 232.61C271.328 232.412 279.46 231.818 284.641 231.273C289.877 230.729 295.002 230.085 296.06 229.887C297.842 229.59 297.954 229.639 297.508 230.53C297.285 231.026 296.561 233.155 295.948 235.186C295.113 237.909 294.946 239.692 295.169 242.02C295.336 243.704 295.781 245.536 296.06 246.081C296.394 246.625 297.118 247.071 297.731 247.071C298.344 247.071 299.012 246.774 299.179 246.477C299.402 246.13 299.235 244.397 298.789 242.614C298.232 240.039 298.232 238.85 298.734 236.671C299.124 235.186 300.962 230.828 302.856 227.014C304.694 223.201 308.426 215.277 311.1 209.434C313.829 203.59 317.951 193.239 320.291 186.405C322.686 179.621 325.861 171.004 327.365 167.339C328.924 163.674 331.041 159.118 332.155 157.187C333.214 155.305 335.497 151.937 337.168 149.758C338.895 147.579 342.293 144.013 344.8 141.834C347.251 139.655 353.378 135 358.447 131.534C365.8 126.482 369.086 124.551 374.879 122.025C378.89 120.292 385.017 118.063 388.526 117.073C392.036 116.033 397.55 114.745 400.781 114.101ZM462.332 159.811L474.866 160.009C481.773 160.158 487.454 160.455 487.51 160.703C487.566 160.95 488.568 167.735 489.627 175.758C491.298 187.693 491.521 190.417 490.908 190.763C490.518 190.961 488.68 191.011 486.842 190.862C485.003 190.714 482.107 190.516 480.436 190.417C477.428 190.219 477.372 190.219 477.205 188.584C477.094 187.643 476.648 185.514 476.202 183.83C475.812 182.097 474.81 179.67 474.086 178.383C473.362 177.045 471.858 175.263 470.744 174.421C469.629 173.529 467.513 172.242 465.953 171.548C464.449 170.855 463.057 170.013 462.945 169.716C462.778 169.369 462.611 166.992 462.5 164.417L462.332 159.811ZM17.5464 162.783L20.4986 163.03C22.114 163.179 24.7877 163.773 26.4588 164.318C28.1299 164.863 30.7479 166.299 32.2519 167.487C33.9229 168.775 35.5383 170.756 36.541 172.588C37.4322 174.223 38.5463 176.897 39.0476 178.531C39.4932 180.165 40.1059 184.424 40.2731 188.04C40.5516 192.299 40.4959 194.626 40.1059 194.626C39.8274 194.626 37.9335 193.784 35.9839 192.744C33.9786 191.754 30.6365 189.327 28.4641 187.396C26.2917 185.514 23.7294 182.741 22.7267 181.205C21.7241 179.72 20.2201 177.045 19.4402 175.312C18.2705 172.786 17.8806 171.053 17.7692 167.438L17.5464 162.783ZM123.103 168.973C123.381 167.438 123.493 167.388 128.952 167.388L128.673 169.221C128.506 170.261 128.005 175.312 127.503 180.512C127.058 185.662 126.278 192.695 125.777 196.112C125.275 199.479 125.053 202.847 125.22 203.54C125.387 204.234 126.055 204.927 126.779 205.175C127.503 205.373 131.347 205.67 135.358 205.868C139.312 206.016 143.769 206.016 145.217 205.818C146.721 205.67 147.724 205.274 147.612 205.026C147.445 204.729 148.058 204.531 149.005 204.531C150.063 204.531 150.899 204.184 151.344 203.491C151.957 202.599 152.291 202.55 154.296 202.996C155.522 203.293 161.538 203.837 167.665 204.283C173.792 204.729 182.649 205.224 187.44 205.422C192.731 205.62 195.962 205.967 195.906 206.264C195.795 206.512 195.071 206.908 194.235 207.106C193.4 207.354 186.715 208.245 179.363 209.186C172.01 210.127 161.594 211.266 156.246 211.712C150.453 212.207 140.427 212.554 131.737 212.603C120.596 212.653 115.193 212.454 110.013 211.811C104.164 211.117 102.66 210.771 100.822 209.582C99.5407 208.79 98.4824 207.7 98.4267 207.106C98.3153 206.264 98.8723 205.719 100.933 204.679C102.604 203.837 105.835 202.946 109.734 202.302C115.193 201.312 115.862 201.312 115.973 202.005C116.084 202.451 116.252 203.293 116.419 203.887C116.586 204.679 117.087 205.026 118.09 205.026C119.037 205.026 119.538 204.679 119.761 203.887C119.872 203.293 120.374 198.885 120.875 194.131C121.32 189.327 121.933 182.097 122.267 178.036C122.602 173.925 122.992 169.865 123.103 168.973ZM132.405 167.388H151.233L151.177 168.973C151.177 169.865 150.564 178.036 149.785 187.198C149.005 196.31 148.281 203.887 148.113 204.036C147.946 204.135 143.379 203.986 137.92 203.639C132.517 203.342 128.005 202.996 127.949 202.896C127.893 202.847 128.339 200.123 128.896 196.855C129.509 193.586 130.4 186.653 130.846 181.502C131.347 176.303 131.904 171.004 132.071 169.716L132.405 167.388ZM445.9 172.44C448.184 172.192 451.359 171.945 452.974 171.945C454.59 171.895 457.598 172.192 459.659 172.588C461.72 172.984 464.616 174.024 466.065 174.817C467.513 175.659 469.462 177.293 470.409 178.531C471.301 179.769 472.47 182.146 472.972 183.88C473.751 186.504 473.807 187.742 473.25 192.645C472.916 195.765 471.802 203.144 470.688 208.988C469.629 214.832 468.126 223.894 467.346 229.045C466.566 234.245 465.396 241.475 464.839 245.14C464.226 248.804 463.224 256.084 462.555 261.235C461.943 266.435 461.218 273.764 460.996 277.577C460.828 281.391 460.773 287.73 460.996 291.692C461.163 295.653 461.887 301.646 462.555 305.063C463.447 309.47 463.725 312.244 463.502 314.72C463.279 317.146 462.667 319.127 461.553 321.158C460.494 322.99 458.99 324.823 457.486 325.863C456.149 326.803 453.81 328.339 452.306 329.28C450.746 330.171 448.518 331.36 447.293 331.805C446.067 332.301 442.279 333.341 438.937 334.182C435.539 334.975 430.025 336.213 426.683 336.956C423.285 337.649 418.884 338.441 416.935 338.788C413.815 339.283 412.813 339.283 409.972 338.54C408.134 338.045 404.959 336.906 403.009 336.015C401.004 335.074 397.884 333.043 396.046 331.459C394.208 329.874 391.924 327.249 390.922 325.615C389.975 323.981 388.693 321.207 388.025 319.425C387.412 317.642 386.354 313.432 385.686 310.015C384.683 304.667 384.516 302.488 384.739 293.92C385.017 285.452 385.296 282.53 387.022 273.863C388.136 268.267 390.03 259.254 391.2 253.806C392.426 248.359 394.208 240.782 395.155 236.968C396.158 233.155 398.441 224.687 400.28 218.15C402.174 211.613 404.569 204.036 405.627 201.312C406.685 198.588 408.691 194.379 410.083 191.902C412.033 188.485 413.648 186.554 416.879 183.731C419.998 180.958 422.394 179.423 426.126 177.689C428.855 176.402 433.478 174.817 436.431 174.124C439.327 173.43 443.561 172.638 445.9 172.44ZM66.8432 182.344C69.2942 182.146 71.4666 182.097 71.7451 182.245C71.9679 182.394 71.9122 183.483 71.5223 184.721C71.1881 185.96 70.0183 188.386 68.9042 190.169C67.7902 191.952 65.8406 194.279 64.6151 195.369C63.0555 196.756 60.9945 197.796 58.1536 198.687C55.8698 199.43 53.029 200.123 51.8035 200.173C49.9096 200.321 49.5197 200.173 49.4083 199.331C49.2969 198.786 49.9653 196.458 50.9123 194.131C51.8592 191.803 53.3075 188.98 54.143 187.792C55.2571 186.257 56.5939 185.266 59.0449 184.177C61.4958 183.087 63.5568 182.592 66.8432 182.344ZM494.64 192.794C495.531 191.902 496.2 191.803 498.539 192.001C500.043 192.15 502.995 192.596 505.056 192.942C507.117 193.339 509.457 193.982 510.237 194.378C510.961 194.775 511.629 195.319 511.629 195.518C511.629 195.716 509.178 196.359 506.17 197.003C503.218 197.598 498.483 198.34 495.754 198.588C492.969 198.885 487.343 199.083 475.701 199.133L476.091 197.251C476.314 196.211 476.481 194.874 476.537 193.14L485.003 193.487C493.192 193.834 493.526 193.784 494.64 192.794ZM263.195 196.359C265.479 195.963 269.211 195.716 271.551 195.815C275.004 195.963 276.508 196.31 280.463 197.944C283.025 199.034 288.262 201.658 292.049 203.837C295.837 206.016 299.291 208.195 299.736 208.74C300.405 209.632 300.349 210.127 299.346 212.702C298.734 214.336 297.898 217.258 297.397 219.14C296.951 221.072 296.505 222.656 296.45 222.706C296.394 222.755 292.439 222.458 287.704 222.111C282.413 221.666 277.678 221.022 275.561 220.428C273.667 219.833 271.216 219.388 270.158 219.388C269.044 219.388 266.872 219.635 265.256 219.932C263.641 220.23 262.137 220.279 261.914 220.032C261.691 219.833 261.858 219.14 262.248 218.546C262.638 217.902 264.087 216.912 265.423 216.317C267.373 215.475 269.49 215.178 275.171 214.881C279.126 214.633 282.58 214.287 282.803 214.089C283.081 213.891 282.301 212.999 281.132 212.157C280.018 211.315 277.177 209.731 274.893 208.641C272.553 207.502 268.821 206.115 266.537 205.521C263.585 204.778 261.524 204.531 259.575 204.679C257.458 204.877 256.065 205.422 253.893 206.858C252.333 207.898 249.047 210.127 246.652 211.761C244.256 213.445 241.471 215.178 240.469 215.624C239.466 216.07 238.519 216.367 238.352 216.317C238.185 216.218 239.076 214.287 240.357 211.959C241.638 209.632 243.866 206.413 245.315 204.778C246.819 203.144 248.935 201.213 250.161 200.47C251.331 199.727 253.837 198.687 255.675 198.093C257.514 197.548 260.856 196.756 263.195 196.359ZM511.796 198.093C512.019 197.845 513.022 197.598 514.025 197.598C514.971 197.598 520.152 198.043 525.555 198.588C530.902 199.133 538.812 200.024 543.101 200.618C547.391 201.163 552.404 201.857 554.242 202.104C556.08 202.352 557.751 202.55 557.974 202.55C558.197 202.55 558.42 202.797 558.42 203.045C558.42 203.342 558.085 203.54 557.695 203.54C557.306 203.59 554.743 204.333 552.014 205.274C549.229 206.165 542.21 208.146 536.417 209.632C530.568 211.117 518.926 213.841 510.515 215.624C502.048 217.407 489.905 220.031 483.499 221.369C477.038 222.755 471.746 223.845 471.635 223.845C471.579 223.845 471.635 222.805 471.802 221.517C471.969 220.23 472.749 215.376 473.584 210.721C474.364 206.115 475.033 202.253 475.088 202.203C475.088 202.154 478.988 201.956 483.778 201.857C488.513 201.708 495.03 201.361 498.261 201.064C501.436 200.817 505.725 200.123 507.73 199.578C509.735 199.034 511.574 198.34 511.796 198.093ZM554.075 207.552C557.25 206.462 559.979 205.571 560.202 205.571C560.425 205.571 560.648 208.245 560.648 217.654L554.075 219.586C550.51 220.626 543.046 222.706 537.531 224.191C532.016 225.677 520.208 228.45 511.351 230.382C502.438 232.264 489.404 235.037 482.385 236.523C475.311 237.959 469.407 239.048 469.295 238.9C469.128 238.801 469.462 235.928 469.964 232.61C470.521 229.292 471.133 226.47 471.356 226.321C471.579 226.123 474.03 225.628 476.815 225.132C479.545 224.637 488.958 222.805 497.704 221.072C506.393 219.289 517.422 217.011 522.213 215.921C526.948 214.881 534.802 212.999 539.592 211.761C544.438 210.523 550.956 208.641 554.075 207.552ZM26.0689 208.394C25.9018 207.849 26.0689 207.502 26.5145 207.502C26.9601 207.502 29.6338 207.849 32.5861 208.295C35.4826 208.691 41.6099 209.087 46.2332 209.136C51.8592 209.186 55.9255 208.938 58.7664 208.443C61.0502 207.997 62.9441 207.7 62.9998 207.7C63.0555 207.75 62.6098 209.632 62.1085 211.959C61.2173 215.921 61.0502 216.218 59.5462 216.565C58.6549 216.763 54.6444 217.159 50.6895 217.456C45.6762 217.803 41.3314 217.803 36.7638 217.407C33.0874 217.11 29.3553 216.812 28.5198 216.664C27.0715 216.416 26.9601 216.268 26.6816 212.851C26.5145 210.87 26.236 208.839 26.0689 208.394ZM303.023 208.344C303.246 208.146 303.691 207.997 303.914 207.997C304.192 207.997 304.917 208.443 305.529 208.988C306.142 209.533 306.643 210.424 306.643 210.969C306.643 211.514 305.752 213.693 304.749 215.822C303.691 217.902 302.131 221.369 301.24 223.498C300.405 225.578 299.458 227.311 299.235 227.311C299.012 227.311 298.678 226.965 298.566 226.569C298.288 225.925 297.954 225.974 295.893 226.816C294.166 227.51 289.821 228.104 279.46 229.045C271.718 229.738 264.087 230.283 262.471 230.283C260.856 230.283 256.789 229.689 253.447 228.995C248.434 227.906 246.819 227.757 244.646 228.104C242.028 228.55 241.973 228.55 239.355 226.321C237.906 225.083 233.896 222.211 230.442 219.883C226.989 217.555 224.37 215.624 224.593 215.574C224.816 215.525 227.378 215.03 230.331 214.485C233.227 213.99 235.678 213.593 235.734 213.643C235.79 213.643 235.622 214.386 235.344 215.178C234.954 216.218 234.174 216.912 230.609 218.249L232.837 218.892C234.564 219.388 235.845 219.388 238.686 218.942C240.636 218.645 242.919 217.952 243.699 217.407C244.423 216.862 246.93 215.228 249.27 213.742C251.888 212.058 254.561 210.82 256.511 210.375C258.182 209.978 260.744 209.384 262.193 209.087C264.254 208.641 265.535 208.641 268.041 209.186C269.824 209.582 272.219 210.226 273.333 210.672C274.503 211.117 275.45 211.712 275.45 211.959C275.45 212.256 273.779 212.454 271.662 212.454C269.267 212.504 267.094 212.801 265.702 213.395C264.476 213.891 262.415 215.129 261.079 216.218C259.185 217.803 258.739 218.496 258.739 220.032C258.739 221.369 258.461 221.963 257.736 222.161C257.235 222.31 254.506 222.755 251.776 223.152C248.991 223.548 245.37 224.241 243.699 224.687C240.636 225.43 240.636 225.43 242.028 226.123C242.752 226.47 244.702 226.816 246.317 226.816C247.933 226.816 250.941 226.42 253.002 225.875C255.063 225.331 259.797 224.34 263.474 223.597C267.15 222.854 270.882 222.359 271.829 222.508C272.72 222.607 275.338 223.201 277.678 223.746C280.407 224.39 284.641 224.835 298.288 225.33L298.845 223.993C299.124 223.251 300.126 220.032 301.073 216.912C301.964 213.792 302.688 210.672 302.633 209.929C302.577 209.235 302.744 208.542 303.023 208.344ZM200.251 214.98C201.588 214.733 204.986 214.534 207.771 214.485C210.946 214.435 213.676 214.683 215.291 215.178C216.628 215.624 218.41 216.218 219.19 216.515C219.914 216.862 222.811 218.496 225.54 220.131C228.325 221.765 232.67 224.885 239.967 231.026L237.683 233.749C236.402 235.235 234.62 238.008 233.673 239.841C232.726 241.673 231.723 244.347 231.333 245.784C230.999 247.22 230.442 248.804 230.108 249.3C229.551 250.142 229.105 250.191 226.153 249.894C224.315 249.696 220.75 249.003 218.188 248.309C215.681 247.665 211.893 246.378 209.832 245.437C207.771 244.496 204.93 243.01 203.593 242.119C202.201 241.227 199.081 239.643 196.631 238.553C194.18 237.513 190.169 236.226 187.718 235.631C184.209 234.839 181.981 234.69 171.509 234.988L176.578 229.193L181.312 229.391C184.71 229.589 187.495 230.085 191.339 231.224C194.235 232.115 197.689 233.403 198.97 234.047C200.307 234.69 201.477 235.235 201.644 235.235C201.755 235.235 201.922 234.74 201.922 234.146C201.922 233.452 201.31 232.709 200.363 232.214C199.527 231.769 196.575 230.58 193.845 229.639C190.559 228.45 186.938 227.658 183.373 227.212C179.251 226.717 177.97 226.42 177.914 225.826C177.914 225.43 178.249 224.835 178.583 224.489C179.084 224.043 181.089 223.845 184.599 223.845C189.055 223.894 191.116 224.191 197.243 225.727C203.816 227.361 204.707 227.51 205.543 226.816C206.379 226.123 206.379 226.073 205.432 225.628C204.875 225.38 202.424 224.687 199.973 224.092C197.522 223.449 193.79 222.458 191.729 221.814C188.609 220.824 187.997 220.477 187.997 219.536C187.997 218.893 188.331 218.298 188.832 218.15C189.278 218.001 190.336 217.902 191.172 217.902C192.007 217.902 196.853 218.595 201.922 219.437C206.936 220.279 212.06 221.072 213.174 221.171C214.567 221.319 215.291 221.171 215.291 220.774C215.291 220.428 215.012 219.883 214.623 219.586C214.177 219.289 211.726 218.546 209.164 217.952C206.546 217.407 202.702 216.763 200.53 216.614C198.413 216.416 196.909 216.119 197.188 215.872C197.522 215.624 198.859 215.228 200.251 214.98ZM27.6285 218.992C27.6842 218.892 28.3527 218.942 29.1882 219.091C29.9681 219.239 33.6444 219.635 37.3208 219.932C40.9972 220.23 46.5118 220.378 49.5754 220.23C52.6391 220.081 56.4825 219.685 58.2093 219.388C59.8804 219.091 61.273 218.892 61.3287 218.992C61.3844 219.091 60.9945 221.369 60.3817 224.092C59.8247 226.816 58.8778 230.53 58.3764 232.363C57.7637 234.245 56.8725 235.978 56.2597 236.424C55.647 236.82 53.9759 237.365 52.6391 237.563C51.2465 237.81 46.846 237.959 42.8911 237.959C38.8805 237.959 34.9256 237.81 34.0901 237.612C33.0317 237.365 32.3076 236.622 31.6948 235.384C31.1935 234.344 30.0795 230.283 29.1882 226.321C28.297 222.359 27.5728 219.091 27.6285 218.992ZM175.408 222.953C176.299 222.706 177.19 222.607 177.357 222.706C177.525 222.755 177.023 223.449 176.299 224.241C175.519 224.984 173.235 227.212 171.286 229.193C169.281 231.174 166.997 233.007 166.273 233.304C165.493 233.551 163.098 234.195 157.082 235.582L159.31 235.978C160.535 236.226 162.429 236.176 163.599 235.928C165.381 235.532 165.66 235.582 165.827 236.473C165.938 237.266 166.495 237.513 168.501 237.612C169.838 237.711 173.458 237.563 176.41 237.266C179.418 236.968 182.092 236.82 182.426 236.968C182.761 237.117 182.705 237.513 182.259 238.008C181.869 238.405 181.814 238.751 182.148 238.751C182.426 238.801 182.204 238.999 181.591 239.197C180.532 239.593 180.588 239.643 181.869 239.643C182.593 239.692 184.376 239.445 185.769 239.197C187.718 238.801 188.944 238.85 191.339 239.494C193.01 239.94 196.018 240.98 198.023 241.772C199.973 242.614 202.089 243.654 202.591 244.1C203.148 244.545 203.593 245.09 203.593 245.288C203.593 245.486 202.925 245.635 202.201 245.635C201.421 245.635 198.246 246.18 195.071 246.873C191.952 247.517 186.381 248.557 182.705 249.151C176.745 250.142 175.575 250.191 172.4 249.646C170.395 249.3 165.493 248.359 161.538 247.616C157.527 246.824 147.445 244.843 139.09 243.208C130.734 241.525 123.381 240.187 122.657 240.187C121.989 240.187 121.098 239.94 120.708 239.593C120.318 239.247 119.984 238.702 119.984 238.355C120.039 238.008 120.596 237.612 121.265 237.513C121.989 237.414 124.551 237.018 127.002 236.721C129.453 236.424 137.307 235.136 144.549 233.948C151.734 232.709 159.644 231.323 162.095 230.828C164.546 230.283 166.217 229.887 165.827 229.837C165.437 229.837 165.159 229.639 165.103 229.441C165.103 229.243 165.938 228.797 166.941 228.45C168.668 227.856 168.612 227.856 165.716 228.104C163.989 228.252 154.352 229.788 144.27 231.57C134.132 233.353 124.496 235.136 122.824 235.483C121.098 235.879 119.538 236.028 119.315 235.829C119.092 235.631 118.925 234.888 118.981 234.146C119.092 233.007 119.427 232.759 121.933 232.313C123.493 232.066 132.294 230.58 141.485 229.045C150.676 227.51 161.705 225.628 165.994 224.786C170.283 223.993 174.517 223.151 175.408 222.953ZM243.254 231.669C243.922 231.075 245.092 230.778 247.153 230.778C248.768 230.778 251.553 231.174 253.28 231.669C255.063 232.115 256.511 232.709 256.511 232.908C256.511 233.106 256.121 233.254 255.675 233.254C255.23 233.254 253.893 234.195 252.723 235.384C251.498 236.523 249.882 238.256 249.102 239.197C248.323 240.138 247.041 242.664 246.206 244.793C245.426 246.923 244.758 250.043 244.646 251.825C244.535 254.302 244.312 255.044 243.699 255.044C243.198 255.044 240.914 254.5 238.519 253.806C234.731 252.717 234.174 252.42 233.84 251.231C233.673 250.488 233.784 248.606 234.118 247.121C234.508 245.635 235.622 242.862 236.625 240.93C237.628 239.048 239.299 236.374 240.357 234.988C241.416 233.65 242.697 232.115 243.254 231.669ZM448.073 334.281C448.574 334.034 449.131 334.083 449.465 334.331C449.799 334.628 450.134 336.015 450.245 337.401C450.412 339.036 450.134 341.017 449.465 342.7C448.797 344.582 447.627 346.217 445.622 348.049C444.118 349.485 441.667 351.07 440.33 351.615C438.937 352.11 436.876 352.655 435.707 352.803C434.091 353.051 433.646 352.952 433.646 352.357C433.646 351.961 433.868 351.516 434.203 351.367C434.481 351.218 435.038 349.535 435.372 347.554C435.707 345.573 435.818 342.948 435.595 341.71C435.372 340.472 434.927 339.234 434.537 338.887C434.203 338.541 434.035 338.144 434.203 338.045C434.314 337.946 437.322 337.154 440.887 336.262C444.396 335.421 447.627 334.529 448.073 334.281ZM7.24135 213.296L0 214.534C0.222811 217.06 0.501324 217.357 1.22546 217.209C1.78249 217.06 6.2387 216.317 11.1405 215.426C16.0424 214.584 20.61 213.693 21.2784 213.445C22.0026 213.197 22.3925 212.752 22.2811 212.454C22.114 212.207 20.2758 212.009 18.2148 212.009C16.1538 212.058 11.1962 212.653 7.24135 213.296ZM247.766 336.659C247.487 337.253 247.933 337.897 249.325 338.887C250.328 339.63 252.445 340.62 254.004 341.017C255.508 341.413 258.461 341.71 260.522 341.71H264.309C263.808 346.118 263.195 350.03 262.583 353.249C261.97 356.418 261.524 359.291 261.524 359.538C261.524 359.835 262.193 360.034 263.028 360.034C264.532 360.034 264.588 359.935 265.535 355.477C266.036 352.952 266.816 348.792 267.206 346.266L267.93 341.66L273.333 341.958C273.556 347.999 273.946 349.535 275.004 351.367C275.784 352.754 277.288 354.586 278.402 355.477C279.739 356.517 281.8 357.409 284.195 358.003C286.256 358.548 289.264 359.192 290.88 359.489C292.662 359.835 300.293 360.034 310.375 359.984C325.805 359.885 326.362 359.885 318.619 359.489C313.996 359.291 307.256 358.845 303.58 358.548C299.903 358.251 294.389 357.656 291.325 357.26C288.261 356.815 284.585 356.072 283.248 355.527C281.856 355.032 280.185 354.091 279.516 353.496C278.848 352.853 277.901 351.565 277.455 350.624C277.065 349.683 276.508 347.9 276.285 346.662C276.118 345.424 276.174 343.889 276.453 343.196C276.898 342.057 277.177 341.958 280.24 342.106C282.023 342.205 288.651 342.552 294.946 342.948C301.185 343.344 314.999 344.038 325.582 344.483C338.84 345.078 349.702 345.226 360.675 345.028C369.365 344.879 379.057 344.533 382.121 344.186C385.184 343.889 390.03 343.245 392.983 342.7C395.879 342.156 398.497 341.512 398.831 341.215C399.203 340.885 399.017 340.819 398.274 341.017C397.439 341.215 397.049 341.017 396.882 340.323C396.603 339.432 396.436 339.382 392.147 340.026C389.696 340.422 384.404 341.066 380.449 341.413C376.439 341.809 368.696 342.304 363.182 342.453C357.667 342.651 346.471 342.552 338.394 342.255C330.261 341.958 316.336 341.363 307.479 340.967C298.566 340.571 284.307 339.878 275.728 339.481C267.15 339.036 258.461 338.491 256.511 338.194C254.506 337.946 252.11 337.253 251.219 336.758C250.272 336.213 249.214 335.817 248.824 335.817C248.434 335.767 247.933 336.163 247.766 336.659ZM62.387 27.3368C61.6629 28.3272 61.7186 31.5958 62.9441 55.9612C63.6682 71.0658 64.6708 90.776 65.1722 99.7892C65.6178 108.753 66.2305 120.688 66.5647 126.284C66.8432 131.88 67.2332 140.002 67.456 144.36C67.6231 148.718 68.0687 152.729 68.4029 153.274C68.96 154.265 69.2942 154.265 94.9174 153.869C109.177 153.67 134.522 153.274 151.233 153.027C167.944 152.779 192.23 152.432 205.264 152.234C218.299 152.086 229.217 151.789 229.551 151.59C229.941 151.442 230.275 150.947 230.386 150.55C230.442 150.154 230.331 148.223 230.108 146.341C229.941 144.41 229.384 137.625 228.938 131.236C228.492 124.848 227.601 111.675 226.989 102.018C226.376 92.3607 225.373 76.6124 224.76 67.1039C224.148 57.5459 223.368 44.769 223.034 38.6281C222.644 31.3482 222.254 27.2377 221.808 26.8416C221.251 26.3463 206.1 26.1978 142.153 26.2473H63.2226L62.387 27.3368ZM65.6735 29.1196C66.2305 29.0206 101.045 28.872 219.19 28.6739L219.469 30.3082C219.58 31.1996 220.081 38.3805 220.527 46.2547C221.028 54.1784 221.641 64.9744 221.975 70.2734C222.309 75.6219 222.922 85.5265 223.368 92.3112C223.813 99.1454 224.705 112.616 225.317 122.273C225.93 131.979 226.599 141.933 227.267 148.916L211.392 149.213C202.646 149.411 181.479 149.758 164.323 150.006C147.167 150.253 119.148 150.65 102.103 150.897C74.753 151.244 71.0209 151.194 70.7981 150.501C70.631 150.105 70.2411 143.518 69.9069 135.892C69.5727 128.265 69.1828 119.945 69.0156 117.32C68.8485 114.745 68.3472 105.187 67.9016 96.0254C67.456 86.9132 66.5647 69.4315 66.0077 57.1497C65.395 44.9175 64.8379 33.6262 64.7265 32.091C64.6151 29.6149 64.7265 29.2682 65.6735 29.1196ZM356.832 56.605C356.776 57.0507 357.11 58.0412 357.5 58.784C357.946 59.5269 358.67 60.3192 359.171 60.5173C359.672 60.7154 360.341 60.864 360.675 60.864C360.954 60.864 361.232 60.4183 361.232 59.8735C361.232 59.3288 360.898 58.3383 360.508 57.645C360.118 56.9517 359.505 56.4069 359.115 56.4069C358.725 56.4069 358.113 56.3079 357.667 56.1098C357.221 55.9612 356.887 56.1593 356.832 56.605ZM368.473 59.9726C368.028 60.3192 367.694 60.9135 367.805 61.3592C367.861 61.9535 368.641 62.1021 371.537 62.1021C373.487 62.1021 375.158 61.9535 375.158 61.7554C375.158 61.5573 374.489 61.0621 373.765 60.6164C372.985 60.2202 371.648 59.7745 370.813 59.6259C369.922 59.4773 368.919 59.6259 368.473 59.9726ZM369.198 65.5687C368.195 66.8563 368.195 66.9058 369.198 67.7477C370.144 68.5401 370.256 68.4906 371.314 67.302C371.927 66.6582 372.317 65.7668 372.205 65.3211C372.15 64.9249 371.648 64.5287 371.147 64.4297C370.646 64.3801 369.755 64.8754 369.198 65.5687ZM482.942 67.7972C482.775 68.0944 482.385 71.7096 482.051 75.8695C481.661 81.7132 481.717 83.5456 482.218 84.0408C482.775 84.5361 485.95 84.6846 495.865 84.6846L508.844 84.6351C509.178 82.9513 509.401 79.2866 509.513 75.4733C509.68 70.2239 509.568 68.3915 509.011 67.9458C508.454 67.5001 505.001 67.302 495.754 67.302C488.011 67.302 483.11 67.5001 482.942 67.7972ZM485.56 69.7782L506.338 70.0258L506.616 82.159L495.865 81.9609C486.062 81.7628 485.115 81.6637 484.948 80.8714C484.836 80.3761 484.948 77.6523 485.171 74.879L485.56 69.7782ZM432.754 68.1439C432.142 68.2925 431.417 68.5896 431.083 68.8867C430.712 69.2169 430.898 69.6131 431.64 70.0753C432.531 70.6696 435.428 70.8182 446.68 70.8182C458.935 70.8182 460.717 70.7191 461.441 70.0258C462.221 69.2829 462.165 69.1344 461.163 68.4906C460.271 67.9458 457.431 67.7972 446.959 67.8468C439.773 67.8963 433.367 68.0449 432.754 68.1439ZM431.696 81.9113C431.529 82.357 431.807 82.8523 432.364 83.1494C432.921 83.397 439.494 83.5456 447.237 83.4961C460.773 83.397 461.163 83.397 461.163 82.4066C461.163 81.4656 460.773 81.4161 446.624 81.3171C434.035 81.1685 432.03 81.2675 431.696 81.9113ZM328.59 90.1817C326.752 90.4293 325.137 90.7265 324.97 90.875C324.858 91.0236 325.081 91.3703 325.527 91.6179C326.028 91.915 327.643 92.0141 329.147 91.915C330.707 91.7665 332.657 91.3703 333.436 91.0236C334.272 90.6274 334.829 90.1817 334.718 89.9836C334.55 89.7855 333.882 89.637 333.214 89.637C332.489 89.6865 330.428 89.9341 328.59 90.1817ZM474.309 97.7092C474.271 98.2375 474.68 98.4686 475.534 98.4025C476.202 98.3035 476.759 98.0559 476.759 97.7588C476.759 97.5111 476.258 97.214 475.59 97.115C474.754 97.0159 474.364 97.214 474.309 97.7092ZM481.773 97.7588C481.606 98.1549 481.661 98.7492 481.773 98.9968C481.94 99.294 487.399 99.4921 496.423 99.4921C508.287 99.4921 510.961 99.393 511.852 98.7987C512.855 98.1549 512.855 97.9569 512.131 97.5607C511.629 97.214 505.502 97.0159 496.701 97.0159C484.168 97.0159 481.996 97.115 481.773 97.7588ZM442.502 98.3035C441.165 98.6997 439.327 99.6406 438.436 100.383C437.6 101.126 436.431 102.909 435.818 104.345C435.205 105.782 434.704 108.159 434.704 109.644C434.704 111.13 435.038 113.012 435.484 113.755C435.874 114.498 436.988 115.686 437.823 116.379C438.714 117.073 440.441 117.915 441.667 118.261C442.892 118.658 445.176 118.856 446.791 118.757C448.797 118.608 450.356 118.162 452.083 117.073C453.476 116.231 455.035 114.646 455.76 113.359C456.874 111.526 457.041 110.536 456.874 107.614C456.762 104.593 456.484 103.702 455.035 101.919C454.144 100.78 452.529 99.4425 451.415 98.9968C450.356 98.5016 448.462 98.0064 447.237 97.8578C446.012 97.7092 443.895 97.9073 442.502 98.3035ZM443.672 100.631C444.73 100.334 445.789 100.037 446.012 100.037C446.234 99.9873 447.348 100.383 448.462 100.879C449.577 101.324 451.081 102.513 451.749 103.454C452.417 104.395 453.197 106.079 453.364 107.168C453.587 108.258 453.476 110.09 453.142 111.279C452.64 112.962 452.083 113.606 450.189 114.597C448.852 115.24 447.07 115.934 446.123 116.132C445.009 116.33 443.728 116.132 442.224 115.488C440.72 114.795 439.661 113.854 438.993 112.566C438.213 111.229 437.99 109.892 438.157 108.109C438.269 106.277 438.826 104.94 440.051 103.404C441.11 102.018 442.447 101.027 443.672 100.631ZM487.51 107.267C485.003 107.366 484.224 107.614 484.001 108.307C483.834 108.753 483.889 109.248 484.056 109.397C484.224 109.545 487.621 109.694 491.576 109.793C497.592 109.892 498.818 109.793 499.041 109.149C499.208 108.753 499.041 108.06 498.651 107.663C498.094 107.069 497.035 106.921 494.306 107.02C492.356 107.069 489.237 107.168 487.51 107.267ZM357.89 144.558C357.834 144.855 357.277 145.103 356.609 145.202C355.773 145.251 356.887 145.945 360.229 147.431C363.572 148.867 366.301 150.501 368.863 152.68C370.924 154.413 373.542 157.286 374.712 159.019C375.882 160.752 377.442 163.823 378.166 165.853C378.89 167.884 379.781 171.796 380.171 174.52C380.505 177.243 381.062 179.868 381.341 180.363C381.564 180.809 382.288 181.205 382.9 181.205C383.513 181.205 384.014 180.958 384.014 180.611C384.014 180.264 383.792 177.64 383.457 174.767C383.123 171.895 382.455 168.131 381.953 166.348C381.452 164.566 380.561 162.139 379.948 160.901C379.391 159.663 377.776 157.286 376.439 155.602C375.102 153.869 372.428 151.343 370.534 149.956C368.585 148.57 365.688 146.787 363.961 146.044C362.29 145.301 360.229 144.558 359.394 144.36C358.503 144.211 357.89 144.261 357.89 144.558ZM28.6869 174.767C28.6869 175.164 29.1882 176.946 29.8009 178.729C30.4694 180.512 31.9734 183.681 33.1431 185.811C34.3686 187.891 35.4826 189.624 35.594 189.624C35.7611 189.624 35.3155 188.584 34.5914 187.297C33.8672 186.009 32.8646 184.127 32.3633 183.186C31.8619 182.245 30.8036 179.769 30.0795 177.739C29.3553 175.708 28.7426 174.371 28.6869 174.767ZM30.0795 175.263C30.2466 175.956 31.472 178.184 32.6975 180.215C33.9229 182.245 35.8168 185.316 36.8195 187.049C37.8221 188.733 38.9362 190.219 39.2147 190.367C39.5489 190.516 39.4375 190.12 38.9919 189.525C38.5463 188.881 36.2625 185.167 33.9229 181.205C31.5834 177.243 29.8566 174.569 30.0795 175.263ZM430.248 188.04C429.245 188.782 427.351 190.714 426.07 192.348C424.733 193.982 422.784 197.003 421.725 199.034C420.667 201.064 418.773 205.67 417.547 209.186C416.322 212.752 414.54 218.199 413.593 221.319C412.701 224.439 410.807 231.818 409.415 237.662C408.078 243.506 405.906 253.658 404.68 260.195C403.455 266.732 402.062 275.547 401.561 279.756C400.892 285.303 400.725 289.909 400.892 296.347C401.115 301.992 401.617 307.39 402.341 310.956C402.953 314.076 404.123 318.533 404.959 320.861C405.794 323.188 407.187 326.457 408.022 328.19C408.914 329.874 410.028 331.459 410.529 331.657C411.086 331.855 411.587 331.756 411.866 331.261C412.2 330.815 411.921 329.626 411.197 328.042C410.585 326.704 409.248 323.436 408.245 320.861C407.242 318.286 405.961 313.828 405.404 310.956C404.569 306.846 404.346 303.28 404.346 293.623C404.346 286.442 404.68 279.459 405.07 276.537C405.516 273.814 406.685 266.93 407.799 261.185C408.858 255.49 410.362 247.913 411.086 244.347C411.866 240.831 413.37 234.591 414.428 230.481C415.431 226.42 417.325 219.833 418.606 215.872C419.831 211.91 421.837 206.462 423.062 203.738C424.232 201.015 426.237 197.35 427.518 195.567C428.799 193.784 430.86 191.407 432.142 190.268C434.203 188.386 434.37 188.089 433.59 187.396C433.144 186.95 432.587 186.603 432.42 186.653C432.197 186.653 431.195 187.297 430.248 188.04ZM59.8804 189.624C59.8804 190.02 57.8194 192.15 55.2571 194.279L50.6338 198.142C57.3181 193.487 59.5462 191.655 59.8247 191.11C60.1589 190.565 60.2703 189.872 60.1589 189.525C60.0104 189.129 59.9175 189.162 59.8804 189.624ZM56.4825 190.664C55.09 191.556 53.7531 192.447 53.4189 192.744C53.1404 192.992 53.6974 192.843 54.7001 192.299C55.7027 191.803 57.2067 190.862 58.0422 190.268C58.8778 189.674 59.4348 189.179 59.2677 189.179C59.0449 189.129 57.8194 189.822 56.4825 190.664ZM252.835 215.129C251.609 215.525 250.551 215.872 250.495 215.872C250.384 215.872 250.328 216.119 250.328 216.367C250.328 216.664 251.776 216.862 253.559 216.862C255.285 216.862 257.124 216.664 257.569 216.367C258.071 216.119 258.461 215.574 258.572 215.129C258.683 214.584 258.238 214.386 256.901 214.435C255.898 214.435 254.06 214.782 252.835 215.129ZM243.087 219.437C242.028 219.685 241.081 219.982 241.026 220.032C240.914 220.032 240.97 220.477 241.137 220.972C241.36 221.616 242.028 221.814 243.811 221.814C245.092 221.814 247.153 221.567 248.378 221.27C249.604 220.923 250.328 220.626 249.938 220.527C249.548 220.428 249.381 219.982 249.492 219.586C249.715 218.992 249.27 218.843 247.431 218.892C246.095 218.942 244.201 219.14 243.087 219.437ZM152.848 236.275C151.79 236.523 150.676 236.968 150.342 237.216C150.063 237.464 150.007 237.81 150.286 238.058C150.564 238.256 155.243 239.296 160.647 240.386C166.941 241.673 170.339 242.119 169.949 241.723C169.448 241.227 169.559 241.079 170.395 241.079C171.342 241.079 171.286 240.98 170.116 240.584C169.392 240.287 165.604 239.544 161.761 238.85C157.973 238.207 154.686 237.662 154.519 237.662C154.408 237.662 154.631 237.464 155.076 237.167C155.578 236.919 156.58 236.671 157.304 236.671C158.586 236.622 158.641 236.572 157.583 236.176C156.97 235.928 156.135 235.78 155.633 235.78C155.188 235.78 153.962 235.978 152.848 236.275ZM129.732 237.711C129.564 237.959 132.294 238.751 135.747 239.445C139.201 240.138 146.999 241.921 153.127 243.406C159.254 244.892 165.883 246.279 167.888 246.477C170.784 246.774 171.397 246.725 171.23 246.13C171.063 245.784 169.336 245.041 167.331 244.496C165.381 244.001 158.363 242.515 151.734 241.178C145.161 239.841 138.421 238.504 136.694 238.256C135.023 237.959 132.795 237.612 131.793 237.464C130.79 237.365 129.843 237.464 129.732 237.711ZM79.9334 40.9062C79.4878 41.0547 79.1535 41.4509 79.2092 41.8471C79.2649 42.2433 79.6549 42.6395 80.0448 42.7385C80.4347 42.8871 87.6761 42.9861 96.0872 43.0356C106.448 43.1347 111.74 42.9861 112.241 42.6395C112.742 42.2928 112.854 41.7976 112.631 41.3519C112.241 40.6585 110.124 40.5595 96.4771 40.609C87.7875 40.609 80.379 40.7576 79.9334 40.9062ZM99.7078 51.4546C99.5407 51.7517 99.7078 52.2965 100.098 52.7422C100.71 53.386 104.275 53.485 129.453 53.4355C145.551 53.4355 158.53 53.2374 158.976 52.9898C159.755 52.5936 159.755 52.4451 158.976 51.7517C158.251 51.0089 155.188 50.9098 129.063 50.9594C110.291 50.9594 99.8749 51.1575 99.7078 51.4546ZM84.1111 51.9498C83.944 52.1974 83.944 52.6927 84.0554 52.9403C84.2225 53.2374 85.0023 53.4355 85.7265 53.4355C86.7291 53.4355 87.119 53.1879 87.0076 52.5936C86.8962 52.0984 86.3392 51.6527 85.6708 51.5536C85.0023 51.4546 84.3339 51.6527 84.1111 51.9498ZM104.053 62.5973C103.718 63.1916 103.83 63.5382 104.387 63.8354C104.888 64.083 110.236 64.3801 116.363 64.5782C122.49 64.7268 142.933 64.7268 161.761 64.5782C180.644 64.4297 196.185 64.182 196.296 64.083C196.463 63.9344 196.408 63.5382 196.185 63.0925C195.795 62.4487 190.949 62.3497 156.357 62.3497C134.689 62.3497 114.135 62.2011 110.737 62.0525C105.222 61.7554 104.498 61.8049 104.053 62.5973ZM85.6708 63.3401C85.8936 63.6373 87.0633 63.8354 88.4002 63.8354C90.127 63.8354 90.5169 63.6868 89.9042 63.3401C89.4585 63.0925 88.2331 62.8449 87.2304 62.8449C86.1164 62.8449 85.5037 63.043 85.6708 63.3401ZM81.326 75.4733C81.1588 75.919 81.3816 76.3648 81.9944 76.5133C82.4957 76.7114 88.7344 76.959 95.8087 77.1571C106.838 77.4047 108.843 77.3552 109.623 76.7114C110.347 76.1171 110.403 75.8695 109.846 75.3248C109.289 74.8295 105.947 74.681 95.4187 74.7305C83.7212 74.7305 81.6045 74.8295 81.326 75.4733ZM102.214 84.9818C101.769 85.0808 101.435 85.5265 101.49 85.9227C101.546 86.3189 101.992 86.7151 102.437 86.8637C102.939 87.0122 119.148 87.1113 138.533 87.1113C169.336 87.1113 173.737 87.0122 173.737 86.3684C173.737 85.9722 173.403 85.477 172.901 85.2789C172.456 85.0808 156.525 84.8332 137.53 84.7837C118.535 84.7342 102.66 84.8332 102.214 84.9818ZM106.225 97.4121C105.501 97.4616 104.944 97.8578 104.944 98.254C104.944 98.6502 105.222 99.0959 105.501 99.2445C105.835 99.393 126.835 99.4921 152.18 99.4921C177.525 99.4921 199.026 99.294 199.917 99.0959C200.864 98.8483 201.588 98.353 201.588 97.9568C201.588 97.3626 194.959 97.2635 154.519 97.2635C128.673 97.2635 106.893 97.313 106.225 97.4121ZM89.7928 97.8578C89.5699 98.1054 89.5142 98.4521 89.6814 98.6502C89.7928 98.8483 90.684 98.9968 91.5752 98.9968C92.6336 98.9968 93.1906 98.7987 93.0792 98.4025C92.9678 98.0559 92.2994 97.7092 91.5195 97.6102C90.7954 97.5607 89.9599 97.6597 89.7928 97.8578ZM85.5037 110.635C85.0023 111.279 85.2251 111.427 86.7291 111.675C87.7318 111.873 93.7477 111.873 100.098 111.675C109.846 111.427 111.628 111.279 111.628 110.635C111.628 109.991 109.846 109.892 98.8723 109.892C88.2331 109.892 86.0607 110.041 85.5037 110.635ZM129.732 120.292C105.724 120.539 105.222 120.589 105.222 121.53C105.222 122.52 105.557 122.52 149.228 122.372C173.458 122.273 193.511 121.976 193.79 121.728C194.124 121.53 194.235 121.035 194.013 120.688C193.734 120.193 189.445 120.044 173.96 120.044C163.153 119.995 143.212 120.143 129.732 120.292ZM89.18 120.738C88.9572 121.035 88.9015 121.48 89.0129 121.678C89.1243 121.877 89.6814 122.174 90.2941 122.372C90.8511 122.57 91.798 122.421 92.4108 122.025C93.0235 121.678 93.4134 121.233 93.2463 121.084C93.1349 120.985 92.188 120.688 91.2967 120.539C90.2384 120.341 89.4028 120.44 89.18 120.738ZM105.779 132.524C105.167 132.673 104.777 133.069 104.832 133.465C104.888 133.861 105.501 134.307 106.225 134.406C106.893 134.554 121.655 134.604 138.923 134.554L170.395 134.406L170.673 132.177C121.265 132.276 106.392 132.425 105.779 132.524ZM88.9015 133.267C88.4002 133.762 88.5673 134.01 89.5142 134.257C90.1827 134.455 91.4638 134.455 92.2994 134.257C93.1349 134.059 93.7477 133.713 93.6362 133.415C93.5248 133.168 92.5779 132.871 91.5195 132.772C90.4055 132.673 89.2914 132.92 88.9015 133.267Z"
          fill="white"
          style="fill: white; fill-opacity: 1"
        />
      </svg>